<?xml version="1.0" encoding="UTF-8"?>
<svg id="Warstwa_1" data-name="Warstwa 1" xmlns="http://www.w3.org/2000/svg" viewBox="0 0 60 73.6">
  <defs>
    <style>
      .cls-1 {
        fill: #bbb;
        stroke-width: 0px;
      }
    </style>
  </defs>
  <path class="cls-1" d="M31.21,70.24c-11.87,0-21.49-9.62-21.49-21.48v-25.52s.57,0,.57,0h41.83s.57,0,.57,0v25.53c0,11.87-9.62,21.48-21.49,21.49ZM31.21,69.09c11.24,0,20.34-9.11,20.34-20.34v-24.38s-40.68,0-40.68,0v24.38c0,11.23,9.1,20.34,20.34,20.34Z"/>
  <path class="cls-1" d="M16.29,13.55c-1.47-3.87-2.95-7.77-3.01-7.89l.08-.09c.19.06.54.23,1,.42.46.19,1.05.4,1.73.56.64.15.85.23,1.28.83.27.43.22,1.09.15,1.47.06.14.31.22.43.08.26-.46.5-.91.89-1.28.44-.41,1.06-.68,1.98-.54,1.52.19,2.07,2.26,1.26,3-.44.53-1.2,1.35-.24,1.9l.02.09c-.28.4-1.23.75-1.68.1-.23-.36-.25-.5-.16-.89.03-.12.07-.26.11-.45.03-.66-.72-.77-1.09-.66-.3.1-.61.46-.66,1.28-.14,1.91,1.17,4.76,4.05,4,1.58-.42,1.76-1.18,1.78-2.12-.55-.06-.97-.52-.97-1.09,0-.6.49-1.09,1.09-1.09s1.09.49,1.09,1.09c0,.42-.23.78-.57.96.03.09.07.2.1.28.33.76.81,1.3,2.31,1.16,2.96-.26,3.22-3.39,2.44-5.14-.33-.76-.74-.99-1.06-.98-.38.02-1.05.39-.8.99.14.21.32.43.41.66.07.18.06.34,0,.62-.2.76-1.21.76-1.61.48v-.09c.71-.85-.3-1.36-.9-1.7-1.01-.43-1.2-2.55.17-3.25,1.03-.56,1.91-.39,2.78.27.21.16.39.33.55.46.16.1.36-.07.37-.22-.21-.33-.52-.62-.53-1.05-.08-.47,0-.95.2-1.3.22-.37.53-.69.8-1.02.32-.4.68-.91,1.01-1.7h.12c.33.79.69,1.3,1.01,1.7.27.34.58.65.8,1.02.19.35.28.83.2,1.3-.02.42-.32.71-.53,1.04,0,.16.21.32.37.22.41-.34.78-.69,1.28-.9.55-.23,1.23-.28,2.05.17,1.37.7,1.17,2.83.16,3.25-.59.34-1.59.85-.88,1.7v.09c-.41.29-1.42.28-1.62-.48-.09-.42-.07-.56.15-.9.07-.1.15-.22.26-.38.25-.61-.42-.97-.8-.99-.32-.01-.73.22-1.06.98-.79,1.75-.53,4.88,2.44,5.14,1.5.13,1.98-.4,2.31-1.16.03-.08.08-.19.1-.28-.34-.18-.57-.55-.57-.96,0-.6.49-1.09,1.09-1.09s1.09.49,1.09,1.09c0,.56-.42,1.03-.97,1.09.02.94.2,1.7,1.78,2.12,2.87.77,4.19-2.09,4.05-4-.05-.82-.36-1.18-.66-1.28-.36-.11-1.11,0-1.09.66.06.24.15.51.16.76,0,.19-.06.34-.21.58-.45.64-1.4.3-1.68-.1l.02-.09c.97-.56.19-1.38-.25-1.9-.8-.75-.25-2.81,1.27-2.99,1.16-.17,1.93.28,2.52,1.2.14.22.25.44.36.62.12.14.37.07.43-.08-.07-.37-.12-1.03.15-1.47.43-.6.65-.68,1.28-.83.68-.15,1.27-.37,1.73-.56.47-.19.81-.36,1-.42l.08.09c-.06.12-1.54,4.02-3.01,7.89l-2.77,7.33h-24.09l-2.86-7.33Z"/>
  <g>
    <g>
      <polygon class="cls-1" points="38.23 54.98 41.27 58.86 39.11 60.55 36.05 56.68 38.23 54.98"/>
      <path class="cls-1" d="M20.03,36.87c-.61-.21-1.43-.13-2.02.29-.08.06-.23.05-.28,0-.02-.02-1.24-1-1.24-1l6.66-5.21.67,1.45c.03.07.01.21-.06.28-.44.4-.75.96-.77,1.87,0,.96.58,1.56.8,1.86-.4.31-1.77,1.39-2.17,1.7-.53-.76-.91-1.07-1.59-1.24Z"/>
      <path class="cls-1" d="M39.5,62.71c.37.44,1.04.51,1.43.21l2.17-1.7c.39-.3.53-.94.16-1.41l-.31-.4c-.38-.48-1.02-.49-1.41-.18l-2.17,1.69c-.39.31-.49.98-.19,1.37l.32.41Z"/>
      <path class="cls-1" d="M33.24,48.59l3.47,4.41-2.16,1.69-3.06-3.87,1.74-2.23ZM25.3,38.38l5.57,7.18-1.74,2.23-6-7.72,2.17-1.69Z"/>
      <path class="cls-1" d="M37.21,53.24l-2.56,2c-.6.46.31,1.66.93,1.19l2.57-2c.59-.46-.34-1.65-.93-1.19Z"/>
      <path class="cls-1" d="M24.26,36.66l-2.56,2c-.6.46.31,1.66.93,1.18l2.57-2c.59-.46-.34-1.65-.93-1.19Z"/>
      <path class="cls-1" d="M16.05,35.8l-3.32-2.57c-.05-.04-.04-.24.15-.2.03,0,2.08.19,2.08.19v-1.48c-.02-.09.12-.22.22-.19.01,0,1.43.39,1.43.39l-.69-3.15c-.03-.12.13-.25.25-.2,0,0,2.87,1.45,2.87,1.45l-.02-1.47c0-.1.12-.24.25-.2.02,0,1.41.39,1.41.39l.32-2.07c0-.17.16-.16.19-.13,0,.01,1.73,3.85,1.73,3.85l-6.86,5.39Z"/>
    </g>
    <g>
      <polygon class="cls-1" points="24.12 55.07 21.07 58.95 23.23 60.64 26.29 56.76 24.12 55.07"/>
      <path class="cls-1" d="M42.31,36.96c.61-.21,1.43-.13,2.02.29.08.06.23.05.28,0,.02-.02,1.24-1,1.24-1l-6.66-5.21-.67,1.45c-.03.07-.01.21.06.28.44.4.75.96.77,1.87,0,.96-.58,1.56-.8,1.86.4.31,1.77,1.39,2.17,1.7.53-.76.91-1.07,1.59-1.24Z"/>
      <path class="cls-1" d="M22.84,62.8c-.37.44-1.04.51-1.43.21l-2.17-1.7c-.39-.3-.53-.94-.16-1.41l.31-.4c.38-.48,1.02-.49,1.41-.18l2.17,1.69c.39.31.49.98.19,1.37l-.32.41Z"/>
      <path class="cls-1" d="M25.13,53.33l2.56,2c.6.46-.31,1.66-.93,1.19l-2.57-2c-.59-.46.34-1.65.93-1.19Z"/>
      <path class="cls-1" d="M38.08,36.75l2.56,2c.6.46-.31,1.66-.93,1.18l-2.57-2c-.59-.46.34-1.65.93-1.19Z"/>
      <path class="cls-1" d="M46.29,35.88l3.32-2.57c.05-.04.04-.24-.15-.2-.03,0-2.08.19-2.08.19v-1.48c.02-.09-.12-.22-.22-.19-.01,0-1.43.39-1.43.39l.69-3.15c.03-.12-.13-.25-.25-.2,0,0-2.87,1.45-2.87,1.45l.02-1.47c0-.1-.12-.24-.25-.2-.02,0-1.41.39-1.41.39l-.32-2.07c0-.17-.16-.16-.19-.13,0,.01-1.73,3.85-1.73,3.85l6.86,5.39Z"/>
      <polygon class="cls-1" points="37.04 38.47 39.21 40.16 27.79 54.78 25.63 53.09 37.04 38.47"/>
    </g>
  </g>
</svg>