<?xml version="1.0" encoding="UTF-8" standalone="no"?>
<!-- Created with Inkscape (http://www.inkscape.org/) -->

<svg
   version="1.1"
   id="svg1"
   width="420"
   height="62.666668"
   viewBox="0 0 420 62.666668"
   sodipodi:docname="base_logo_transparent_background.svg"
   inkscape:version="1.4.2 (ebf0e940, 2025-05-08)"
   xmlns:inkscape="http://www.inkscape.org/namespaces/inkscape"
   xmlns:sodipodi="http://sodipodi.sourceforge.net/DTD/sodipodi-0.dtd"
   xmlns="http://www.w3.org/2000/svg"
   xmlns:svg="http://www.w3.org/2000/svg">
  <defs
     id="defs1" />
  <sodipodi:namedview
     id="namedview1"
     pagecolor="#ffffff"
     bordercolor="#000000"
     borderopacity="0.25"
     inkscape:showpageshadow="2"
     inkscape:pageopacity="0.0"
     inkscape:pagecheckerboard="0"
     inkscape:deskcolor="#d1d1d1"
     inkscape:zoom="1.9809524"
     inkscape:cx="210"
     inkscape:cy="31.550481"
     inkscape:window-width="1712"
     inkscape:window-height="1158"
     inkscape:window-x="1742"
     inkscape:window-y="25"
     inkscape:window-maximized="0"
     inkscape:current-layer="g1">
    <inkscape:page
       x="0"
       y="0"
       inkscape:label="1"
       id="page1"
       width="420"
       height="62.666668"
       margin="0"
       bleed="0" />
  </sodipodi:namedview>
  <g
     id="g1"
     inkscape:groupmode="layer"
     inkscape:label="1">
    <path
       id="path1"
       d="m 727.66,250.941 v 1.52 h -4.89 c -6.36,0 -10.622,4.258 -10.622,10.66 v 88.828 l 56.25,-65.699 c 17.34,-20.391 39.883,-39.262 65.122,-39.262 3.671,0 8.511,0.313 12.769,0.903 v 1.839 c -2.738,-0.32 -5.16,-0.589 -6.988,-0.589 -1.531,0 -2.742,0.269 -3.949,0.269 -13.981,1.211 -28.282,12.192 -51.403,39.891 -22.539,26.129 -48.719,60.23 -58.129,73 l 97.071,94.929 c 3.007,3.04 8.199,5.149 12.461,5.149 h 0.589 v 1.531 h -38.64 v -1.531 h 9.148 c 6.403,0 7.61,-3.039 3.039,-7.301 l -97.34,-94.609 v 91.293 c 0,6.359 4.262,10.617 10.622,10.617 h 4.89 v 1.531 h -48.398 v -1.531 h 4.879 c 6.41,0 10.66,-4.258 10.66,-10.617 V 263.121 c 0,-6.402 -4.25,-10.66 -10.66,-10.66 h -4.879 v -1.52 z"
       style="fill:#e2c9bc;fill-opacity:1;fill-rule:nonzero;stroke:none"
       transform="matrix(0.13333333,0,0,-0.13333333,0,62.666667)" />
    <path
       id="path2"
       d="m 834.141,347.379 c 0,-60.539 45.308,-101.598 104.019,-101.598 67.86,0 123.83,54.449 123.83,121.098 0,59.293 -44.1,102.223 -105.541,102.223 -71.527,0 -122.308,-57.813 -122.308,-121.723 z m 109.808,111.062 c 59.961,0 106.791,-51.101 106.791,-106.171 0,-53.25 -43.51,-96.141 -97.342,-96.141 -56.289,0 -105.589,47.152 -105.589,105.551 0,53.242 41.101,96.761 96.14,96.761 z"
       style="fill:#e2c9bc;fill-opacity:1;fill-rule:nonzero;stroke:none"
       transform="matrix(0.13333333,0,0,-0.13333333,0,62.666667)" />
    <path
       id="path3"
       d="m 1080.27,250.941 h 48.36 v 1.52 h -4.88 c -6.37,0 -10.63,4.258 -10.63,10.66 v 87.93 h 23.44 c 0.28,0 0.9,0 1.21,0 18.87,-61.172 57.78,-107.102 125.94,-107.102 35.31,0 67.23,12.77 91.29,38.942 h -1.52 c -23.75,-21.602 -45.94,-30.43 -78.21,-30.43 -41.99,0 -96.75,17.027 -119.88,100.699 25.59,5.789 51.45,23.442 51.45,55.078 0,37.114 -36.22,55.672 -68.17,55.672 h -58.4 v -1.531 h 4.85 c 6.4,0 10.66,-4.258 10.66,-10.617 V 263.121 c 0,-6.402 -4.26,-10.66 -10.66,-10.66 h -4.85 z m 46.84,210.231 c 20.7,-0.902 59.65,-12.774 59.65,-56.293 0,-32.219 -21.6,-50.5 -52.97,-50.5 h -20.67 v 106.793 z m 102.23,-168.551 h 96.13 l 16.76,24.059 h -1.25 l -9.1,-7.301 c -7.62,-6.719 -20.4,-11.289 -30.75,-11.289 h -45.31 v 89.449 h 38.32 c 7.89,0 11.56,-2.418 15.2,-5.777 l 3.04,-3.051 h 1.21 l -5.78,13.711 h -51.99 v 66.328 h 50.78 c 5.2,0 10.98,-3.051 14.02,-6.719 l 7,-8.793 h 1.21 l -6.41,20.672 h -93.08 v -1.531 h 3.63 c 5.51,0 8.83,-3.32 8.83,-8.508 V 302.379 c 0,-5.188 -3.32,-8.238 -8.83,-8.238 h -3.63 z"
       style="fill:#e2c9bc;fill-opacity:1;fill-rule:nonzero;stroke:none"
       transform="matrix(0.13333333,0,0,-0.13333333,0,62.666667)" />
    <path
       id="path4"
       d="m 1445.66,469.102 c -54.45,0 -73.32,-31.051 -73.32,-60.231 0,-13.402 3.95,-27.699 19.77,-41.992 5.78,-5.199 12.77,-10.039 22.19,-17.039 18.59,-13.711 43.82,-29.84 43.82,-57.219 0,-26.762 -24.33,-35.902 -40.78,-35.902 -15.82,0 -32.54,8.242 -40.46,15.23 l -10.94,-14.289 c 11.87,-6.719 25.86,-11.879 39.57,-11.879 21.87,0 62.03,13.399 62.03,57.809 0,28.601 -16.41,46.25 -45.94,64.808 -28.28,17.34 -39.53,31.012 -39.53,51.403 0,30.121 24.34,40.469 40.78,40.469 10.31,0 21.88,-3.942 28.6,-8.239 l 1.52,0.938 z"
       style="fill:#e2c9bc;fill-opacity:1;fill-rule:nonzero;stroke:none"
       transform="matrix(0.13333333,0,0,-0.13333333,0,62.666667)" />
    <path
       id="path5"
       d="m 1478.2,252.461 v -1.52 h 48.36 v 1.52 h -4.84 c -6.41,0 -10.67,4.258 -10.67,10.66 v 198.051 h 4.89 c 26.76,-0.902 60.54,-12.774 60.54,-57.5 0,-37.422 -21.91,-55.973 -53.86,-55.973 h -4.26 v -2.738 h 3.94 c 41.68,0 74.85,23.437 74.85,61.758 0,35.582 -25.55,57.191 -78.79,57.191 h -40.16 v -1.531 h 4.89 c 6.36,0 10.62,-4.258 10.62,-10.617 V 263.121 c 0,-6.402 -4.26,-10.66 -10.62,-10.66 z"
       style="fill:#e2c9bc;fill-opacity:1;fill-rule:nonzero;stroke:none"
       transform="matrix(0.13333333,0,0,-0.13333333,0,62.666667)" />
    <path
       id="path6"
       d="m 1609.34,347.379 c 0,-60.539 45.31,-101.598 104.06,-101.598 67.81,0 123.83,54.449 123.83,121.098 0,59.293 -44.14,102.223 -105.59,102.223 -71.48,0 -122.3,-57.813 -122.3,-121.723 z m 109.84,111.062 c 59.92,0 106.76,-51.101 106.76,-106.171 0,-53.25 -43.48,-96.141 -97.35,-96.141 -56.29,0 -105.58,47.152 -105.58,105.551 0,53.242 41.09,96.761 96.17,96.761 z"
       style="fill:#e2c9bc;fill-opacity:1;fill-rule:nonzero;stroke:none"
       transform="matrix(0.13333333,0,0,-0.13333333,0,62.666667)" />
    <path
       id="path7"
       d="m 1894.73,250.941 v 1.52 h -4.89 c -6.4,0 -10.66,4.258 -10.66,10.66 v 179.5 l 175.55,-191.68 h 35.62 c 70.27,0 120.16,39.258 120.16,108.008 0,62.071 -56.88,104.961 -129.61,104.961 h -52.03 v -1.531 h 4.88 c 6.37,0 10.63,-4.258 10.63,-10.617 V 286.84 l -161.84,177.07 h -27.07 v -1.531 h 1.83 c 6.37,0 13.68,-4.258 13.68,-16.719 V 263.121 c 0,-6.402 -4.26,-10.66 -10.67,-10.66 h -4.84 v -1.52 z m 180.07,208.707 c 66.65,0 115,-44.726 115,-111.636 0,-53.871 -42.57,-92.813 -102.5,-92.813 h -25.58 v 204.449 z"
       style="fill:#e2c9bc;fill-opacity:1;fill-rule:nonzero;stroke:none"
       transform="matrix(0.13333333,0,0,-0.13333333,0,62.666667)" />
    <path
       id="path8"
       d="m 2226.95,250.941 h 119.26 l 21.29,30.11 h -1.52 l -11.25,-9.41 c -9.73,-8.2 -25.55,-13.981 -38.36,-13.981 h -56.57 v 111.32 h 48.05 c 9.45,0 14.03,-3.039 18.56,-7.3 l 3.98,-3.629 h 1.52 l -7.61,17.027 h -64.5 v 82.152 h 63.29 c 6.36,0 13.36,-3.359 17.34,-8.21 l 8.83,-10.661 h 1.21 l -7.62,25.551 h -115.9 v -1.531 h 4.85 c 0.62,0 1.21,0 1.83,0 5.47,-0.899 8.83,-5.149 8.83,-10.617 V 263.121 c 0,-6.402 -4.26,-10.66 -10.66,-10.66 h -4.85 z"
       style="fill:#e2c9bc;fill-opacity:1;fill-rule:nonzero;stroke:none"
       transform="matrix(0.13333333,0,0,-0.13333333,0,62.666667)" />
    <path
       id="path9"
       d="m 2370.55,462.379 h 1.83 c 6.37,0 13.67,-4.258 13.67,-16.719 V 263.121 c 0,-6.402 -4.25,-10.66 -10.66,-10.66 h -4.84 v -1.52 h 39.25 v 1.52 h -4.88 c -6.4,0 -10.66,4.258 -10.66,10.66 v 179.5 L 2574.38,246.09 h 2.42 v 205.672 c 0,6.359 4.25,10.617 10.66,10.617 h 4.88 v 1.531 h -39.25 v -1.531 h 4.88 c 6.37,0 10.62,-4.258 10.62,-10.617 V 276.801 L 2397.62,463.91 h -27.07 z"
       style="fill:#e2c9bc;fill-opacity:1;fill-rule:nonzero;stroke:none"
       transform="matrix(0.13333333,0,0,-0.13333333,0,62.666667)" />
    <path
       id="path10"
       d="M 2806.21,295.352 C 2791.6,275 2756.6,256.129 2726.8,256.129 c -56.29,0 -105.55,47.152 -105.55,108.91 0,49.883 41.05,93.402 94.92,93.402 33.75,0 63.56,-17.351 78.79,-35.281 h 1.52 l 4.26,20.668 c -18.86,13.082 -38.63,25.274 -71.21,25.274 -71.17,0 -121.99,-57.813 -121.99,-121.723 0,-60.539 45.35,-101.598 104.96,-101.598 42.89,0 79.1,25.239 96.45,49.571 z"
       style="fill:#e2c9bc;fill-opacity:1;fill-rule:nonzero;stroke:none"
       transform="matrix(0.13333333,0,0,-0.13333333,0,62.666667)" />
    <path
       id="path11"
       d="m 2799.8,266.172 c 14.61,-18.281 35.32,-20.391 44.73,-20.391 33.17,0 60.55,24.649 60.55,69.059 v 136.922 c 0,6.359 4.26,10.617 10.66,10.617 h 4.85 v 1.531 h -48.36 v -1.531 h 4.88 c 6.37,0 10.62,-4.258 10.62,-10.617 V 308.75 c 0,-43.52 -20.39,-56.289 -39.53,-56.289 -17.03,0 -38.04,14.301 -44.14,36.211 0,0.308 -1.21,0 -1.52,0 z"
       style="fill:#e2c9bc;fill-opacity:1;fill-rule:nonzero;stroke:none"
       transform="matrix(0.13333333,0,0,-0.13333333,0,62.666667)" />
    <path
       id="path12"
       d="m 2907.54,252.461 v -1.52 h 41.68 v 1.52 h -11.29 c -6.37,0 -8.52,3.949 -5.78,9.449 l 46.56,89.141 h 92.5 l 41.99,-88.86 c 2.74,-5.781 0.28,-9.73 -6.09,-9.73 h -1.84 v -1.52 H 3150 v 1.52 h -3.36 c -6.37,0 -12.46,3.949 -15.19,9.73 L 3032.85,470 2921.21,258.871 c -1.83,-3.672 -6.41,-6.41 -10.66,-6.41 z m 119.53,191.68 41.99,-88.52 h -88.2 z"
       style="fill:#e2c9bc;fill-opacity:1;fill-rule:nonzero;stroke:none"
       transform="matrix(0.13333333,0,0,-0.13333333,0,62.666667)" />
    <path
       id="path13"
       d="m 683.672,205.43 c 5.738,0 9.566,-3.828 9.566,-9.61 V 25.9805 c 0,-5.75 -3.828,-9.6094 -9.566,-9.6094 h -4.41 V 15 h 35.347 v 1.3711 h -4.379 c -5.742,0 -9.609,3.8594 -9.609,9.6094 V 193.09 L 787.77,9.53125 874.059,192.809 V 25.9805 c 0,-5.75 -3.829,-9.6094 -9.571,-9.6094 h -4.41 V 15 h 43.594 v 1.3711 h -4.41 c -5.742,0 -9.571,3.8594 -9.571,9.6094 V 195.82 c 0,5.782 3.829,9.61 9.571,9.61 h 4.41 v 1.371 h -31.524 l -79.726,-172.3518 -80,172.3518 h -33.16 v -1.371 z"
       style="fill:#ffb81c;fill-opacity:1;fill-rule:nonzero;stroke:none"
       transform="matrix(0.13333333,0,0,-0.13333333,0,62.666667)" />
    <path
       id="path14"
       d="M 934.059,195.82 V 25.9805 c 0,-5.75 -3.829,-9.6094 -9.571,-9.6094 h -4.367 V 15 h 43.551 v 1.3711 h -4.41 c -5.742,0 -9.571,3.8594 -9.571,9.6094 V 195.82 c 0,5.782 3.829,9.61 9.571,9.61 h 4.41 v 1.371 h -43.551 v -1.371 h 4.367 c 5.742,0 9.571,-3.828 9.571,-9.61 z"
       style="fill:#ffb81c;fill-opacity:1;fill-rule:nonzero;stroke:none"
       transform="matrix(0.13333333,0,0,-0.13333333,0,62.666667)" />
    <path
       id="path15"
       d="m 1023.67,15 v 1.3711 h -4.37 c -5.78,0 -9.61,3.8594 -9.61,9.6094 V 105.98 l 50.7,-59.1792 c 15.59,-18.3594 35.86,-35.3516 58.63,-35.3516 3.28,0 7.66,0.2696 11.49,0.8203 v 1.6407 c -2.46,-0.2813 -4.65,-0.5508 -6.29,-0.5508 -1.37,0 -2.46,0.2695 -3.56,0.2695 -12.61,1.1016 -25.5,10.9805 -46.32,35.9024 -20.28,23.5585 -43.83,54.2577 -52.31,65.7387 l 87.38,85.511 c 2.74,2.739 7.39,4.649 11.25,4.649 h 0.55 v 1.371 h -34.8 v -1.371 h 8.2 c 5.78,0 6.87,-2.731 2.73,-6.559 l -87.65,-85.242 v 82.191 c 0,5.782 3.83,9.61 9.61,9.61 h 4.37 v 1.371 h -43.549 v -1.371 h 4.367 c 5.742,0 9.571,-3.828 9.571,-9.61 V 25.9805 c 0,-5.75 -3.829,-9.6094 -9.571,-9.6094 h -4.367 V 15 Z"
       style="fill:#ffb81c;fill-opacity:1;fill-rule:nonzero;stroke:none"
       transform="matrix(0.13333333,0,0,-0.13333333,0,62.666667)" />
    <path
       id="path16"
       d="m 1119.57,101.879 c 0,-54.5392 40.82,-91.5274 93.67,-91.5274 61.1,0 111.53,49.0586 111.53,109.0584 0,53.399 -39.73,92.039 -95.08,92.039 -64.38,0 -110.12,-52.039 -110.12,-109.57 z m 98.91,100 c 53.94,0 96.13,-46.059 96.13,-95.629 0,-47.9687 -39.18,-86.5586 -87.66,-86.5586 -50.7,0 -95.07,42.457 -95.07,95.0386 0,47.969 36.99,87.149 86.6,87.149 z"
       style="fill:#ffb81c;fill-opacity:1;fill-rule:nonzero;stroke:none"
       transform="matrix(0.13333333,0,0,-0.13333333,0,62.666667)" />
    <path
       id="path17"
       d="m 1329.41,63.7891 25.75,25.7422 V 25.9805 c 0,-5.75 -3.83,-9.6094 -9.57,-9.6094 h -4.38 V 15 h 111.76 l 19.18,27.1484 h -1.37 l -7.93,-6.5976 c -13.16,-10.6719 -25.19,-14.5 -50.43,-14.5 h -41.64 V 105.16 l 57.54,57.539 -5.47,5.192 -52.07,-51.801 v 79.73 c 0,5.782 3.83,9.61 9.61,9.61 h 7.11 v 1.371 h -46.29 v -1.371 h 4.38 c 5.74,0 9.57,-3.828 9.57,-9.61 v -95.308 l -31.21,-31.2503 z"
       style="fill:#ffb81c;fill-opacity:1;fill-rule:nonzero;stroke:none"
       transform="matrix(0.13333333,0,0,-0.13333333,0,62.666667)" />
    <path
       id="path18"
       d="M 1465.31,16.3711 V 15 h 37.54 v 1.3711 h -10.15 c -5.75,0 -7.66,3.5898 -5.2,8.5078 l 41.91,80.2811 h 83.29 l 37.81,-79.9998 c 2.46,-5.1993 0.27,-8.7891 -5.47,-8.7891 h -1.64 V 15 h 40.27 v 1.3711 h -3.01 c -5.74,0 -11.25,3.5898 -13.71,8.7891 L 1578.2,212.27 1477.66,22.1484 c -1.64,-3.3203 -5.78,-5.7773 -9.61,-5.7773 z m 107.66,172.6089 37.81,-79.718 h -79.45 z"
       style="fill:#ffb81c;fill-opacity:1;fill-rule:nonzero;stroke:none"
       transform="matrix(0.13333333,0,0,-0.13333333,0,62.666667)" />
    <path
       id="path19"
       d="m 1669.96,28.7109 c 13.16,-16.4414 31.8,-18.3593 40.27,-18.3593 29.89,0 54.54,22.1875 54.54,62.1875 V 195.82 c 0,5.782 3.82,9.61 9.61,9.61 h 4.37 v 1.371 h -43.55 v -1.371 h 4.37 c 5.74,0 9.57,-3.828 9.57,-9.61 V 67.0703 c 0,-39.1797 -18.36,-50.6992 -35.59,-50.6992 -15.35,0 -34.25,12.8906 -39.72,32.6094 0,0.2812 -1.13,0 -1.41,0 z"
       style="fill:#ffb81c;fill-opacity:1;fill-rule:nonzero;stroke:none"
       transform="matrix(0.13333333,0,0,-0.13333333,0,62.666667)" />
    <path
       id="path20"
       d="M 1766.95,16.3711 V 15 h 37.54 v 1.3711 h -10.11 c -5.79,0 -7.7,3.5898 -5.24,8.5078 l 41.91,80.2811 h 83.33 l 37.81,-79.9998 c 2.46,-5.1993 0.27,-8.7891 -5.51,-8.7891 h -1.64 V 15 h 40.27 v 1.3711 h -3.01 c -5.74,0 -11.21,3.5898 -13.71,8.7891 L 1879.84,212.27 1779.3,22.1484 c -1.64,-3.3203 -5.75,-5.7773 -9.61,-5.7773 z m 107.7,172.6089 37.81,-79.718 h -79.45 z"
       style="fill:#ffb81c;fill-opacity:1;fill-rule:nonzero;stroke:none"
       transform="matrix(0.13333333,0,0,-0.13333333,0,62.666667)" />
    <path
       id="path21"
       d="m 2125.86,211.449 c -49.02,0 -66.02,-27.929 -66.02,-54.258 0,-12.031 3.56,-24.921 17.82,-37.781 5.19,-4.68 11.48,-9.058 20,-15.351 16.72,-12.3402 39.45,-26.8676 39.45,-51.5199 0,-24.0977 -21.91,-32.3086 -36.72,-32.3086 -14.26,0 -29.3,7.3906 -36.44,13.6797 l -9.85,-12.8594 c 10.67,-6.0508 23.28,-10.6992 35.63,-10.6992 19.72,0 55.86,12.0703 55.86,52.0703 0,25.7383 -14.77,41.6371 -41.37,58.3591 -25.47,15.59 -35.63,27.93 -35.63,46.289 0,27.11 21.96,36.45 36.72,36.45 9.34,0 19.73,-3.559 25.78,-7.43 l 1.37,0.82 z"
       style="fill:#ffb81c;fill-opacity:1;fill-rule:nonzero;stroke:none"
       transform="matrix(0.13333333,0,0,-0.13333333,0,62.666667)" />
    <path
       id="path22"
       d="m 2155.2,15 h 107.38 l 19.18,27.1484 h -1.37 l -10.12,-8.5195 c -8.79,-7.3789 -23.04,-12.5781 -34.53,-12.5781 h -50.97 V 121.328 h 43.28 c 8.51,0 12.61,-2.777 16.72,-6.598 l 3.59,-3.281 h 1.37 l -6.88,15.352 h -58.08 v 73.98 h 56.99 c 5.74,0 12.07,-3.051 15.62,-7.422 l 7.93,-9.57 h 1.1 l -6.84,23.012 H 2155.2 v -1.371 h 4.37 c 0.55,0 1.09,0 1.64,0 4.92,-0.821 7.97,-4.649 7.97,-9.61 V 25.9805 c 0,-5.75 -3.87,-9.6094 -9.61,-9.6094 h -4.37 z"
       style="fill:#ffb81c;fill-opacity:1;fill-rule:nonzero;stroke:none"
       transform="matrix(0.13333333,0,0,-0.13333333,0,62.666667)" />
    <path
       id="path23"
       d="m 2284.49,15 h 43.6 v 1.3711 h -4.42 c -5.74,0 -9.57,3.8594 -9.57,9.6094 V 105.16 h 22.19 c 18.09,-59.4608 64.1,-96.44906 127.11,-96.44906 35.08,0 69.06,11.51956 98.63,35.07816 h -1.37 c -27.93,-17.8086 -53.12,-27.418 -86.56,-27.418 -41.37,0 -100.82,15.3477 -121.64,90.4299 21.64,4.918 46.02,20.539 46.02,49.84 0,33.437 -32.62,50.16 -61.37,50.16 h -52.62 v -1.371 h 4.42 c 5.74,0 9.57,-3.828 9.57,-9.61 V 25.9805 c 0,-5.75 -3.83,-9.6094 -9.57,-9.6094 h -4.42 z m 42.19,189.34 c 18.63,-0.82 53.71,-11.531 53.71,-50.711 0,-29.02 -19.45,-45.469 -47.66,-45.469 h -18.63 v 96.18 z m 56.44,-149.6095 v -1.3711 h 29.89 v 1.3711 h -8.24 c -4.65,0 -6.02,2.4609 -3.83,6.5976 l 33.16,64.1019 h 66.56 l 30.16,-63.8284 c 1.91,-4.4102 0.27,-6.8711 -4.37,-6.8711 h -1.41 v -1.3711 h 32.07 v 1.3711 h -2.19 c -4.65,0 -9.02,2.4609 -10.97,6.8711 l -70.94,149.0194 -80,-151.7929 c -1.37,-2.457 -4.65,-4.0976 -7.7,-4.0976 z m 52.62,74.2495 33.44,63.829 30.12,-63.829 z"
       style="fill:#ffb81c;fill-opacity:1;fill-rule:nonzero;stroke:none"
       transform="matrix(0.13333333,0,0,-0.13333333,0,62.666667)" />
    <path
       id="path24"
       d="m 2566.17,205.43 h 4.38 c 5.74,0 9.57,-3.828 9.57,-9.61 V 25.9805 c 0,-5.75 -3.83,-9.6094 -9.57,-9.6094 h -4.38 V 15 h 43.56 v 1.3711 h -4.38 c -5.78,0 -9.61,3.8594 -9.61,9.6094 v 95.3475 h 46.84 c 5.78,0 8.24,-3.598 6.05,-9.058 l -0.27,-0.821 h 0.82 l 7.93,15.352 h -61.37 v 73.98 h 51.53 c 5.74,0 12.03,-3.051 15.58,-7.422 l 7.97,-9.57 h 1.09 l -6.83,23.012 h -98.91 z"
       style="fill:#ffb81c;fill-opacity:1;fill-rule:nonzero;stroke:none"
       transform="matrix(0.13333333,0,0,-0.13333333,0,62.666667)" />
    <path
       id="path25"
       d="M 2685.9,195.82 V 25.9805 c 0,-5.75 -3.87,-9.6094 -9.61,-9.6094 h -4.38 V 15 h 43.56 v 1.3711 h -4.38 c -5.74,0 -9.61,3.8594 -9.61,9.6094 V 195.82 c 0,5.782 3.87,9.61 9.61,9.61 h 4.38 v 1.371 h -43.56 v -1.371 h 4.38 c 5.74,0 9.61,-3.828 9.61,-9.61 z"
       style="fill:#ffb81c;fill-opacity:1;fill-rule:nonzero;stroke:none"
       transform="matrix(0.13333333,0,0,-0.13333333,0,62.666667)" />
    <path
       id="path26"
       d="m 2731.91,205.43 h 1.64 c 5.75,0 12.35,-3.828 12.35,-15.078 V 25.9805 c 0,-5.75 -3.87,-9.6094 -9.61,-9.6094 h -4.38 V 15 h 35.36 v 1.3711 h -4.42 c -5.74,0 -9.57,3.8594 -9.57,9.6094 V 187.621 L 2915.47,10.6211 h 2.19 V 195.82 c 0,5.782 3.82,9.61 9.61,9.61 h 4.37 v 1.371 h -35.35 v -1.371 h 4.37 c 5.79,0 9.61,-3.828 9.61,-9.61 V 38.2813 L 2756.29,206.801 h -24.38 z"
       style="fill:#ffb81c;fill-opacity:1;fill-rule:nonzero;stroke:none"
       transform="matrix(0.13333333,0,0,-0.13333333,0,62.666667)" />
    <path
       id="path27"
       d="M 2931.64,16.3711 V 15 h 37.54 v 1.3711 h -10.16 c -5.74,0 -7.65,3.5898 -5.19,8.5078 l 41.91,80.2811 h 83.28 l 37.82,-79.9998 c 2.46,-5.1993 0.27,-8.7891 -5.47,-8.7891 h -1.64 V 15 H 3150 v 1.3711 h -3.01 c -5.74,0 -11.25,3.5898 -13.71,8.7891 L 3044.53,212.27 2943.98,22.1484 c -1.64,-3.3203 -5.78,-5.7773 -9.6,-5.7773 z m 107.66,172.6089 37.81,-79.718 h -79.45 z"
       style="fill:#ffb81c;fill-opacity:1;fill-rule:nonzero;stroke:none"
       transform="matrix(0.13333333,0,0,-0.13333333,0,62.666667)" />
    <path
       id="path28"
       d="m 267.07,22.0313 c 3.129,0 3.129,9.3789 0.782,9.3789 -6.293,0 -7.071,3.9414 -7.071,8.6289 v 12.539 c 0.778,34.4532 0.778,69.6919 1.598,104.1409 0,17.23 -1.598,194.261 -1.598,266.293 0,24.289 0,23.508 -24.261,25.078 -14.879,0.781 -24.29,-4.731 -29.758,-18.051 -10.203,-21.918 -20.352,-44.609 -29.774,-67.34 -10.148,-25.039 -18.789,-50.898 -28.976,-79.89 -3.91,10.203 -7.032,17.23 -10.16,24.3 L 89.3008,432.422 c -6.2891,14.879 -9.4219,16.449 -25.082,15.668 h -9.418 C 39.9609,447.301 24.3008,446.52 8.62891,444.922 5.46875,444.141 0,441.801 0,440.23 c 0,-6.25 5.46875,-5.46 9.41016,-5.46 6.25004,0.781 13.28904,0.781 19.57034,1.558 5.4687,1.563 7.039,0 7.039,-5.469 0,-21.949 0.7813,-43.871 0,-65.82 -0.789,-78.32 -2.3476,-156.598 -3.9101,-234.918 L 30.5508,50.2305 c 0,-19.6094 -7.0703,-7.8516 -22.74221,-15.6602 -1.55859,-0.7812 0,-8.6289 1.60157,-7.8515 19.57034,0 39.14064,0.7812 57.92964,2.3398 2.3516,0 2.3516,9.4219 0,9.4219 -6.25,0.7812 -12.539,0 -18.789,0 -4.6797,0 -6.25,1.5586 -6.25,6.25 0.789,9.4101 0.789,18.789 1.5703,28.1992 0,44.6483 3.1172,245.8983 4.6797,301.5193 v 38.36 c 3.1289,-3.118 4.6875,-6.25 6.25,-10.149 10.9805,-26.64 21.9609,-53.281 33.7187,-79.89 12.5005,-28.2 25.8205,-55.622 39.9215,-83.821 0.778,-3.129 5.469,-7.039 8.629,-6.25 6.25,1.563 7.032,5.461 10.942,13.321 l 59.527,159.761 c 1.563,3.91 3.91,7.809 5.473,12.539 l 3.16,-1.558 c -0.781,-18.832 -2.383,-37.621 -3.16,-56.41 -0.782,-61.09 -0.782,-121.403 -2.352,-182.461 -0.781,-46.211 -3.121,-92.4222 -4.68,-139.4105 0,-3.1289 0.782,-6.2891 -4.691,-7.0703 -2.34,0 -1.559,-9.3789 1.563,-9.3789 z m -25.859,9.3789 h -7.813 C 218.52,32.1914 218.52,28.2813 218.52,47.8516 l 6.25,221.6364 c 1.558,54.063 2.339,107.313 3.121,160.551 0,7.852 3.16,7.852 8.629,7.852 5.468,-0.782 12.539,2.339 12.539,-7.852 V 164.57 c 0,-18.789 1.562,-37.621 1.562,-55.621 0,-23.4802 -1.562,-46.9998 -1.562,-70.4685 -0.778,-5.5117 -2.34,-7.0703 -7.848,-7.0703 z M 135.512,249.141 C 104.18,311.02 80.6602,374.449 53.2383,436.328 c 1.5625,0.781 3.1719,0.781 3.9531,0.781 19.5703,0 15.6602,3.121 23.4688,-14.879 18.789,-48.558 37.5778,-97.109 57.1918,-145.671 3.128,-9.411 3.128,-17.219 -2.34,-27.418 z M 338.32,8.71094 c 6.289,0.77734 6.289,5.46876 6.289,10.19926 v 19.5703 l 2.34,1.5586 c 12.539,-11.7578 27.43,-13.3203 43.09,-15.6602 36.801,-6.2578 67.34,7.0313 90.82,33.6719 22.731,25.0703 24.301,56.3982 14.102,86.9492 -8.59,25.82 -18.789,50.121 -30.551,74.379 -25.82,52.5 -51.68,104.961 -71.25,159.762 -5.5,14.879 -9.41,28.98 -8.629,44.648 0.778,8.633 3.91,14.102 11.758,17.231 18.789,8.628 43.871,-5.469 45.43,-25.04 0.781,-7.859 0,-14.89 0,-22.742 0.781,-7.027 0,-14.097 1.562,-21.129 0,-2.339 10.981,-2.339 12.539,0.782 0.782,1.558 0,4.687 0,7.031 0.782,26.637 2.34,53.277 3.129,79.879 0.781,4.73 1.563,9.418 -4.687,10.199 -5.512,0 -7.071,-4.691 -7.852,-9.41 v -21.918 l -3.91,2.348 c -33.672,23.511 -80.66,10.968 -97.891,-25.821 -17.23,-36.058 -10.98,-70.508 8.59,-103.398 16.449,-26.641 34.461,-52.461 50.903,-79.102 20.386,-30.551 37.617,-62.66 43.089,-99.461 4.688,-28.976 0,-56.3982 -18.793,-79.8786 -13.32,-17.2305 -36.019,-23.5196 -56.41,-16.4492 -18.789,6.25 -26.597,19.5703 -28.16,43.0507 -0.777,16.4493 -2.379,32.9301 -3.949,49.3791 0,2.34 -11.719,1.558 -11.719,-0.82 -0.781,-16.45 0,-32.8989 0.789,-49.3403 0.781,-14.0586 2.34,-28.9492 3.121,-43.8281 0.782,-5.5118 0,-10.9727 0,-16.4414 0,-4.7305 0,-10.19926 6.25,-10.19926 z m 91.641,28.19926 c 7.848,5.4687 11.758,14.1093 16.449,21.9179 5.469,9.4102 9.41,18.793 11.75,28.9805 7.039,29.7694 2.352,59.5314 -10.191,86.9214 -10.938,24.29 -25.039,47.77 -39.141,71.29 -14.098,24.25 -30.547,47.769 -45.43,72.808 -18.007,28.981 -21.918,59.531 -7.847,91.641 3.16,6.293 6.289,13.32 11.75,18.793 l 1.57,1.597 c 3.117,0.782 5.508,-27.418 6.289,-31.328 2.34,-12.543 6.25,-25.082 10.93,-37.621 8.64,-24.25 19.609,-46.988 30.551,-70.461 19.57,-45.429 40.738,-90.078 61.879,-134.73 9.41,-20.348 11.75,-41.489 7.07,-63.4377 -5.512,-28.2032 -29.77,-47.7696 -55.629,-56.3711 z"
       style="fill:#e2c9bc;fill-opacity:1;fill-rule:nonzero;stroke:none"
       transform="matrix(0.13333333,0,0,-0.13333333,0,62.666667)" />
  </g>
</svg>
