<svg xmlns="http://www.w3.org/2000/svg" style="display: none;">
    <symbol id="icon-open-action" viewBox="0 0 512 512">
        <path d="M384 224v184a40 40 0 01-40 40H104a40 40 0 01-40-40V168a40 40 0 0140-40h167.48M336 64h112v112M224 288L440 72" fill="none" stroke="currentColor" stroke-linecap="round" stroke-linejoin="round" stroke-width="32"/>
    </symbol>
    <symbol id="icon-copy" viewBox="0 0 512 512">
        <rect x="128" y="128" width="336" height="336" rx="57" ry="57" fill="none" stroke="currentColor" stroke-linejoin="round" stroke-width="32"/>
        <path d="M383.5 128l.5-24a56.16 56.16 0 00-56-56H112a64.19 64.19 0 00-64 64v216a56.16 56.16 0 0056 56h24" fill="none" stroke="currentColor" stroke-linecap="round" stroke-linejoin="round" stroke-width="32"/>
    </symbol>
    <symbol id="icon-compare" viewBox="0 0 512 512">
        <path fill="none" stroke="currentColor" stroke-linecap="round" stroke-linejoin="round" stroke-width="32" d="M304 160l-64-64 64-64M207 352l64 64-64 64"/>
        <circle cx="112" cy="96" r="48" fill="none" stroke="currentColor" stroke-linecap="round" stroke-linejoin="round" stroke-width="32"/>
        <circle cx="400" cy="416" r="48" fill="none" stroke="currentColor" stroke-linecap="round" stroke-linejoin="round" stroke-width="32"/>
        <path d="M256 96h84a60 60 0 0160 60v212M255 416h-84a60 60 0 01-60-60V144" fill="none" stroke="currentColor" stroke-linecap="round" stroke-linejoin="round" stroke-width="32"/>
    </symbol>
</svg>