<svg xmlns="http://www.w3.org/2000/svg" style="display: none;">
    <symbol id="icon-open-action" viewBox="0 0 512 512">
        <path d="M384 224v184a40 40 0 01-40 40H104a40 40 0 01-40-40V168a40 40 0 0140-40h167.48M336 64h112v112M224 288L440 72" fill="none" stroke="currentColor" stroke-linecap="round" stroke-linejoin="round" stroke-width="32"/>
    </symbol>
    <symbol id="icon-copy" viewBox="0 0 512 512">
        <rect x="128" y="128" width="336" height="336" rx="57" ry="57" fill="none" stroke="currentColor" stroke-linejoin="round" stroke-width="32"/>
        <path d="M383.5 128l.5-24a56.16 56.16 0 00-56-56H112a64.19 64.19 0 00-64 64v216a56.16 56.16 0 0056 56h24" fill="none" stroke="currentColor" stroke-linecap="round" stroke-linejoin="round" stroke-width="32"/>
    </symbol>
    <symbol id="icon-compare" viewBox="0 0 512 512">
        <path fill="none" stroke="currentColor" stroke-linecap="round" stroke-linejoin="round" stroke-width="32" d="M304 160l-64-64 64-64M207 352l64 64-64 64"/>
        <circle cx="112" cy="96" r="48" fill="none" stroke="currentColor" stroke-linecap="round" stroke-linejoin="round" stroke-width="32"/>
        <circle cx="400" cy="416" r="48" fill="none" stroke="currentColor" stroke-linecap="round" stroke-linejoin="round" stroke-width="32"/>
        <path d="M256 96h84a60 60 0 0160 60v212M255 416h-84a60 60 0 01-60-60V144" fill="none" stroke="currentColor" stroke-linecap="round" stroke-linejoin="round" stroke-width="32"/>
    </symbol>
    <symbol id="icon-resolve" viewBox="0 0 512 512"><path d="M240 424v-96c116.4 0 159.39 33.76 208 96 0-119.23-39.57-240-208-240V88L64 256z" fill="none" stroke="currentColor" stroke-linejoin="round" stroke-width="32"/></symbol>
    <symbol id="icon-help" viewBox="0 0 512 512"><path d="M256,80A176,176,0,1,0,432,256,176,176,0,0,0,256,80Z" style="fill:none;stroke:#000;stroke-miterlimit:10;stroke-width:32px"/><path d="M200,202.29s.84-17.5,19.57-32.57C230.68,160.77,244,158.18,256,158c10.93-.14,20.69,1.67,26.53,4.45,10,4.76,29.47,16.38,29.47,41.09,0,26-17,37.81-36.37,50.8S251,281.43,251,296" style="fill:none;stroke:#000;stroke-linecap:round;stroke-miterlimit:10;stroke-width:28px"/><circle cx="250" cy="348" r="20"/></symbol>
    <symbol id="icon-information" viewBox="0 0 512 512"><path fill="none" stroke="currentColor" stroke-linecap="round" stroke-linejoin="round" stroke-width="40" d="M196 220h64v172"/><path fill="none" stroke="currentColor" stroke-linecap="round" stroke-miterlimit="10" stroke-width="40" d="M187 396h138"/><path d="M256 160a32 32 0 1132-32 32 32 0 01-32 32z"/></symbol>
    <symbol id="icon-code" viewBox="0 0 512 512"><path fill="none" stroke="currentColor" stroke-linecap="round" stroke-linejoin="round" stroke-width="32" d="M160 368L32 256l128-112M352 368l128-112-128-112M304 96l-96 320"/></symbol>
</svg>