<?xml version="1.0" encoding="UTF-8"?>
<svg id="Warstwa_2" data-name="Warstwa 2" xmlns="http://www.w3.org/2000/svg" viewBox="0 0 275.36 112.55">
  <defs>
    <style>
      .cls-1 {
        fill-rule: evenodd;
      }

      .cls-1, .cls-2 {
        fill: #fff;
        stroke-width: 0px;
      }
    </style>
  </defs>
  <g id="Layer_1" data-name="Layer 1">
    <path class="cls-2" d="M145.81,97.79h.1c.69-.75,3.67-3.79,4.26-4.49.57-.67,1.02-1.18,1.02-1.53,0-.22-.08-.37-.28-.41-.18-.04-.27-.08-.27-.2,0-.14.1-.18.33-.18.43,0,1.55.06,2.1.06.63,0,1.75-.06,2.38-.06.2,0,.35.04.35.18s-.1.18-.31.18c-.29,0-.79.08-1.18.22-.63.24-1.32.67-2.2,1.53-.63.61-3.71,3.67-4.4,4.4.73.96,4.73,5.26,5.53,6.01.9.86,1.81,1.77,2.92,2.2.61.24,1.02.3,1.26.3.14,0,.27.04.27.16,0,.14-.1.2-.49.2h-1.77c-.61,0-.98,0-1.41-.04-1.1-.1-1.65-.55-2.53-1.33-.9-.79-4.91-5.5-5.34-6.09l-.22-.31h-.1v1.85c0,1.88,0,3.49.06,4.36.04.57.22,1.02.73,1.1.29.04.73.08,1,.08.16,0,.26.06.26.16,0,.14-.16.2-.39.2-1.14,0-2.43-.06-2.94-.06-.47,0-1.75.06-2.57.06-.27,0-.41-.06-.41-.2,0-.1.08-.16.33-.16.31,0,.55-.04.74-.08.41-.08.51-.53.59-1.12.1-.86.1-2.47.1-4.34v-3.59c0-3.1,0-3.67-.04-4.32-.04-.69-.2-1.02-.88-1.16-.16-.04-.51-.06-.79-.06-.22,0-.35-.04-.35-.18s.14-.18.45-.18c1.08,0,2.37.06,2.86.06s1.77-.06,2.47-.06c.29,0,.43.04.43.18s-.12.18-.29.18c-.2,0-.33.02-.57.06-.55.1-.71.45-.75,1.16-.04.65-.04,1.22-.04,4.32v.9Z"/>
    <path class="cls-2" d="M165.72,96.89c0-3.1,0-3.67-.04-4.32-.04-.69-.2-1.02-.88-1.16-.16-.04-.51-.06-.79-.06-.22,0-.35-.04-.35-.18s.14-.18.45-.18c1.08,0,2.37.06,2.79.06.69,0,2.24-.06,2.87-.06,1.28,0,2.65.12,3.75.88.57.39,1.39,1.43,1.39,2.79,0,1.51-.63,2.89-2.69,4.57,1.81,2.28,3.22,4.1,4.42,5.36,1.14,1.18,1.98,1.33,2.28,1.39.22.04.41.06.57.06s.25.06.25.16c0,.16-.14.2-.39.2h-1.94c-1.14,0-1.65-.1-2.18-.39-.88-.47-1.65-1.43-2.79-3-.82-1.12-1.75-2.51-2.02-2.81-.1-.12-.22-.14-.37-.14l-1.77-.04c-.1,0-.16.04-.16.16v.29c0,1.9,0,3.51.1,4.36.06.59.18,1.04.8,1.12.3.04.75.08,1,.08.16,0,.24.06.24.16,0,.14-.14.2-.41.2-1.18,0-2.69-.06-3-.06-.39,0-1.67.06-2.49.06-.27,0-.41-.06-.41-.2,0-.1.08-.16.33-.16.31,0,.55-.04.73-.08.41-.08.51-.53.59-1.12.1-.86.1-2.47.1-4.34v-3.59ZM168.13,98.5c0,.22.04.31.18.37.43.14,1.04.2,1.55.2.81,0,1.08-.08,1.45-.35.61-.45,1.2-1.39,1.2-3.06,0-2.9-1.92-3.73-3.12-3.73-.51,0-.88.02-1.08.08-.14.04-.18.12-.18.28v6.2Z"/>
    <path class="cls-2" d="M188.67,101.07c-.1,0-.14.04-.18.16l-1.1,2.91c-.21.51-.31,1-.31,1.24,0,.37.18.63.82.63h.31c.24,0,.3.04.3.16,0,.16-.12.2-.35.2-.65,0-1.53-.06-2.16-.06-.22,0-1.35.06-2.41.06-.27,0-.39-.04-.39-.2,0-.12.08-.16.25-.16.18,0,.47-.02.63-.04.94-.12,1.32-.82,1.73-1.84l5.12-12.8c.25-.59.37-.82.57-.82.18,0,.31.18.51.65.49,1.12,3.75,9.44,5.05,12.54.78,1.83,1.37,2.12,1.8,2.22.3.06.61.08.85.08.17,0,.27.02.27.16,0,.16-.18.2-.94.2s-2.22,0-3.85-.04c-.37-.02-.61-.02-.61-.16,0-.12.08-.16.28-.18.14-.04.29-.22.18-.47l-1.63-4.32c-.04-.1-.1-.14-.2-.14h-4.54ZM192.83,100.05c.1,0,.12-.06.1-.12l-1.83-5.04c-.02-.08-.04-.18-.1-.18s-.1.1-.12.18l-1.87,5.02c-.02.08,0,.14.08.14h3.75Z"/>
    <path class="cls-2" d="M211.35,97.79h.1c.69-.75,3.67-3.79,4.26-4.49.57-.67,1.02-1.18,1.02-1.53,0-.22-.08-.37-.29-.41-.18-.04-.26-.08-.26-.2,0-.14.1-.18.33-.18.43,0,1.55.06,2.1.06.63,0,1.75-.06,2.39-.06.2,0,.35.04.35.18s-.1.18-.3.18c-.29,0-.8.08-1.18.22-.63.24-1.33.67-2.2,1.53-.63.61-3.71,3.67-4.41,4.4.73.96,4.73,5.26,5.53,6.01.9.86,1.81,1.77,2.92,2.2.61.24,1.02.3,1.26.3.14,0,.27.04.27.16,0,.14-.1.2-.49.2h-1.77c-.61,0-.98,0-1.41-.04-1.1-.1-1.65-.55-2.53-1.33-.9-.79-4.91-5.5-5.34-6.09l-.22-.31h-.1v1.85c0,1.88,0,3.49.06,4.36.04.57.22,1.02.73,1.1.29.04.73.08,1,.08.16,0,.27.06.27.16,0,.14-.16.2-.39.2-1.14,0-2.43-.06-2.94-.06-.47,0-1.75.06-2.57.06-.27,0-.41-.06-.41-.2,0-.1.08-.16.33-.16.31,0,.55-.04.74-.08.41-.08.51-.53.59-1.12.1-.86.1-2.47.1-4.34v-3.59c0-3.1,0-3.67-.04-4.32-.04-.69-.21-1.02-.88-1.16-.16-.04-.51-.06-.79-.06-.22,0-.35-.04-.35-.18s.14-.18.45-.18c1.08,0,2.37.06,2.86.06s1.77-.06,2.47-.06c.29,0,.43.04.43.18s-.12.18-.28.18c-.2,0-.33.02-.57.06-.55.1-.71.45-.75,1.16-.04.65-.04,1.22-.04,4.32v.9Z"/>
    <path class="cls-2" d="M229.09,98.69c0-3.49,2.3-7.99,8.42-7.99,5.08,0,8.24,2.96,8.24,7.62s-3.26,8.36-8.44,8.36c-5.85,0-8.22-4.38-8.22-7.99ZM242.9,99.08c0-4.57-2.63-7.4-5.97-7.4-2.34,0-5.01,1.3-5.01,6.38,0,4.24,2.34,7.6,6.26,7.6,1.43,0,4.73-.69,4.73-6.58ZM240.8,87.74c.12.24,0,.3-.1.3s-.29-.04-.69,0c-1.12.14-2.73.8-3.49,1.2-.16.08-.3.16-.34.16s-.12-.04-.12-.12.08-.16.18-.27c.82-.77,2.96-2.36,3.28-2.57.2-.14.34-.18.41-.18.14,0,.18.06.28.24.16.29.35.67.59,1.22Z"/>
    <path class="cls-2" d="M254.14,92.98c-.25-.75-.47-1.24-.76-1.45-.22-.14-.63-.18-.82-.18-.2,0-.33-.02-.33-.18,0-.14.17-.18.45-.18,1.06,0,2.18.06,2.37.06s1.08-.06,2.26-.06c.28,0,.43.06.43.18,0,.16-.16.18-.37.18-.16,0-.37,0-.51.08-.18.08-.22.22-.22.45,0,.26.2.96.45,1.88.35,1.35,2.24,7.52,2.61,8.67h.06l3.95-10.62c.2-.57.35-.73.51-.73.22,0,.33.31.59.96l4.24,10.25h.06c.37-1.37,2-6.75,2.71-9.13.14-.47.21-.9.21-1.18,0-.33-.19-.61-.98-.61-.2,0-.34-.06-.34-.18,0-.14.16-.18.47-.18,1.08,0,1.94.06,2.12.06.14,0,1.02-.06,1.69-.06.23,0,.37.04.37.16,0,.14-.1.2-.29.2-.2,0-.49.02-.71.1-.49.18-.71,1-1.14,2.16-.94,2.57-3.08,9.05-4.08,12.11-.22.71-.33.96-.59.96-.2,0-.33-.25-.63-1l-4.24-10.21h-.04c-.39,1.04-3.1,8.26-3.98,10.13-.39.83-.49,1.08-.73,1.08-.2,0-.29-.22-.47-.75l-4.32-12.95Z"/>
    <path class="cls-1" d="M88.54,100.3c0,2,0,3.63-.1,4.5-.06.6-.19.95-.6,1.03-.19.04-.43.08-.74.08-.25,0-.33.06-.33.16,0,.14.15.21.41.21.82,0,2.12-.06,2.6-.06.56,0,1.86.06,3.22.06.23,0,.39-.06.39-.21,0-.1-.1-.16-.33-.16-.31,0-.76-.04-1.05-.08-.62-.08-.76-.45-.83-1.01-.08-.89-.08-2.52-.08-4.52v-3.63c0-3.14,0-3.71.04-4.37.04-.72.21-1.07.76-1.18.25-.04.41-.06.62-.06s.33-.04.33-.21c0-.12-.16-.16-.43-.16-.78,0-2,.06-2.52.06-.6,0-1.9-.06-2.68-.06-.33,0-.5.04-.5.16,0,.17.12.21.33.21.25,0,.51.02.74.08.45.1.66.45.7,1.16.04.66.04,1.24.04,4.37v3.63Z"/>
    <path class="cls-1" d="M105.34,94.81h.06c.37.39,2.66,2.97,4.91,5.2,2.15,2.12,4.79,4.83,6.09,6.07.23.23.47.45.7.45.19,0,.27-.19.27-.64l.23-13.02c.02-1.16.19-1.59.76-1.75.25-.06.41-.06.62-.06.25,0,.37-.06.37-.19,0-.16-.21-.19-.47-.19-1.01,0-1.8.06-2.02.06-.43,0-1.42-.06-2.5-.06-.31,0-.54.02-.54.19,0,.12.08.19.33.19.29,0,.78,0,1.09.12.5.21.68.6.7,1.86l.21,9.26h-.1c-.35-.33-3.14-3.3-4.54-4.7-3.01-2.99-6.15-6.36-6.4-6.62-.35-.37-.54-.64-.76-.64-.21,0-.27.29-.27.7l-.19,12.21c-.02,1.79-.1,2.39-.64,2.56-.29.08-.66.1-.93.1-.21,0-.33.04-.33.16,0,.19.19.21.45.21,1.07,0,2.04-.06,2.23-.06.39,0,1.22.06,2.56.06.29,0,.47-.04.47-.21,0-.12-.12-.16-.35-.16-.33,0-.72-.02-1.07-.15-.41-.14-.68-.68-.72-2.29l-.23-8.67Z"/>
    <path class="cls-2" d="M35.27,110.67c18.45,0,33.4-14.95,33.4-33.4v-40.03s-66.79,0-66.79,0v40.03c0,18.44,14.95,33.4,33.39,33.39ZM35.27,112.55C15.79,112.55,0,96.76,0,77.27v-41.91s.94,0,.94,0h68.67s.94,0,.94,0v41.91c0,19.48-15.79,35.27-35.28,35.27Z"/>
    <path class="cls-2" d="M10.78,19.47c-2.41-6.36-4.85-12.76-4.95-12.96l.13-.15c.32.1.88.37,1.65.69.76.31,1.72.66,2.83.91,1.04.24,1.4.38,2.11,1.36.45.71.37,1.79.25,2.41.1.24.51.36.7.13.43-.76.81-1.49,1.47-2.1.72-.67,1.74-1.12,3.25-.89,2.5.31,3.4,3.71,2.07,4.93-.72.86-1.97,2.21-.4,3.12l.03.15c-.45.66-2.02,1.23-2.75.17-.38-.59-.42-.83-.27-1.47.05-.2.11-.43.18-.74.04-1.08-1.19-1.26-1.78-1.08-.5.16-1,.75-1.08,2.1-.23,3.14,1.93,7.82,6.64,6.56,2.6-.69,2.89-1.93,2.93-3.48-.9-.1-1.59-.86-1.59-1.78,0-.99.8-1.8,1.8-1.8s1.8.8,1.8,1.8c0,.68-.38,1.28-.94,1.58.04.15.12.33.17.46.54,1.25,1.33,2.13,3.79,1.91,4.86-.43,5.29-5.57,4-8.44-.54-1.24-1.22-1.62-1.74-1.6-.62.04-1.72.63-1.31,1.63.23.34.52.7.67,1.09.11.29.1.56,0,1.02-.33,1.25-1.99,1.25-2.65.78l-.02-.15c1.18-1.4-.48-2.23-1.45-2.8-1.65-.7-1.96-4.19.28-5.33,1.7-.92,3.14-.65,4.56.45.34.26.64.54.9.75.26.16.6-.11.61-.36-.34-.55-.85-1.02-.87-1.72-.12-.77.01-1.56.33-2.13.35-.61.88-1.13,1.32-1.68.52-.66,1.11-1.5,1.66-2.8h.2c.55,1.29,1.13,2.14,1.65,2.8.44.55.96,1.07,1.31,1.68.32.57.46,1.37.33,2.13-.03.69-.53,1.16-.87,1.71.01.25.35.52.61.36.67-.56,1.28-1.13,2.1-1.47.91-.38,2.02-.46,3.36.27,2.25,1.14,1.93,4.65.26,5.34-.98.57-2.61,1.4-1.44,2.79l-.02.15c-.65.47-2.31.46-2.65-.78-.15-.68-.11-.92.25-1.47.11-.17.25-.37.42-.63.41-1-.69-1.59-1.31-1.63-.52-.02-1.2.36-1.74,1.6-1.29,2.87-.86,8.01,4,8.44,2.47.22,3.25-.66,3.79-1.91.05-.13.12-.31.17-.46-.56-.3-.94-.9-.94-1.58,0-.99.8-1.8,1.8-1.8s1.8.8,1.8,1.8c0,.92-.7,1.68-1.59,1.78.03,1.55.32,2.79,2.93,3.48,4.72,1.26,6.87-3.42,6.64-6.56-.08-1.35-.59-1.94-1.08-2.1-.6-.18-1.83,0-1.78,1.08.09.4.25.84.26,1.25,0,.31-.1.56-.35.95-.74,1.06-2.3.49-2.75-.17l.04-.15c1.59-.91.31-2.26-.41-3.13-1.31-1.23-.41-4.61,2.08-4.92,1.91-.29,3.17.46,4.13,1.98.23.36.42.72.59,1.01.19.24.6.11.7-.13-.12-.61-.2-1.7.25-2.41.71-.98,1.06-1.12,2.11-1.36,1.12-.25,2.08-.6,2.83-.91.77-.31,1.33-.59,1.65-.69l.13.15c-.1.2-2.53,6.6-4.95,12.96l-4.55,12.03H15.48l-4.7-12.03Z"/>
    <polygon class="cls-1" points="46.79 87.5 51.79 93.87 48.24 96.65 43.22 90.28 46.79 87.5"/>
    <path class="cls-1" d="M16.92,57.77c-1-.34-2.34-.21-3.32.48-.13.09-.37.08-.46,0-.04-.03-2.04-1.64-2.04-1.64l10.93-8.55,1.1,2.38c.05.12.02.34-.1.45-.73.66-1.24,1.57-1.26,3.07,0,1.57.95,2.56,1.32,3.05-.66.51-2.9,2.27-3.56,2.79-.86-1.25-1.49-1.75-2.61-2.03Z"/>
    <path class="cls-1" d="M48.89,100.2c.61.73,1.7.83,2.34.34l3.56-2.78c.64-.5.86-1.54.26-2.31l-.52-.66c-.62-.79-1.67-.8-2.31-.29l-3.56,2.77c-.65.51-.8,1.6-.31,2.26l.53.68Z"/>
    <path class="cls-1" d="M25.58,60.25l9.14,11.79-2.86,3.66-9.85-12.67,3.57-2.78ZM38.6,77.01l5.7,7.25-3.54,2.77-5.02-6.36,2.86-3.66Z"/>
    <path class="cls-1" d="M45.13,84.65l-4.21,3.29c-.98.75.5,2.73,1.52,1.95l4.22-3.28c.97-.76-.56-2.71-1.53-1.96Z"/>
    <path class="cls-1" d="M23.87,57.42l-4.21,3.29c-.98.75.5,2.73,1.52,1.95l4.22-3.28c.97-.76-.56-2.71-1.53-1.95Z"/>
    <path class="cls-1" d="M10.38,56l-5.45-4.22c-.08-.07-.06-.39.25-.33.05,0,3.41.32,3.41.32l-.02-2.43c-.01-.16.22-.36.38-.31.02,0,2.34.65,2.34.65l-1.14-5.17c-.05-.2.22-.42.41-.33,0,0,4.72,2.37,4.72,2.37l-.04-2.41c-.02-.16.2-.39.42-.33.03,0,2.31.64,2.31.64l.52-3.41c.01-.28.27-.26.31-.21,0,.02,2.84,6.32,2.84,6.32l-11.27,8.85Z"/>
    <polygon class="cls-1" points="23.63 87.64 18.63 94.02 22.18 96.79 27.2 90.43 23.63 87.64"/>
    <path class="cls-1" d="M53.5,57.91c1-.34,2.34-.21,3.32.48.13.09.37.08.46,0,.04-.03,2.04-1.64,2.04-1.64l-10.93-8.55-1.1,2.38c-.05.12-.02.34.1.45.73.66,1.24,1.57,1.26,3.07,0,1.57-.95,2.56-1.32,3.05.66.51,2.9,2.27,3.56,2.79.86-1.25,1.49-1.75,2.61-2.03Z"/>
    <path class="cls-1" d="M21.53,100.34c-.61.73-1.7.83-2.34.34l-3.56-2.78c-.64-.5-.86-1.54-.26-2.31l.52-.66c.62-.79,1.67-.81,2.31-.29l3.56,2.77c.65.51.8,1.6.31,2.26l-.53.68Z"/>
    <path class="cls-1" d="M25.29,84.79l4.21,3.29c.98.75-.5,2.73-1.52,1.95l-4.22-3.28c-.97-.76.56-2.71,1.53-1.95Z"/>
    <path class="cls-1" d="M46.55,57.56l4.21,3.29c.98.75-.5,2.73-1.52,1.95l-4.22-3.28c-.97-.76.56-2.71,1.53-1.95Z"/>
    <path class="cls-1" d="M60.04,56.15l5.45-4.22c.08-.07.06-.39-.25-.33-.05,0-3.41.32-3.41.32l.02-2.43c.01-.16-.22-.36-.38-.31-.02,0-2.34.65-2.34.65l1.14-5.17c.05-.2-.22-.42-.41-.33,0,0-4.72,2.37-4.72,2.37l.04-2.41c.02-.16-.2-.39-.42-.33-.03,0-2.31.64-2.31.64l-.52-3.41c-.01-.28-.27-.26-.31-.21,0,.02-2.84,6.32-2.84,6.32l11.27,8.85Z"/>
    <polygon class="cls-2" points="44.84 60.39 48.41 63.17 29.66 87.17 26.11 84.4 44.84 60.39"/>
    <path class="cls-1" d="M88.62,47.67c0,4.04.02,6.1-1.54,7.68-.41.41-.72.64-.99.78-.35.19-.45.27-.45.37s.08.16.17.16c.1,0,.27-.04.41-.12.43-.21.76-.37,1.03-.54,1.98-1.22,3.07-2.64,3.5-3.89.41-1.15.49-2.47.49-3.65,0-1.03-.06-2.02-.06-2.9v-3.81c0-3.13,0-3.71.04-4.37.04-.72.21-1.07.76-1.17.25-.04.37-.06.6-.06.25,0,.37-.04.37-.19s-.14-.18-.43-.18c-.8,0-2.1.06-2.6.06-.54,0-1.83-.06-2.93-.06-.31,0-.45.04-.45.18s.12.19.35.19c.29,0,.64.02.8.06.68.14.84.47.89,1.17.04.66.04,1.24.04,4.37v5.91Z"/>
    <path class="cls-1" d="M100.97,44.95c-.08,0-.1-.06-.08-.14l1.9-5.07c.02-.08.06-.19.12-.19s.08.1.1.19l1.85,5.09c.02.06,0,.12-.1.12h-3.79ZM105.15,45.98c.1,0,.17.04.21.14l1.65,4.37c.1.25-.04.43-.19.47-.21.02-.29.06-.29.19,0,.14.25.14.62.16,1.65.04,3.15.04,3.89.04s.95-.04.95-.21c0-.14-.1-.16-.27-.16-.25,0-.56-.02-.86-.08-.43-.1-1.03-.39-1.81-2.25-1.32-3.13-4.61-11.54-5.11-12.67-.21-.47-.33-.66-.52-.66-.21,0-.33.23-.58.82l-5.17,12.94c-.41,1.03-.8,1.73-1.75,1.85-.16.02-.45.04-.64.04-.16,0-.25.04-.25.16,0,.16.12.21.39.21,1.07,0,2.2-.06,2.43-.06.64,0,1.52.06,2.18.06.23,0,.35-.04.35-.21,0-.12-.06-.16-.31-.16h-.31c-.64,0-.82-.27-.82-.64,0-.25.1-.74.31-1.26l1.11-2.95c.04-.12.08-.17.19-.17h4.59Z"/>
    <path class="cls-1" d="M128.21,47.71c0-1.03,0-1.85.02-2.47.02-.72.23-1.07.78-1.17.25-.04.39-.06.56-.06.14,0,.27-.04.27-.16,0-.16-.14-.21-.41-.21-.68,0-1.77.06-2.41.06s-1.92-.06-2.99-.06c-.29,0-.43.04-.43.21,0,.12.12.16.31.16.29,0,.64.02.8.06.68.14.86.47.89,1.17.02.62.02,1.4.02,2.43v1.94c0,.35-.08.62-.39.76-.49.23-1.22.23-1.75.23-4.35,0-7.17-3.32-7.17-7.75,0-2.53.74-4.08,1.89-5.05,1.44-1.19,2.95-1.28,4.08-1.28,2.33,0,3.98.95,4.59,1.61.54.58.64,1.24.7,1.71.02.16.06.27.21.27.17,0,.23-.1.23-.43,0-2.57.14-3.15.14-3.38,0-.14-.04-.23-.29-.25-.47-.02-1.19-.14-1.63-.23-.41-.08-2.22-.33-3.65-.33-1.73,0-3.56.14-5.54,1.34-1.88,1.13-3.58,3.44-3.58,6.74,0,5.69,4.47,8.08,9.52,8.08,1.61,0,3.62-.23,4.96-.93.25-.14.27-.19.27-.74v-2.27Z"/>
    <path class="cls-1" d="M135.51,45.38c0,2,0,3.63-.1,4.49-.06.6-.18.95-.6,1.03-.19.04-.43.08-.74.08-.25,0-.33.06-.33.16,0,.14.14.21.41.21.82,0,2.12-.06,2.6-.06.56,0,1.85.06,3.21.06.23,0,.39-.06.39-.21,0-.1-.1-.16-.33-.16-.31,0-.76-.04-1.05-.08-.62-.08-.76-.45-.82-1.01-.08-.89-.08-2.51-.08-4.51v-3.63c0-3.13,0-3.71.04-4.37.04-.72.21-1.07.76-1.17.25-.04.41-.06.62-.06s.33-.04.33-.21c0-.12-.16-.16-.43-.16-.78,0-2,.06-2.51.06-.6,0-1.89-.06-2.68-.06-.33,0-.49.04-.49.16,0,.16.12.21.33.21.25,0,.52.02.74.08.45.1.66.45.7,1.15.04.66.04,1.24.04,4.37v3.63Z"/>
    <path class="cls-1" d="M146.37,45.38c0,1.89,0,3.52-.1,4.39-.08.6-.19,1.05-.6,1.13-.19.04-.43.08-.74.08-.25,0-.33.06-.33.16,0,.14.14.21.41.21.82,0,2.12-.06,2.6-.06,1.22,0,2.6.12,5.71.12.78,0,.97,0,1.11-.54.1-.41.27-1.81.27-2.29,0-.21,0-.37-.16-.37-.14,0-.19.08-.23.31-.14.84-.39,1.28-.93,1.52-.54.25-1.4.25-1.94.25-2.1,0-2.43-.31-2.47-1.73-.02-.6,0-2.49,0-3.19v-1.63c0-.12.02-.21.12-.21.49,0,2.53.02,2.93.06.76.08,1.05.39,1.15.8.06.27.06.54.08.74,0,.1.04.19.19.19.19,0,.19-.23.19-.39,0-.14.04-.97.08-1.38.06-1.05.16-1.38.16-1.5s-.06-.16-.14-.16c-.1,0-.19.1-.33.27-.19.21-.49.27-.99.31-.47.04-2.84.04-3.3.04-.12,0-.14-.08-.14-.23v-5.21c0-.14.04-.21.14-.21.41,0,2.58.04,2.93.08,1.03.12,1.24.37,1.38.74.1.25.12.6.12.74,0,.19.04.29.19.29s.19-.12.21-.23c.04-.25.08-1.15.1-1.36.06-.95.16-1.19.16-1.34,0-.1-.02-.19-.12-.19s-.23.06-.33.08c-.16.04-.49.08-.89.12-.39.02-4.49.02-5.15.02-.58,0-1.87-.06-2.97-.06-.31,0-.45.04-.45.18s.12.19.35.19c.29,0,.64.02.8.06.68.14.84.47.89,1.17.04.66.04,1.24.04,4.37v3.63Z"/>
    <path class="cls-1" d="M163.51,41.76c0-3.13,0-3.71.04-4.37.04-.72.21-1.07.76-1.17.25-.04.58-.06.8-.06.25,0,.37-.04.37-.19s-.14-.18-.43-.18c-.8,0-2.31.06-2.8.06-.56,0-1.85-.06-2.82-.06-.31,0-.45.04-.45.18s.12.19.35.19c.27,0,.52.02.68.06.68.14.84.47.89,1.17.04.66.04,1.24.04,4.37v3.63c0,1.89,0,3.52-.1,4.39-.08.6-.18,1.05-.6,1.13-.19.04-.43.08-.74.08-.25,0-.33.06-.33.16,0,.14.14.21.41.21.82,0,2.12-.06,2.6-.06,1.67,0,3.03.12,5.99.12,1.07,0,1.17-.1,1.3-.56.16-.6.31-2.14.31-2.37,0-.25-.02-.35-.16-.35-.16,0-.21.12-.23.31-.04.39-.29.97-.54,1.24-.52.56-1.32.58-2.41.58-1.61,0-2.14-.14-2.49-.45-.43-.37-.43-1.79-.43-4.43v-3.63Z"/>
    <path class="cls-1" d="M177.52,41.76c0-3.13,0-3.71.04-4.37.04-.72.21-1.07.76-1.17.25-.04.58-.06.8-.06.25,0,.37-.04.37-.19s-.14-.18-.43-.18c-.8,0-2.31.06-2.8.06-.56,0-1.85-.06-2.82-.06-.31,0-.45.04-.45.18s.12.19.35.19c.27,0,.51.02.68.06.68.14.84.47.89,1.17.04.66.04,1.24.04,4.37v3.63c0,1.89,0,3.52-.1,4.39-.08.6-.18,1.05-.6,1.13-.19.04-.43.08-.74.08-.25,0-.33.06-.33.16,0,.14.14.21.41.21.82,0,2.12-.06,2.6-.06,1.67,0,3.03.12,5.99.12,1.07,0,1.17-.1,1.3-.56.16-.6.31-2.14.31-2.37,0-.25-.02-.35-.16-.35-.16,0-.21.12-.23.31-.04.39-.29.97-.54,1.24-.52.56-1.32.58-2.41.58-1.61,0-2.14-.14-2.49-.45-.43-.37-.43-1.79-.43-4.43v-3.63Z"/>
    <path class="cls-1" d="M195.89,50.61c-3.96,0-6.32-3.4-6.32-7.68,0-5.13,2.7-6.45,5.07-6.45,3.38,0,6.04,2.86,6.04,7.48,0,5.95-3.34,6.65-4.78,6.65ZM195.02,51.64c5.23,0,8.53-3.73,8.53-8.45s-3.19-7.7-8.32-7.7c-6.18,0-8.51,4.55-8.51,8.07s2.39,8.08,8.3,8.08Z"/>
    <path class="cls-1" d="M210.54,39.9h.06c.37.39,2.66,2.97,4.9,5.19,2.14,2.12,4.78,4.82,6.08,6.06.23.23.47.45.7.45.19,0,.27-.19.27-.64l.23-13c.02-1.15.18-1.59.76-1.75.25-.06.41-.06.62-.06.25,0,.37-.06.37-.19,0-.16-.21-.18-.47-.18-1.01,0-1.79.06-2.02.06-.43,0-1.42-.06-2.49-.06-.31,0-.54.02-.54.18,0,.12.08.19.33.19.29,0,.78,0,1.09.12.49.21.68.6.7,1.85l.21,9.25h-.1c-.35-.33-3.13-3.3-4.53-4.7-3.01-2.99-6.14-6.34-6.39-6.61-.35-.37-.54-.64-.76-.64-.21,0-.27.29-.27.7l-.18,12.2c-.02,1.79-.1,2.39-.64,2.55-.29.08-.66.1-.93.1-.21,0-.33.04-.33.16,0,.19.19.21.45.21,1.07,0,2.04-.06,2.22-.06.39,0,1.22.06,2.55.06.29,0,.47-.04.47-.21,0-.12-.12-.16-.35-.16-.33,0-.72-.02-1.07-.14-.41-.14-.68-.68-.72-2.29l-.23-8.65Z"/>
    <path class="cls-1" d="M229.67,45.38c0,2,0,3.63-.1,4.49-.06.6-.19.95-.6,1.03-.19.04-.43.08-.74.08-.25,0-.33.06-.33.16,0,.14.14.21.41.21.82,0,2.12-.06,2.6-.06.56,0,1.85.06,3.21.06.23,0,.39-.06.39-.21,0-.1-.1-.16-.33-.16-.31,0-.76-.04-1.05-.08-.62-.08-.76-.45-.82-1.01-.08-.89-.08-2.51-.08-4.51v-3.63c0-3.13,0-3.71.04-4.37.04-.72.21-1.07.76-1.17.25-.04.41-.06.62-.06s.33-.04.33-.21c0-.12-.16-.16-.43-.16-.78,0-2,.06-2.51.06-.6,0-1.9-.06-2.68-.06-.33,0-.49.04-.49.16,0,.16.12.21.33.21.25,0,.52.02.74.08.45.1.66.45.7,1.15.04.66.04,1.24.04,4.37v3.63Z"/>
    <path class="cls-1" d="M242.76,44.95c-.08,0-.1-.06-.08-.14l1.89-5.07c.02-.08.06-.19.12-.19s.08.1.1.19l1.85,5.09c.02.06,0,.12-.1.12h-3.79ZM246.94,45.98c.1,0,.16.04.21.14l1.65,4.37c.1.25-.04.43-.19.47-.21.02-.29.06-.29.19,0,.14.25.14.62.16,1.65.04,3.15.04,3.89.04s.95-.04.95-.21c0-.14-.1-.16-.27-.16-.25,0-.56-.02-.87-.08-.43-.1-1.03-.39-1.81-2.25-1.32-3.13-4.61-11.54-5.11-12.67-.21-.47-.33-.66-.52-.66-.21,0-.33.23-.58.82l-5.17,12.94c-.41,1.03-.8,1.73-1.75,1.85-.16.02-.45.04-.64.04-.16,0-.25.04-.25.16,0,.16.12.21.39.21,1.07,0,2.2-.06,2.43-.06.64,0,1.52.06,2.18.06.23,0,.35-.04.35-.21,0-.12-.06-.16-.31-.16h-.31c-.64,0-.82-.27-.82-.64,0-.25.1-.74.31-1.26l1.11-2.95c.04-.12.08-.17.18-.17h4.59Z"/>
    <path class="cls-1" d="M259.42,39.9h.06c.37.39,2.66,2.97,4.9,5.19,2.14,2.12,4.78,4.82,6.08,6.06.23.23.47.45.7.45.19,0,.27-.19.27-.64l.23-13c.02-1.15.18-1.59.76-1.75.25-.06.41-.06.62-.06.25,0,.37-.06.37-.19,0-.16-.21-.18-.47-.18-1.01,0-1.79.06-2.02.06-.43,0-1.42-.06-2.49-.06-.31,0-.54.02-.54.18,0,.12.08.19.33.19.29,0,.78,0,1.09.12.49.21.68.6.7,1.85l.21,9.25h-.1c-.35-.33-3.13-3.3-4.53-4.7-3.01-2.99-6.14-6.34-6.39-6.61-.35-.37-.54-.64-.76-.64-.21,0-.27.29-.27.7l-.19,12.2c-.02,1.79-.1,2.39-.64,2.55-.29.08-.66.1-.93.1-.21,0-.33.04-.33.16,0,.19.19.21.45.21,1.07,0,2.04-.06,2.22-.06.39,0,1.21.06,2.55.06.29,0,.47-.04.47-.21,0-.12-.12-.16-.35-.16-.33,0-.72-.02-1.07-.14-.41-.14-.68-.68-.72-2.29l-.23-8.65Z"/>
    <path class="cls-1" d="M87.92,72.28c0,2.99.78,4.51,1.83,5.46,1.5,1.36,3.48,1.42,4.57,1.42,1.34,0,2.82-.23,4.28-1.48,1.73-1.48,1.96-3.91,1.96-6.2v-2.2c0-3.13,0-3.71.04-4.37.04-.72.21-1.07.76-1.17.25-.04.37-.06.6-.06.25,0,.37-.04.37-.19s-.14-.18-.43-.18c-.8,0-2.1.06-2.35.06-.02,0-1.32-.06-2.37-.06-.29,0-.43.04-.43.18s.12.19.35.19.58.02.74.06c.68.14.84.47.89,1.17.04.66.04,1.24.04,4.37v2.58c0,2.12-.06,3.98-1.19,5.11-.82.82-1.94,1.11-2.84,1.11-.7,0-1.65-.08-2.58-.84-1.01-.82-1.61-2.08-1.61-5.07v-2.88c0-3.13,0-3.71.04-4.37.04-.72.21-1.07.76-1.17.25-.04.37-.06.6-.06.21,0,.33-.04.33-.19s-.14-.18-.45-.18c-.74,0-2.04.06-2.53.06-.62,0-1.92-.06-3.01-.06-.31,0-.45.04-.45.18s.12.19.35.19c.29,0,.64.02.8.06.68.14.84.47.88,1.17.04.66.04,1.24.04,4.37v3.01Z"/>
    <path class="cls-1" d="M111.83,67.42h.06c.37.39,2.66,2.97,4.9,5.19,2.14,2.12,4.78,4.82,6.08,6.06.23.23.47.45.7.45.19,0,.27-.19.27-.64l.23-13c.02-1.15.19-1.59.76-1.75.25-.06.41-.06.62-.06.25,0,.37-.06.37-.19,0-.16-.21-.18-.47-.18-1.01,0-1.79.06-2.02.06-.43,0-1.42-.06-2.49-.06-.31,0-.54.02-.54.18,0,.12.08.19.33.19.29,0,.78,0,1.09.12.49.21.68.6.7,1.85l.21,9.25h-.1c-.35-.33-3.13-3.3-4.53-4.7-3.01-2.99-6.14-6.34-6.39-6.61-.35-.37-.54-.64-.76-.64-.21,0-.27.29-.27.7l-.19,12.2c-.02,1.79-.1,2.39-.64,2.55-.29.08-.66.1-.93.1-.21,0-.33.04-.33.16,0,.19.19.21.45.21,1.07,0,2.04-.06,2.22-.06.39,0,1.21.06,2.55.06.29,0,.47-.04.47-.21,0-.12-.12-.16-.35-.16-.33,0-.72-.02-1.07-.14-.41-.14-.68-.68-.72-2.29l-.23-8.65Z"/>
    <path class="cls-1" d="M135.96,72.9c0,2,0,3.63-.1,4.49-.06.6-.19.95-.6,1.03-.18.04-.43.08-.74.08-.25,0-.33.06-.33.16,0,.14.14.21.41.21.82,0,2.12-.06,2.6-.06.56,0,1.85.06,3.21.06.23,0,.39-.06.39-.21,0-.1-.1-.16-.33-.16-.31,0-.76-.04-1.05-.08-.62-.08-.76-.45-.82-1.01-.08-.89-.08-2.51-.08-4.51v-3.63c0-3.13,0-3.71.04-4.37.04-.72.2-1.07.76-1.17.25-.04.41-.06.62-.06s.33-.04.33-.21c0-.12-.16-.16-.43-.16-.78,0-2,.06-2.51.06-.6,0-1.9-.06-2.68-.06-.33,0-.49.04-.49.16,0,.16.12.21.33.21.25,0,.51.02.74.08.45.1.66.45.7,1.15.04.66.04,1.24.04,4.37v3.63Z"/>
    <path class="cls-1" d="M153.11,77.9c.39.97.52,1.26.78,1.26.29,0,.41-.33.95-1.52.45-1.03,1.42-3.28,2.74-6.28,1.11-2.53,1.67-3.65,2.47-5.58.56-1.32.87-1.67,1.13-1.85.37-.25.8-.25,1.01-.25s.33-.04.33-.19-.16-.18-.43-.18c-.62,0-1.59.06-1.94.06-.27,0-1.13-.06-2.16-.06-.39,0-.58.04-.58.21,0,.14.16.16.35.16.27,0,.58.02.82.1.18.06.27.23.27.39,0,.18-.08.49-.19.76-.49,1.36-3.17,7.99-4.06,10.26h-.08l-3.54-9.35c-.29-.74-.47-1.32-.47-1.59,0-.19.06-.33.21-.43.16-.12.47-.14.8-.14.19,0,.31-.04.31-.19s-.23-.18-.47-.18c-1.03,0-2.02.06-2.53.06-.72,0-1.9-.06-2.99-.06-.31,0-.54.02-.54.18,0,.12.06.19.25.19.17,0,.5,0,.8.08.74.21,1.09.43,1.57,1.57l5.19,12.59Z"/>
    <path class="cls-1" d="M170.28,72.9c0,1.89,0,3.52-.1,4.39-.08.6-.19,1.05-.6,1.13-.19.04-.43.08-.74.08-.25,0-.33.06-.33.16,0,.14.14.21.41.21.82,0,2.12-.06,2.6-.06,1.22,0,2.6.12,5.71.12.78,0,.97,0,1.11-.54.1-.41.27-1.81.27-2.29,0-.21,0-.37-.17-.37-.14,0-.18.08-.23.31-.14.84-.39,1.28-.93,1.52-.54.25-1.4.25-1.94.25-2.1,0-2.43-.31-2.47-1.73-.02-.6,0-2.49,0-3.19v-1.63c0-.12.02-.21.12-.21.49,0,2.53.02,2.92.06.76.08,1.05.39,1.15.8.06.27.06.54.08.74,0,.1.04.19.18.19.19,0,.19-.23.19-.39,0-.14.04-.97.08-1.38.06-1.05.16-1.38.16-1.5s-.06-.16-.14-.16c-.1,0-.19.1-.33.27-.19.21-.49.27-.99.31-.47.04-2.84.04-3.3.04-.12,0-.14-.08-.14-.23v-5.21c0-.14.04-.21.14-.21.41,0,2.58.04,2.92.08,1.03.12,1.24.37,1.38.74.1.25.12.6.12.74,0,.19.04.29.19.29s.19-.12.21-.23c.04-.25.08-1.15.1-1.36.06-.95.16-1.19.16-1.34,0-.1-.02-.19-.12-.19s-.23.06-.33.08c-.17.04-.49.08-.89.12-.39.02-4.49.02-5.15.02-.58,0-1.87-.06-2.97-.06-.31,0-.45.04-.45.18s.12.19.35.19c.29,0,.64.02.8.06.68.14.84.47.89,1.17.04.66.04,1.24.04,4.37v3.63Z"/>
    <path class="cls-1" d="M191.28,64.64c0-.16.04-.25.19-.29.2-.06.58-.08,1.09-.08,1.21,0,3.15.84,3.15,3.77,0,1.69-.6,2.64-1.22,3.09-.37.27-.64.35-1.46.35-.52,0-1.13-.06-1.57-.21-.14-.06-.19-.14-.19-.37v-6.26ZM188.85,72.9c0,1.89,0,3.52-.1,4.39-.08.6-.19,1.05-.6,1.13-.19.04-.43.08-.74.08-.25,0-.33.06-.33.16,0,.14.14.21.41.21.82,0,2.12-.06,2.51-.06.31,0,1.83.06,3.03.06.27,0,.41-.06.41-.21,0-.1-.08-.16-.25-.16-.25,0-.7-.04-1.01-.08-.62-.08-.74-.54-.8-1.13-.1-.87-.1-2.49-.1-4.41v-.29c0-.12.06-.16.16-.16l1.79.04c.14,0,.27.02.37.14.27.31,1.22,1.71,2.04,2.84,1.15,1.59,1.94,2.55,2.82,3.03.54.29,1.05.39,2.2.39h1.96c.25,0,.39-.04.39-.21,0-.1-.08-.16-.25-.16s-.35-.02-.58-.06c-.31-.06-1.15-.21-2.31-1.4-1.22-1.28-2.64-3.11-4.47-5.42,2.08-1.69,2.72-3.09,2.72-4.61,0-1.38-.82-2.43-1.4-2.82-1.11-.76-2.49-.89-3.79-.89-.64,0-2.2.06-2.9.06-.43,0-1.73-.06-2.82-.06-.31,0-.45.04-.45.18s.12.19.35.19c.29,0,.64.02.8.06.68.14.84.47.88,1.17.04.66.04,1.24.04,4.37v3.63Z"/>
    <path class="cls-1" d="M211.83,79.16c1.09,0,2.25-.19,3.28-.84,1.48-.97,1.94-2.39,1.94-3.58,0-1.96-.91-3.34-3.38-5.25l-.58-.43c-1.71-1.3-2.18-2.02-2.18-2.97,0-1.24.93-2.12,2.45-2.12,1.34,0,1.94.62,2.25,1.01.43.54.54,1.17.54,1.36,0,.25.06.37.21.37.16,0,.23-.16.23-.62,0-1.61.08-2.2.08-2.47,0-.14-.1-.21-.29-.25-.54-.14-1.4-.35-2.74-.35-2.86,0-4.76,1.63-4.76,3.89,0,1.67.78,3.11,3.05,4.88l.95.74c1.71,1.32,2.02,2.29,2.02,3.3,0,1.09-.91,2.35-2.76,2.35-1.28,0-2.49-.56-2.95-2.08-.1-.35-.18-.78-.18-1.05,0-.16-.02-.35-.21-.35-.16,0-.23.23-.25.54-.02.33-.1,1.57-.1,2.7,0,.45.06.56.39.7.89.39,1.81.54,3.01.54Z"/>
    <path class="cls-1" d="M227.49,72.9c0,2,0,3.63-.1,4.49-.06.6-.19.95-.6,1.03-.19.04-.43.08-.74.08-.25,0-.33.06-.33.16,0,.14.14.21.41.21.82,0,2.12-.06,2.6-.06.56,0,1.85.06,3.21.06.23,0,.39-.06.39-.21,0-.1-.1-.16-.33-.16-.31,0-.76-.04-1.05-.08-.62-.08-.76-.45-.82-1.01-.08-.89-.08-2.51-.08-4.51v-3.63c0-3.13,0-3.71.04-4.37.04-.72.21-1.07.76-1.17.25-.04.41-.06.62-.06s.33-.04.33-.21c0-.12-.16-.16-.43-.16-.78,0-2,.06-2.51.06-.6,0-1.89-.06-2.68-.06-.33,0-.49.04-.49.16,0,.16.12.21.33.21.25,0,.51.02.74.08.45.1.66.45.7,1.15.04.66.04,1.24.04,4.37v3.63Z"/>
    <path class="cls-1" d="M245.08,72.9c0,1.89,0,3.52-.1,4.39-.06.6-.19,1.05-.6,1.13-.19.04-.43.08-.74.08-.25,0-.33.06-.33.16,0,.14.14.21.41.21.82,0,2.12-.06,2.6-.06.58,0,1.87.06,3.23.06.23,0,.39-.06.39-.21,0-.1-.1-.16-.33-.16-.31,0-.76-.04-1.05-.08-.62-.08-.74-.54-.8-1.11-.1-.89-.1-2.51-.1-4.41v-8.45l2.6.06c1.83.04,2.39.62,2.43,1.15l.02.23c.02.31.06.41.23.41.12,0,.16-.12.19-.33,0-.54.06-1.96.06-2.39,0-.31-.02-.43-.16-.43-.08,0-.25.04-.56.1-.31.04-.76.1-1.42.1h-8.16c-.68,0-1.46-.04-2.06-.1-.51-.04-.72-.25-.89-.25-.12,0-.19.12-.25.39-.04.16-.43,2.04-.43,2.37,0,.23.04.33.19.33.12,0,.18-.08.23-.25.04-.16.14-.41.35-.72.31-.45.8-.56,2-.6l3.07-.08v8.45Z"/>
    <path class="cls-1" d="M264.09,75.22c0,.33,0,1.19-.06,2.06-.04.6-.23,1.05-.64,1.13-.19.04-.43.08-.72.08-.23,0-.33.06-.33.16,0,.16.17.21.45.21.76,0,2.06-.06,2.58-.06.56,0,1.85.06,3.15.06.27,0,.43-.06.43-.21,0-.1-.1-.16-.33-.16-.29,0-.74-.04-1.03-.08-.62-.08-.8-.54-.84-1.13-.06-.87-.06-1.73-.06-2.06v-1.69c0-.68,0-1.32.31-2.06.37-.89,3.25-5.73,3.93-6.55.45-.56.68-.8,1.11-1.01.31-.16.7-.25.91-.25.23,0,.39-.06.39-.21,0-.12-.14-.16-.37-.16-.39,0-1.75.06-2.2.06-.6,0-1.26-.06-1.94-.06-.25,0-.35.04-.35.18,0,.12.19.16.37.21.35.08.43.31.43.52,0,.27-.08.62-.29,1.07-.29.64-2.88,5.17-3.09,5.66-.33-.58-3.21-5.54-3.5-6.16-.14-.29-.25-.54-.25-.7s.1-.33.29-.37c.31-.08.45-.1.45-.23s-.1-.18-.31-.18c-.93,0-1.77.06-2.2.06-.68,0-2.22-.06-2.6-.06-.25,0-.39.06-.39.18,0,.14.14.19.31.19.25,0,.6.12.87.27.39.23.91.74,1.42,1.5.72,1.07,3.48,5.6,3.63,5.93.27.6.47,1.05.47,2.16v1.69Z"/>
  </g>
</svg>