<?xml version="1.0" encoding="UTF-8"?>
<svg id="Warstwa_2" data-name="Warstwa 2" xmlns="http://www.w3.org/2000/svg" viewBox="0 0 278.66 119.58">
  <defs>
    <style>
      .cls-1 {
        letter-spacing: .1em;
      }

      .cls-2 {
        letter-spacing: .2em;
      }

      .cls-3 {
        letter-spacing: .1em;
      }

      .cls-4 {
        letter-spacing: .1em;
      }

      .cls-5 {
        letter-spacing: .1em;
      }

      .cls-6 {
        letter-spacing: .18em;
      }

      .cls-7 {
        letter-spacing: .08em;
      }

      .cls-8 {
        letter-spacing: .08em;
      }

      .cls-9 {
        letter-spacing: .13em;
      }

      .cls-10 {
        letter-spacing: .1em;
      }

      .cls-11 {
        letter-spacing: .14em;
      }

      .cls-12 {
        letter-spacing: .16em;
      }

      .cls-13 {
        letter-spacing: .09em;
      }

      .cls-14 {
        letter-spacing: .17em;
      }

      .cls-15 {
        font-family: TrajanPro3-Semibold, 'Trajan Pro 3';
        font-size: 20.61px;
        font-weight: 600;
      }

      .cls-15, .cls-16 {
        fill: #fff;
      }

      .cls-17 {
        letter-spacing: .1em;
      }

      .cls-18 {
        letter-spacing: .1em;
      }

      .cls-19 {
        letter-spacing: .1em;
      }

      .cls-20 {
        letter-spacing: .1em;
      }

      .cls-16 {
        stroke-width: 0px;
      }

      .cls-21 {
        letter-spacing: .14em;
      }
    </style>
  </defs>
  <g id="Warstwa_1-2" data-name="Warstwa 1">
    <g>
      <path class="cls-16" d="M35.27,112.55C15.79,112.55,0,96.76,0,77.27v-41.91s.94,0,.94,0h68.67s.94,0,.94,0v41.91c0,19.48-15.79,35.27-35.28,35.27ZM35.27,110.67c18.45,0,33.4-14.95,33.4-33.4v-40.03s-66.79,0-66.79,0v40.03c0,18.44,14.95,33.4,33.39,33.39Z"/>
      <path class="cls-16" d="M10.78,19.47c-2.41-6.36-4.85-12.76-4.95-12.96l.13-.15c.32.1.88.37,1.65.69.76.31,1.72.66,2.84.91,1.04.24,1.4.38,2.11,1.36.45.71.37,1.79.25,2.41.1.24.51.36.7.13.43-.75.81-1.49,1.47-2.1.72-.67,1.74-1.12,3.25-.89,2.5.31,3.4,3.71,2.07,4.93-.72.86-1.97,2.21-.4,3.11l.03.15c-.45.66-2.02,1.23-2.75.17-.38-.59-.42-.83-.27-1.47.05-.2.11-.43.18-.74.04-1.08-1.19-1.26-1.78-1.08-.5.16-1,.75-1.08,2.1-.23,3.14,1.93,7.82,6.64,6.56,2.6-.69,2.89-1.93,2.93-3.48-.9-.1-1.59-.86-1.59-1.78,0-.99.8-1.8,1.8-1.8s1.8.8,1.8,1.8c0,.68-.38,1.28-.94,1.58.04.15.12.33.17.46.54,1.25,1.33,2.13,3.79,1.91,4.86-.43,5.29-5.57,4-8.44-.54-1.24-1.22-1.62-1.74-1.61-.62.04-1.72.63-1.31,1.63.23.34.52.7.67,1.09.11.29.1.56,0,1.02-.33,1.24-1.99,1.25-2.65.78l-.02-.15c1.18-1.4-.48-2.23-1.45-2.8-1.65-.7-1.96-4.19.28-5.33,1.7-.92,3.14-.65,4.56.45.34.26.64.54.9.75.26.16.6-.11.61-.36-.34-.54-.85-1.02-.87-1.72-.12-.77.01-1.56.33-2.13.36-.61.88-1.13,1.32-1.68.52-.66,1.11-1.5,1.66-2.8h.2c.55,1.29,1.13,2.14,1.65,2.8.44.55.96,1.07,1.31,1.68.32.57.45,1.37.33,2.13-.03.69-.53,1.17-.87,1.71.01.25.35.52.61.36.67-.56,1.28-1.13,2.1-1.47.91-.38,2.02-.46,3.36.27,2.24,1.14,1.93,4.65.26,5.34-.98.57-2.61,1.4-1.44,2.79l-.02.15c-.65.47-2.31.46-2.65-.78-.15-.68-.11-.92.25-1.47.11-.17.25-.37.42-.63.41-1-.69-1.59-1.31-1.63-.52-.02-1.2.36-1.74,1.61-1.29,2.87-.86,8.01,4,8.44,2.47.22,3.25-.66,3.79-1.91.05-.13.12-.31.17-.46-.56-.3-.94-.9-.94-1.58,0-.99.8-1.8,1.8-1.8s1.8.8,1.8,1.8c0,.92-.7,1.68-1.59,1.78.03,1.55.32,2.79,2.93,3.48,4.72,1.26,6.87-3.42,6.64-6.56-.08-1.35-.59-1.94-1.08-2.1-.6-.18-1.83,0-1.78,1.08.09.4.25.84.26,1.25,0,.31-.1.56-.35.95-.74,1.06-2.3.49-2.75-.17l.03-.15c1.59-.91.31-2.26-.41-3.13-1.31-1.23-.41-4.61,2.08-4.92,1.91-.29,3.17.46,4.13,1.98.23.36.42.72.59,1.01.19.24.6.11.7-.13-.12-.61-.2-1.7.25-2.41.71-.98,1.06-1.12,2.11-1.36,1.12-.25,2.08-.6,2.83-.91.77-.32,1.33-.59,1.65-.69l.13.15c-.1.2-2.53,6.6-4.95,12.96l-4.55,12.03H15.48l-4.7-12.03Z"/>
      <g>
        <g>
          <path class="cls-16" d="M46.79,87.5l5,6.37s-3.55,2.78-3.55,2.77l-5.02-6.37,3.57-2.78Z"/>
          <path class="cls-16" d="M16.92,57.77c-1-.34-2.34-.21-3.32.48-.13.09-.37.08-.46,0-.04-.03-2.04-1.64-2.04-1.64l10.93-8.55,1.1,2.38c.05.12.02.34-.1.45-.73.66-1.24,1.57-1.26,3.07,0,1.57.95,2.56,1.32,3.05-.66.51-2.9,2.27-3.56,2.79-.86-1.25-1.49-1.75-2.61-2.03Z"/>
          <path class="cls-16" d="M48.89,100.2c.61.73,1.7.83,2.34.34l3.56-2.78c.64-.5.86-1.54.26-2.31l-.52-.66c-.62-.79-1.67-.81-2.31-.29l-3.56,2.77c-.65.51-.8,1.6-.31,2.26l.53.68Z"/>
          <path class="cls-16" d="M38.6,77.01l5.7,7.25-3.54,2.77-5.02-6.36,2.86-3.66ZM25.58,60.25l9.14,11.79-2.86,3.66-9.85-12.67,3.57-2.78Z"/>
          <path class="cls-16" d="M45.13,84.65l-4.21,3.29c-.98.75.5,2.73,1.52,1.95l4.22-3.28c.97-.76-.56-2.71-1.53-1.95Z"/>
          <path class="cls-16" d="M23.87,57.42l-4.21,3.29c-.98.75.5,2.73,1.52,1.95l4.22-3.28c.97-.76-.56-2.71-1.53-1.95Z"/>
          <path class="cls-16" d="M10.38,56l-5.45-4.22c-.08-.07-.06-.39.25-.33.05,0,3.41.32,3.41.32l-.02-2.43c-.01-.16.22-.36.38-.31.02,0,2.34.65,2.34.65l-1.14-5.17c-.05-.2.22-.42.41-.33,0,0,4.72,2.37,4.72,2.37l-.04-2.41c-.02-.16.2-.39.42-.33.03,0,2.31.64,2.31.64l.52-3.41c.01-.28.27-.26.31-.21,0,.02,2.84,6.32,2.84,6.32l-11.27,8.85Z"/>
        </g>
        <g>
          <path class="cls-16" d="M23.63,87.64l-5,6.37s3.55,2.78,3.55,2.77l5.02-6.37-3.57-2.78Z"/>
          <path class="cls-16" d="M53.5,57.91c1-.34,2.34-.21,3.32.48.13.09.37.08.46,0,.04-.03,2.04-1.64,2.04-1.64l-10.93-8.55-1.1,2.38c-.06.12-.02.34.1.45.73.66,1.24,1.57,1.26,3.07,0,1.57-.95,2.56-1.32,3.05.66.51,2.9,2.27,3.56,2.79.86-1.25,1.49-1.75,2.61-2.03Z"/>
          <path class="cls-16" d="M21.53,100.34c-.61.73-1.7.83-2.34.34l-3.56-2.78c-.64-.5-.86-1.54-.26-2.31l.52-.66c.62-.79,1.67-.81,2.31-.29l3.56,2.77c.65.51.8,1.6.31,2.26l-.53.68Z"/>
          <path class="cls-16" d="M25.29,84.79l4.21,3.29c.98.75-.5,2.73-1.52,1.95l-4.22-3.28c-.97-.76.56-2.71,1.53-1.95Z"/>
          <path class="cls-16" d="M46.55,57.56l4.21,3.29c.98.75-.5,2.73-1.52,1.95l-4.22-3.28c-.97-.76.56-2.71,1.53-1.95Z"/>
          <path class="cls-16" d="M60.04,56.15l5.45-4.22c.08-.07.06-.39-.25-.33-.05,0-3.41.32-3.41.32l.02-2.43c.01-.16-.22-.36-.38-.31-.02,0-2.34.65-2.34.65l1.14-5.17c.05-.2-.22-.42-.41-.33,0,0-4.72,2.37-4.72,2.37l.04-2.41c.02-.16-.2-.39-.42-.33-.03,0-2.31.64-2.31.64l-.52-3.41c-.01-.28-.27-.26-.31-.21,0,.02-2.84,6.32-2.84,6.32l11.27,8.85Z"/>
          <polygon class="cls-16" points="44.84 60.39 48.41 63.17 29.66 87.17 26.11 84.4 44.84 60.39"/>
        </g>
      </g>
    </g>
    <text class="cls-15" transform="translate(83.89 57.02)"><tspan class="cls-18" x="0" y="0">U</tspan><tspan class="cls-3" x="19.72" y="0">N</tspan><tspan class="cls-20" x="41.2" y="0">IW</tspan><tspan class="cls-4" x="77.2" y="0">E</tspan><tspan class="cls-11" x="92.18" y="0">R</tspan><tspan class="cls-21" x="110.73" y="0">S</tspan><tspan class="cls-14" x="124.99" y="0">Y</tspan><tspan class="cls-19" x="142.4" y="0">T</tspan><tspan class="cls-10" x="159.05" y="0">E</tspan><tspan x="174.1" y="0">T </tspan><tspan class="cls-9" x=".94" y="27.02">J</tspan><tspan class="cls-17" x="12.17" y="27.02">A</tspan><tspan class="cls-1" x="28.76" y="27.02">G</tspan><tspan class="cls-17" x="49.02" y="27.02">I</tspan><tspan class="cls-4" x="60.49" y="27.02">E</tspan><tspan class="cls-8" x="75.48" y="27.02">L</tspan><tspan class="cls-20" x="89.68" y="27.02">L</tspan><tspan class="cls-5" x="104.31" y="27.02">O</tspan><tspan class="cls-7" x="125.47" y="27.02">Ń</tspan><tspan class="cls-13" x="146.64" y="27.02">S</tspan><tspan class="cls-20" x="159.93" y="27.02">K</tspan><tspan x="178.33" y="27.02">I</tspan><tspan x="2.31" y="54.05">W</tspan><tspan class="cls-6" x="24.67" y="54.05"> </tspan><tspan class="cls-2" x="34.56" y="54.05">KR</tspan><tspan class="cls-12" x="74.81" y="54.05">AKOWI</tspan><tspan x="173.25" y="54.05">E</tspan></text>
  </g>
</svg>