<svg xmlns="http://www.w3.org/2000/svg" style="display: none;">
    <symbol id="previous" fill="currentColor" class="bi bi-box-arrow-in-left" viewBox="0 0 16 16">
      <path fill-rule="evenodd" d="M10 3.5a.5.5 0 0 0-.5-.5h-8a.5.5 0 0 0-.5.5v9a.5.5 0 0 0 .5.5h8a.5.5 0 0 0 .5-.5v-2a.5.5 0 0 1 1 0v2A1.5 1.5 0 0 1 9.5 14h-8A1.5 1.5 0 0 1 0 12.5v-9A1.5 1.5 0 0 1 1.5 2h8A1.5 1.5 0 0 1 11 3.5v2a.5.5 0 0 1-1 0z"/>
      <path fill-rule="evenodd" d="M4.146 8.354a.5.5 0 0 1 0-.708l3-3a.5.5 0 1 1 .708.708L5.707 7.5H14.5a.5.5 0 0 1 0 1H5.707l2.147 2.146a.5.5 0 0 1-.708.708z"/>
    </symbol>
    <symbol id="next" fill="currentColor" class="bi bi-box-arrow-in-right" viewBox="0 0 16 16">
      <path fill-rule="evenodd" d="M6 3.5a.5.5 0 0 1 .5-.5h8a.5.5 0 0 1 .5.5v9a.5.5 0 0 1-.5.5h-8a.5.5 0 0 1-.5-.5v-2a.5.5 0 0 0-1 0v2A1.5 1.5 0 0 0 6.5 14h8a1.5 1.5 0 0 0 1.5-1.5v-9A1.5 1.5 0 0 0 14.5 2h-8A1.5 1.5 0 0 0 5 3.5v2a.5.5 0 0 0 1 0z"/>
      <path fill-rule="evenodd" d="M11.854 8.354a.5.5 0 0 0 0-.708l-3-3a.5.5 0 1 0-.708.708L10.293 7.5H1.5a.5.5 0 0 0 0 1h8.793l-2.147 2.146a.5.5 0 0 0 .708.708z"/>
    </symbol>
    <symbol id="next-in-correspondence" fill="currentColor" class="bi bi-envelope-plus" viewBox="0 0 16 16">
      <path d="M2 2a2 2 0 0 0-2 2v8.01A2 2 0 0 0 2 14h5.5a.5.5 0 0 0 0-1H2a1 1 0 0 1-.966-.741l5.64-3.471L8 9.583l7-4.2V8.5a.5.5 0 0 0 1 0V4a2 2 0 0 0-2-2zm3.708 6.208L1 11.105V5.383zM1 4.217V4a1 1 0 0 1 1-1h12a1 1 0 0 1 1 1v.217l-7 4.2z"/>
      <path d="M16 12.5a3.5 3.5 0 1 1-7 0 3.5 3.5 0 0 1 7 0m-3.5-2a.5.5 0 0 0-.5.5v1h-1a.5.5 0 0 0 0 1h1v1a.5.5 0 0 0 1 0v-1h1a.5.5 0 0 0 0-1h-1v-1a.5.5 0 0 0-.5-.5"/>
    </symbol>
    <symbol id="previous-in-correspondence" fill="currentColor" class="bi bi-envelope-arrow-down" viewBox="0 0 16 16">
      <path d="M0 4a2 2 0 0 1 2-2h12a2 2 0 0 1 2 2v4.5a.5.5 0 0 1-1 0V5.383l-7 4.2-1.326-.795-5.64 3.47A1 1 0 0 0 2 13h5.5a.5.5 0 0 1 0 1H2a2 2 0 0 1-2-1.99zm1 7.105 4.708-2.897L1 5.383zM1 4v.217l7 4.2 7-4.2V4a1 1 0 0 0-1-1H2a1 1 0 0 0-1 1"/>
      <path d="M12.5 16a3.5 3.5 0 1 0 0-7 3.5 3.5 0 0 0 0 7m.354-1.646a.5.5 0 0 1-.722-.016l-1.149-1.25a.5.5 0 1 1 .737-.676l.28.305V11a.5.5 0 0 1 1 0v1.793l.396-.397a.5.5 0 0 1 .708.708z"/>
    </symbol>
</svg>
