<svg xmlns="http://www.w3.org/2000/svg" style="display: none;">
    <symbol id="previous" viewBox="0 0 512 512"><path fill="none" stroke="currentColor" stroke-linecap="round" stroke-linejoin="round" stroke-width="48" d="M328 112L184 256l144 144"/></symbol>
    <symbol id="next" viewBox="0 0 512 512"><path fill="none" stroke="currentColor" stroke-linecap="round" stroke-linejoin="round" stroke-width="48" d="M184 112l144 144-144 144"/></symbol>
    <symbol id="next-in-correspondence" viewBox="0 0 512 512"><path d="M64 256c0 106 86 192 192 192s192-86 192-192S362 64 256 64 64 150 64 256z" fill="none" stroke="currentColor" stroke-miterlimit="10" stroke-width="32"/><path fill="none" stroke="currentColor" stroke-linecap="round" stroke-linejoin="round" stroke-width="32" d="M216 352l96-96-96-96"/></symbol>
    <symbol id="previous-in-correspondence" viewBox="0 0 512 512"><path d="M256 64C150 64 64 150 64 256s86 192 192 192 192-86 192-192S362 64 256 64z" fill="none" stroke="currentColor" stroke-miterlimit="10" stroke-width="32"/><path fill="none" stroke="currentColor" stroke-linecap="round" stroke-linejoin="round" stroke-width="32" d="M296 352l-96-96 96-96"/></symbol>
</svg>