<?xml version="1.0" encoding="UTF-8" standalone="no"?>
<!-- Created with Inkscape (http://www.inkscape.org/) -->

<svg
   version="1.1"
   id="svg1"
   width="420"
   height="81.333336"
   viewBox="0 0 420 81.333336"
   sodipodi:docname="base_textlogo_transparent_background.svg"
   inkscape:version="1.4.2 (ebf0e940, 2025-05-08)"
   xmlns:inkscape="http://www.inkscape.org/namespaces/inkscape"
   xmlns:sodipodi="http://sodipodi.sourceforge.net/DTD/sodipodi-0.dtd"
   xmlns="http://www.w3.org/2000/svg"
   xmlns:svg="http://www.w3.org/2000/svg">
  <defs
     id="defs1" />
  <sodipodi:namedview
     id="namedview1"
     pagecolor="#ffffff"
     bordercolor="#000000"
     borderopacity="0.25"
     inkscape:showpageshadow="2"
     inkscape:pageopacity="0.0"
     inkscape:pagecheckerboard="0"
     inkscape:deskcolor="#d1d1d1"
     inkscape:zoom="1.9809524"
     inkscape:cx="210"
     inkscape:cy="40.637019"
     inkscape:window-width="1712"
     inkscape:window-height="1158"
     inkscape:window-x="1742"
     inkscape:window-y="25"
     inkscape:window-maximized="0"
     inkscape:current-layer="g1">
    <inkscape:page
       x="0"
       y="0"
       inkscape:label="1"
       id="page1"
       width="420"
       height="81.333336"
       margin="0"
       bleed="0" />
  </sodipodi:namedview>
  <g
     id="g1"
     inkscape:groupmode="layer"
     inkscape:label="1">
    <path
       id="path1"
       d="m 61.6797,330.738 v 1.922 h -6.2109 c -8.168,0 -13.5899,5.43 -13.5899,13.59 v 113.238 l 71.7501,-83.789 c 22.109,-25.969 50.82,-50.039 83.012,-50.039 4.687,0 10.859,0.391 16.289,1.18 v 2.34 c -3.481,-0.391 -6.559,-0.782 -8.91,-0.782 -1.95,0 -3.469,0.391 -5.04,0.391 -17.851,1.563 -36.05,15.512 -65.539,50.82 -28.711,33.36 -62.0699,76.801 -74.1012,93.09 L 183.09,593.711 c 3.859,3.867 10.461,6.598 15.89,6.598 h 0.79 v 1.921 h -49.258 v -1.921 h 11.636 c 8.122,0 9.692,-3.899 3.872,-9.329 L 41.8789,470.352 v 116.367 c 0,8.16 5.4219,13.59 13.5899,13.59 h 6.2109 v 1.921 H 0 v -1.921 h 6.21094 c 8.12886,0 13.55856,-5.43 13.55856,-13.59 V 346.25 c 0,-8.16 -5.4297,-13.59 -13.55856,-13.59 H 0 v -1.922 z"
       style="fill:#2d2926;fill-opacity:1;fill-rule:nonzero;stroke:none"
       transform="matrix(0.13333333,0,0,-0.13333333,0,81.333333)" />
    <path
       id="path2"
       d="m 197.422,453.672 c 0,-77.192 57.808,-129.531 132.656,-129.531 86.524,0 157.891,69.41 157.891,154.379 0,75.621 -56.25,130.308 -134.61,130.308 -91.129,0 -155.937,-73.668 -155.937,-155.156 z M 337.461,595.27 c 76.41,0 136.129,-65.192 136.129,-135.391 0,-67.891 -55.469,-122.578 -124.102,-122.578 -71.758,0 -134.609,60.121 -134.609,134.609 0,67.891 52.391,123.36 122.582,123.36 z"
       style="fill:#2d2926;fill-opacity:1;fill-rule:nonzero;stroke:none"
       transform="matrix(0.13333333,0,0,-0.13333333,0,81.333333)" />
    <path
       id="path3"
       d="m 511.211,330.738 h 61.68 v 1.922 h -6.211 c -8.129,0 -13.559,5.43 -13.559,13.59 v 112.07 h 29.891 c 0.347,0 1.129,0 1.519,0 24.059,-77.929 73.707,-136.519 160.59,-136.519 45,0 85.738,16.289 116.359,49.648 h -1.949 C 829.301,343.91 800.98,332.66 759.879,332.66 c -53.551,0 -123.359,21.719 -152.848,128.391 32.578,7.39 65.547,29.89 65.547,70.199 0,47.34 -46.129,70.98 -86.879,70.98 h -74.488 v -1.921 h 6.211 c 8.168,0 13.598,-5.43 13.598,-13.59 V 346.25 c 0,-8.16 -5.43,-13.59 -13.598,-13.59 h -6.211 z M 570.98,598.75 c 26.36,-1.172 76.008,-16.289 76.008,-71.762 0,-41.129 -27.539,-64.367 -67.5,-64.367 H 553.121 V 598.75 Z M 701.289,383.871 h 122.582 l 21.328,30.617 h -1.57 l -11.641,-9.289 c -9.687,-8.519 -25.968,-14.34 -39.136,-14.34 h -57.813 v 114.02 h 48.871 c 10.07,0 14.719,-3.078 19.41,-7.379 l 3.871,-3.871 h 1.559 l -7.379,17.461 h -66.332 v 84.57 h 64.762 c 6.609,0 13.988,-3.898 17.859,-8.551 l 8.899,-11.25 h 1.562 L 820,602.23 H 701.289 v -1.921 h 4.652 c 6.989,0 11.25,-4.258 11.25,-10.86 v -193.16 c 0,-6.598 -4.261,-10.469 -11.25,-10.469 h -4.652 z"
       style="fill:#2d2926;fill-opacity:1;fill-rule:nonzero;stroke:none"
       transform="matrix(0.13333333,0,0,-0.13333333,0,81.333333)" />
    <path
       id="path4"
       d="m 977.07,608.828 c -69.41,0 -93.48,-39.566 -93.48,-76.797 0,-17.07 5.039,-35.312 25.238,-53.511 7.344,-6.61 16.293,-12.821 28.281,-21.719 23.672,-17.461 55.86,-38.012 55.86,-72.93 0,-34.141 -31.02,-45.781 -51.949,-45.781 -20.2,0 -41.532,10.461 -51.61,19.41 l -13.941,-18.238 c 15.121,-8.524 32.972,-15.121 50.39,-15.121 27.93,0 79.141,17.07 79.141,73.668 0,36.492 -20.941,58.992 -58.551,82.621 -36.097,22.109 -50.429,39.57 -50.429,65.59 0,38.39 31.011,51.558 51.949,51.558 13.203,0 27.929,-5.039 36.48,-10.469 l 1.961,1.172 z"
       style="fill:#2d2926;fill-opacity:1;fill-rule:nonzero;stroke:none"
       transform="matrix(0.13333333,0,0,-0.13333333,0,81.333333)" />
    <path
       id="path5"
       d="m 1018.59,332.66 v -1.922 h 61.68 v 1.922 h -6.21 c -8.16,0 -13.59,5.43 -13.59,13.59 v 252.5 h 6.21 c 34.14,-1.172 77.19,-16.289 77.19,-73.32 0,-47.7 -27.93,-71.371 -68.67,-71.371 h -5.43 v -3.469 h 5.07 c 53.13,0 95.39,29.84 95.39,78.75 0,45.351 -32.57,72.89 -100.46,72.89 h -51.18 v -1.921 h 6.21 c 8.13,0 13.56,-5.43 13.56,-13.59 V 346.25 c 0,-8.16 -5.43,-13.59 -13.56,-13.59 z"
       style="fill:#2d2926;fill-opacity:1;fill-rule:nonzero;stroke:none"
       transform="matrix(0.13333333,0,0,-0.13333333,0,81.333333)" />
    <path
       id="path6"
       d="m 1185.74,453.672 c 0,-77.192 57.81,-129.531 132.66,-129.531 86.52,0 157.89,69.41 157.89,154.379 0,75.621 -56.25,130.308 -134.61,130.308 -91.13,0 -155.94,-73.668 -155.94,-155.156 z m 140.04,141.598 c 76.41,0 136.13,-65.192 136.13,-135.391 0,-67.891 -55.46,-122.578 -124.1,-122.578 -71.76,0 -134.61,60.121 -134.61,134.609 0,67.891 52.39,123.36 122.58,123.36 z"
       style="fill:#2d2926;fill-opacity:1;fill-rule:nonzero;stroke:none"
       transform="matrix(0.13333333,0,0,-0.13333333,0,81.333333)" />
    <path
       id="path7"
       d="m 1549.61,330.738 v 1.922 h -6.21 c -8.17,0 -13.6,5.43 -13.6,13.59 v 228.828 l 223.83,-244.34 h 45.35 c 89.61,0 153.25,50 153.25,137.703 0,79.098 -72.54,133.789 -165.24,133.789 h -66.33 v -1.921 h 6.22 c 8.12,0 13.55,-5.43 13.55,-13.59 V 376.48 l -206.37,225.75 h -34.49 v -1.921 h 2.31 c 8.16,0 17.46,-5.43 17.46,-21.329 V 346.25 c 0,-8.16 -5.43,-13.59 -13.56,-13.59 h -6.21 v -1.922 z m 229.61,266.063 c 84.96,0 146.64,-57 146.64,-142.352 0,-68.629 -54.34,-118.277 -130.74,-118.277 h -32.58 v 260.629 z"
       style="fill:#2d2926;fill-opacity:1;fill-rule:nonzero;stroke:none"
       transform="matrix(0.13333333,0,0,-0.13333333,0,81.333333)" />
    <path
       id="path8"
       d="m 1973.16,330.738 h 152.04 l 27.18,38.403 h -1.95 l -14.38,-12.032 c -12.38,-10.468 -32.57,-17.847 -48.86,-17.847 h -72.15 v 141.949 h 61.29 c 12.03,0 17.85,-3.871 23.67,-9.301 l 5.04,-4.64 h 1.95 l -9.72,21.71 h -82.23 v 104.731 h 80.7 c 8.13,0 17.07,-4.262 22.11,-10.473 l 11.25,-13.59 h 1.52 l -9.68,32.582 h -147.78 v -1.921 h 6.22 c 0.78,0 1.56,0 2.3,0 6.99,-1.168 11.25,-6.598 11.25,-13.59 V 346.25 c 0,-8.16 -5.43,-13.59 -13.55,-13.59 h -6.22 z"
       style="fill:#2d2926;fill-opacity:1;fill-rule:nonzero;stroke:none"
       transform="matrix(0.13333333,0,0,-0.13333333,0,81.333333)" />
    <path
       id="path9"
       d="m 2156.25,600.309 h 2.3 c 8.17,0 17.47,-5.43 17.47,-21.329 V 346.25 c 0,-8.16 -5.43,-13.59 -13.56,-13.59 h -6.21 v -1.922 h 50.04 v 1.922 h -6.21 c -8.17,0 -13.6,5.43 -13.6,13.59 v 228.828 l 229.65,-250.547 h 3.09 v 262.188 c 0,8.16 5.43,13.59 13.59,13.59 h 6.21 v 1.921 h -50.04 v -1.921 h 6.22 c 8.12,0 13.55,-5.43 13.55,-13.59 V 363.711 L 2190.78,602.23 h -34.53 z"
       style="fill:#2d2926;fill-opacity:1;fill-rule:nonzero;stroke:none"
       transform="matrix(0.13333333,0,0,-0.13333333,0,81.333333)" />
    <path
       id="path10"
       d="m 2711.68,387.34 c -18.59,-25.969 -63.2,-50.039 -101.21,-50.039 -71.76,0 -134.61,60.121 -134.61,138.871 0,63.629 52.38,119.098 121.02,119.098 43.04,0 81.05,-22.11 100.46,-45 h 1.96 l 5.43,26.371 c -24.07,16.679 -49.3,32.187 -90.78,32.187 -90.79,0 -155.55,-73.668 -155.55,-155.156 0,-77.192 57.81,-129.531 133.83,-129.531 54.68,0 100.86,32.187 122.97,63.199 z"
       style="fill:#2d2926;fill-opacity:1;fill-rule:nonzero;stroke:none"
       transform="matrix(0.13333333,0,0,-0.13333333,0,81.333333)" />
    <path
       id="path11"
       d="m 2703.55,350.121 c 18.6,-23.281 45,-25.98 57,-25.98 42.3,0 77.22,31.41 77.22,88.05 v 174.528 c 0,8.16 5.43,13.59 13.56,13.59 h 6.21 v 1.921 h -61.68 v -1.921 h 6.21 c 8.13,0 13.55,-5.43 13.55,-13.59 V 404.41 c 0,-55.461 -25.97,-71.75 -50.39,-71.75 -21.71,0 -48.51,18.238 -56.25,46.168 0,0.391 -1.56,0 -1.95,0 z"
       style="fill:#2d2926;fill-opacity:1;fill-rule:nonzero;stroke:none"
       transform="matrix(0.13333333,0,0,-0.13333333,0,81.333333)" />
    <path
       id="path12"
       d="m 2840.86,332.66 v -1.922 h 53.12 v 1.922 h -14.33 c -8.17,0 -10.86,5.039 -7.38,12.031 l 59.37,113.629 h 117.89 l 53.52,-113.242 c 3.51,-7.379 0.39,-12.418 -7.74,-12.418 h -2.34 v -1.922 H 3150 v 1.922 h -4.26 c -8.16,0 -15.9,5.039 -19.41,12.418 L 3000.66,610 2858.32,340.82 c -2.34,-4.648 -8.16,-8.16 -13.59,-8.16 z m 152.42,244.371 53.56,-112.89 h -112.5 z"
       style="fill:#2d2926;fill-opacity:1;fill-rule:nonzero;stroke:none"
       transform="matrix(0.13333333,0,0,-0.13333333,0,81.333333)" />
    <path
       id="path13"
       d="m 5.58984,259.102 c 7.33986,0 12.21876,-4.883 12.21876,-12.223 V 30.3086 c 0,-7.3398 -4.8789,-12.2188 -12.21876,-12.2188 H 0 v -1.7617 h 45.0781 v 1.7617 h -5.6289 c -7.3008,0 -12.2187,4.879 -12.2187,12.2188 V 243.398 L 138.32,9.33984 248.359,243.051 V 30.3086 c 0,-7.3398 -4.879,-12.2188 -12.23,-12.2188 h -5.578 v -1.7617 h 55.539 v 1.7617 h -5.578 c -7.352,0 -12.231,4.879 -12.231,12.2188 V 246.879 c 0,7.34 4.879,12.223 12.231,12.223 h 5.578 v 1.757 H 245.898 L 144.262,41.1289 42.2695,260.859 H 0 v -1.757 z"
       style="fill:#ffb81c;fill-opacity:1;fill-rule:nonzero;stroke:none"
       transform="matrix(0.13333333,0,0,-0.13333333,0,81.333333)" />
    <path
       id="path14"
       d="M 324.84,246.879 V 30.3086 c 0,-7.3398 -4.879,-12.2188 -12.219,-12.2188 h -5.59 v -1.7617 h 55.547 v 1.7617 h -5.59 c -7.34,0 -12.218,4.879 -12.218,12.2188 V 246.879 c 0,7.34 4.878,12.223 12.218,12.223 h 5.59 v 1.757 h -55.547 v -1.757 h 5.59 c 7.34,0 12.219,-4.883 12.219,-12.223 z"
       style="fill:#ffb81c;fill-opacity:1;fill-rule:nonzero;stroke:none"
       transform="matrix(0.13333333,0,0,-0.13333333,0,81.333333)" />
    <path
       id="path15"
       d="m 439.059,16.3281 v 1.7617 h -5.579 c -7.351,0 -12.23,4.879 -12.23,12.2188 V 132.301 l 64.609,-75.4612 c 19.922,-23.3984 45.782,-45.039 74.762,-45.039 4.18,0 9.77,0.3476 14.688,1.0508 v 2.0703 c -3.161,-0.3516 -5.93,-0.7031 -8.039,-0.7031 -1.758,0 -3.129,0.3515 -4.54,0.3515 -16.089,1.4102 -32.5,13.9805 -59.019,45.7813 -25.859,30.039 -55.902,69.1364 -66.723,83.8284 l 111.41,108.98 c 3.512,3.481 9.454,5.942 14.332,5.942 h 0.711 v 1.757 h -44.382 v -1.757 h 10.472 c 7.348,0 8.75,-3.512 3.52,-8.403 L 421.25,142.07 v 104.809 c 0,7.34 4.879,12.223 12.23,12.223 h 5.579 v 1.757 H 383.52 v -1.757 h 5.621 c 7.308,0 12.187,-4.883 12.187,-12.223 V 30.3086 c 0,-7.3398 -4.879,-12.2188 -12.187,-12.2188 h -5.621 v -1.7617 z"
       style="fill:#ffb81c;fill-opacity:1;fill-rule:nonzero;stroke:none"
       transform="matrix(0.13333333,0,0,-0.13333333,0,81.333333)" />
    <path
       id="path16"
       d="m 561.328,127.07 c 0,-69.5309 52.031,-116.6794 119.453,-116.6794 77.891,0 142.188,62.5391 142.188,139.0194 0,68.129 -50.668,117.391 -121.207,117.391 -82.114,0 -140.434,-66.371 -140.434,-139.731 z m 126.094,127.5 c 68.828,0 122.617,-58.711 122.617,-121.91 0,-61.1405 -49.961,-110.3905 -111.801,-110.3905 -64.609,0 -121.207,54.1407 -121.207,121.2105 0,61.129 47.188,111.09 110.391,111.09 z"
       style="fill:#ffb81c;fill-opacity:1;fill-rule:nonzero;stroke:none"
       transform="matrix(0.13333333,0,0,-0.13333333,0,81.333333)" />
    <path
       id="path17"
       d="m 828.91,78.5195 32.809,32.8085 V 30.3086 c 0,-7.3398 -4.879,-12.2188 -12.231,-12.2188 h -5.578 v -1.7617 h 142.539 l 24.411,34.5703 h -1.72 L 998.98,42.5391 C 982.23,28.9102 966.879,24.0195 934.73,24.0195 H 881.641 V 131.25 l 73.359,73.359 -6.988,6.641 -66.371,-66.02 v 101.649 c 0,7.34 4.879,12.223 12.23,12.223 h 9.059 v 1.757 h -59.02 v -1.757 h 5.578 c 7.352,0 12.231,-4.883 12.231,-12.223 V 125.309 L 821.91,85.5117 Z"
       style="fill:#ffb81c;fill-opacity:1;fill-rule:nonzero;stroke:none"
       transform="matrix(0.13333333,0,0,-0.13333333,0,81.333333)" />
    <path
       id="path18"
       d="M 1002.15,18.0898 V 16.3281 H 1050 v 1.7617 h -12.93 c -7.34,0 -9.77,4.5313 -6.64,10.8204 l 53.44,102.3398 h 106.21 l 48.2,-101.9883 c 3.13,-6.6406 0.35,-11.1719 -6.99,-11.1719 h -2.11 v -1.7617 h 51.37 v 1.7617 h -3.87 c -7.3,0 -14.3,4.5313 -17.46,11.1719 L 1146.05,267.809 1017.85,25.4297 c -2.07,-4.2188 -7.3,-7.3399 -12.23,-7.3399 z m 137.26,220.0312 48.21,-101.641 h -101.29 z"
       style="fill:#ffb81c;fill-opacity:1;fill-rule:nonzero;stroke:none"
       transform="matrix(0.13333333,0,0,-0.13333333,0,81.333333)" />
    <path
       id="path19"
       d="m 1263.09,33.7891 c 16.75,-20.9375 40.5,-23.3985 51.32,-23.3985 38.09,0 69.54,28.2813 69.54,79.3008 V 246.879 c 0,7.34 4.88,12.223 12.22,12.223 h 5.59 v 1.757 h -55.55 v -1.757 h 5.59 c 7.34,0 12.22,-4.883 12.22,-12.223 V 82.6992 c 0,-49.9687 -23.4,-64.6094 -45.43,-64.6094 -19.53,0 -43.63,16.3985 -50.62,41.5586 0,0.3516 -1.41,0 -1.76,0 z"
       style="fill:#ffb81c;fill-opacity:1;fill-rule:nonzero;stroke:none"
       transform="matrix(0.13333333,0,0,-0.13333333,0,81.333333)" />
    <path
       id="path20"
       d="m 1386.72,18.0898 v -1.7617 h 47.85 v 1.7617 h -12.93 c -7.3,0 -9.76,4.5313 -6.6,10.8204 l 53.44,102.3398 h 106.17 l 48.2,-101.9883 c 3.17,-6.6406 0.35,-11.1719 -6.99,-11.1719 h -2.07 v -1.7617 h 51.33 v 1.7617 h -3.83 c -7.34,0 -14.34,4.5313 -17.46,11.1719 L 1530.62,267.809 1402.46,25.4297 c -2.11,-4.2188 -7.34,-7.3399 -12.23,-7.3399 z M 1523.98,238.121 1572.19,136.48 H 1470.9 Z"
       style="fill:#ffb81c;fill-opacity:1;fill-rule:nonzero;stroke:none"
       transform="matrix(0.13333333,0,0,-0.13333333,0,81.333333)" />
    <path
       id="path21"
       d="m 1844.3,266.801 c -62.5,0 -84.18,-35.629 -84.18,-69.18 0,-15.351 4.57,-31.801 22.73,-48.211 6.6,-5.93 14.65,-11.519 25.47,-19.57 21.33,-15.699 50.31,-34.2189 50.31,-65.6603 0,-30.7383 -27.93,-41.2109 -46.79,-41.2109 -18.17,0 -37.39,9.4101 -46.49,17.4609 l -12.54,-16.4102 c 13.6,-7.6914 29.69,-13.6289 45.39,-13.6289 25.16,0 71.25,15.3907 71.25,66.3711 0,32.8473 -18.86,53.0783 -52.73,74.4103 -32.5,19.879 -45.43,35.629 -45.43,59.027 0,34.571 27.97,46.442 46.83,46.442 11.88,0 25.16,-4.532 32.82,-9.411 l 1.76,1.051 z"
       style="fill:#ffb81c;fill-opacity:1;fill-rule:nonzero;stroke:none"
       transform="matrix(0.13333333,0,0,-0.13333333,0,81.333333)" />
    <path
       id="path22"
       d="m 1881.68,16.3281 h 136.91 l 24.46,34.5703 h -1.72 L 2028.4,40.0781 c -11.17,-9.4179 -29.34,-16.0586 -44.02,-16.0586 h -64.97 V 151.879 h 55.2 c 10.82,0 16.05,-3.52 21.29,-8.399 l 4.53,-4.179 h 1.76 l -8.71,19.57 h -74.07 v 94.289 h 72.66 c 7.34,0 15.35,-3.82 19.92,-9.449 l 10.12,-12.231 h 1.41 l -8.75,29.379 h -133.09 v -1.757 h 5.59 c 0.7,0 1.4,0 2.11,0 6.28,-1.051 10.11,-5.942 10.11,-12.223 V 30.3086 c 0,-7.3398 -4.88,-12.2188 -12.22,-12.2188 h -5.59 z"
       style="fill:#ffb81c;fill-opacity:1;fill-rule:nonzero;stroke:none"
       transform="matrix(0.13333333,0,0,-0.13333333,0,81.333333)" />
    <path
       id="path23"
       d="m 2046.56,16.3281 h 55.55 v 1.7617 h -5.59 c -7.34,0 -12.22,4.879 -12.22,12.2188 V 131.25 h 28.28 C 2135.62,55.4688 2194.3,8.28125 2274.65,8.28125 c 44.73,0 88.01,14.68755 125.74,44.73045 h -1.72 c -35.66,-22.7031 -67.77,-34.9219 -110.39,-34.9219 -52.73,0 -128.55,19.5704 -155.08,115.2692 27.58,6.289 58.68,26.172 58.68,63.551 0,42.621 -41.57,63.949 -78.25,63.949 h -67.07 v -1.757 h 5.59 c 7.34,0 12.23,-4.883 12.23,-12.223 V 30.3086 c 0,-7.3398 -4.89,-12.2188 -12.23,-12.2188 h -5.59 z m 53.79,241.3709 c 23.75,-1.058 68.48,-14.648 68.48,-64.609 0,-37.039 -24.81,-58.012 -60.78,-58.012 H 2084.3 V 257.699 Z M 2172.3,66.9883 v -1.7578 h 38.09 v 1.7578 h -10.51 c -5.93,0 -7.65,3.1328 -4.88,8.3633 l 42.27,81.7574 h 84.88 l 38.44,-81.4098 c 2.42,-5.5781 0.35,-8.7109 -5.59,-8.7109 h -1.76 v -1.7578 h 40.86 v 1.7578 h -2.77 c -5.94,0 -11.53,3.1328 -13.99,8.7109 l -90.46,190.0388 -102,-193.5075 c -1.76,-3.1719 -5.93,-5.2422 -9.76,-5.2422 z m 67.08,94.6527 42.61,81.41 38.4,-81.41 z"
       style="fill:#ffb81c;fill-opacity:1;fill-rule:nonzero;stroke:none"
       transform="matrix(0.13333333,0,0,-0.13333333,0,81.333333)" />
    <path
       id="path24"
       d="m 2405.62,259.102 h 5.59 c 7.34,0 12.23,-4.883 12.23,-12.223 V 30.3086 c 0,-7.3398 -4.89,-12.2188 -12.23,-12.2188 h -5.59 v -1.7617 h 55.55 v 1.7617 h -5.58 c -7.35,0 -12.23,4.879 -12.23,12.2188 V 151.879 h 59.73 c 7.34,0 10.46,-4.578 7.69,-11.527 l -0.35,-1.051 h 1.05 l 10.12,19.57 h -78.24 v 94.289 h 65.66 c 7.35,0 15.39,-3.82 19.93,-9.449 l 10.11,-12.231 h 1.41 l -8.75,29.379 h -126.1 z"
       style="fill:#ffb81c;fill-opacity:1;fill-rule:nonzero;stroke:none"
       transform="matrix(0.13333333,0,0,-0.13333333,0,81.333333)" />
    <path
       id="path25"
       d="M 2558.28,246.879 V 30.3086 c 0,-7.3398 -4.88,-12.2188 -12.23,-12.2188 h -5.58 v -1.7617 h 55.55 v 1.7617 h -5.59 c -7.34,0 -12.23,4.879 -12.23,12.2188 V 246.879 c 0,7.34 4.89,12.223 12.23,12.223 h 5.59 v 1.757 h -55.55 v -1.757 h 5.58 c 7.35,0 12.23,-4.883 12.23,-12.223 z"
       style="fill:#ffb81c;fill-opacity:1;fill-rule:nonzero;stroke:none"
       transform="matrix(0.13333333,0,0,-0.13333333,0,81.333333)" />
    <path
       id="path26"
       d="m 2616.95,259.102 h 2.11 c 7.35,0 15.71,-4.883 15.71,-19.223 V 30.3086 c 0,-7.3398 -4.89,-12.2188 -12.23,-12.2188 h -5.59 v -1.7617 h 45.08 v 1.7617 h -5.58 c -7.35,0 -12.23,4.879 -12.23,12.2188 V 236.41 l 206.8,-225.6717 h 2.77 V 246.879 c 0,7.34 4.88,12.223 12.23,12.223 h 5.58 v 1.757 h -45.04 v -1.757 h 5.59 c 7.3,0 12.23,-4.883 12.23,-12.223 V 46.0195 L 2648.05,260.859 h -31.1 z"
       style="fill:#ffb81c;fill-opacity:1;fill-rule:nonzero;stroke:none"
       transform="matrix(0.13333333,0,0,-0.13333333,0,81.333333)" />
    <path
       id="path27"
       d="m 2871.6,18.0898 v -1.7617 h 47.85 v 1.7617 h -12.93 c -7.3,0 -9.76,4.5313 -6.64,10.8204 l 53.48,102.3398 h 106.17 l 48.2,-101.9883 c 3.13,-6.6406 0.36,-11.1719 -6.99,-11.1719 h -2.07 V 16.3281 H 3150 v 1.7617 h -3.83 c -7.34,0 -14.33,4.5313 -17.46,11.1719 L 3015.51,267.809 2887.34,25.4297 c -2.11,-4.2188 -7.34,-7.3399 -12.22,-7.3399 z m 137.27,220.0312 48.2,-101.641 h -101.29 z"
       style="fill:#ffb81c;fill-opacity:1;fill-rule:nonzero;stroke:none"
       transform="matrix(0.13333333,0,0,-0.13333333,0,81.333333)" />
  </g>
</svg>
