<?xml version="1.0" encoding="UTF-8" standalone="no"?>
<!-- Created with Inkscape (http://www.inkscape.org/) -->

<svg
   version="1.1"
   id="svg1"
   width="68"
   height="62.666668"
   viewBox="0 0 68 62.666668"
   sodipodi:docname="base_icon_transparent_background.svg"
   inkscape:version="1.4.2 (ebf0e940, 2025-05-08)"
   xmlns:inkscape="http://www.inkscape.org/namespaces/inkscape"
   xmlns:sodipodi="http://sodipodi.sourceforge.net/DTD/sodipodi-0.dtd"
   xmlns="http://www.w3.org/2000/svg"
   xmlns:svg="http://www.w3.org/2000/svg">
  <defs
     id="defs1" />
  <sodipodi:namedview
     id="namedview1"
     pagecolor="#ffffff"
     bordercolor="#000000"
     borderopacity="0.25"
     inkscape:showpageshadow="2"
     inkscape:pageopacity="0.0"
     inkscape:pagecheckerboard="0"
     inkscape:deskcolor="#d1d1d1"
     inkscape:zoom="12.235294"
     inkscape:cx="32.774038"
     inkscape:cy="31.34375"
     inkscape:window-width="1712"
     inkscape:window-height="1158"
     inkscape:window-x="1742"
     inkscape:window-y="25"
     inkscape:window-maximized="0"
     inkscape:current-layer="g1">
    <inkscape:page
       x="0"
       y="0"
       inkscape:label="1"
       id="page1"
       width="68"
       height="62.666668"
       margin="0"
       bleed="0" />
  </sodipodi:namedview>
  <g
     id="g1"
     inkscape:groupmode="layer"
     inkscape:label="1">
    <path
       id="path1"
       d="m 267.891,20.6602 c 3.129,0 3.129,9.4179 0.781,9.4179 -6.293,0 -7.07,3.9414 -7.07,8.6328 v 12.5782 c 0.777,34.5703 0.777,69.9219 1.558,104.4919 0,17.27 -1.558,194.809 -1.558,267.071 0,24.378 0,23.597 -24.372,25.16 -14.929,0.777 -24.339,-4.731 -29.851,-18.09 -10.188,-21.992 -20.43,-44.762 -29.84,-67.543 -10.199,-25.149 -18.867,-51.051 -29.059,-80.109 -3.949,10.191 -7.07,17.261 -10.242,24.332 L 89.5703,432.301 c -6.289,14.929 -9.4492,16.488 -25.1601,15.711 H 55 C 40.0781,447.23 24.3398,446.449 8.62891,444.84 5.51172,444.059 0,441.719 0,440.16 c 0,-6.289 5.51172,-5.512 9.41016,-5.512 6.28904,0.782 13.35934,0.782 19.64844,1.563 5.5117,1.559 7.0703,0 7.0703,-5.512 0,-21.988 0.7813,-43.98 0,-65.969 C 35.3516,286.172 33.7891,207.621 32.2305,129.059 L 30.6211,48.9492 c 0,-19.6484 -7.0703,-7.8594 -22.76954,-15.7109 -1.5625,-0.8164 0,-8.668 1.5586,-7.8867 19.64844,0 39.30074,0.8203 58.16794,2.3789 2.3438,0 2.3438,9.4179 0,9.4179 -6.289,0.7813 -12.5781,0 -18.8672,0 -4.7304,0 -6.289,1.5625 -6.289,6.293 0.7773,9.4102 0.7773,18.8594 1.5586,28.2774 0,44.7612 3.1679,246.6792 4.7304,302.4612 v 38.48 c 3.1289,-3.172 4.7305,-6.289 6.2891,-10.238 10.9805,-26.684 21.9883,-53.402 33.75,-80.121 12.578,-28.281 25.941,-55.781 40.078,-84.063 0.781,-3.117 5.512,-7.066 8.633,-6.289 6.289,1.602 7.07,5.512 11.019,13.36 l 59.68,160.281 c 1.61,3.898 3.949,7.851 5.512,12.57 l 3.168,-1.601 c -0.82,-18.829 -2.391,-37.688 -3.168,-56.52 -0.781,-61.289 -0.781,-121.801 -2.344,-183.051 -0.777,-46.367 -3.168,-92.6872 -4.726,-139.8396 0,-3.1289 0.777,-6.289 -4.723,-7.0703 -2.348,0 -1.57,-9.4179 1.601,-9.4179 z m -25.942,9.4179 h -7.847 C 219.18,30.8594 219.18,26.9492 219.18,46.5586 l 6.289,222.3514 c 1.562,54.18 2.34,107.61 3.121,161.012 0,7.848 3.172,7.848 8.64,7.848 5.5,-0.782 12.571,2.39 12.571,-7.848 V 163.629 c 0,-18.859 1.57,-37.688 1.57,-55.777 0,-23.5512 -1.57,-47.1528 -1.57,-70.7036 -0.781,-5.5078 -2.34,-7.0703 -7.852,-7.0703 z M 135.898,248.48 c -31.41,62.071 -54.9996,125.7 -82.4566,187.731 1.5586,0.777 3.1172,0.777 3.8984,0.777 19.6485,0 15.711,3.172 23.5586,-14.918 18.8711,-48.711 37.7306,-97.379 57.3396,-146.09 3.172,-9.46 3.172,-17.308 -2.34,-27.5 z M 339.379,7.30078 C 345.66,8.08984 345.66,12.8086 345.66,17.5 v 19.6484 l 2.352,1.5625 c 12.578,-11.7617 27.5,-13.3593 43.199,-15.6992 36.91,-6.2929 67.578,7.0664 91.129,33.7891 22.781,25.1094 24.34,56.5582 14.14,87.1792 -8.628,25.942 -18.859,50.282 -30.621,74.649 -25.937,52.621 -51.879,105.242 -71.519,160.242 -5.469,14.918 -9.418,29.059 -8.641,44.758 0.781,8.672 3.949,14.141 11.801,17.312 18.871,8.629 43.98,-5.511 45.551,-25.16 0.777,-7.851 0,-14.922 0,-22.769 0.777,-7.071 0,-14.141 1.597,-21.211 0,-2.352 10.973,-2.352 12.543,0.777 0.778,1.602 0,4.723 0,7.07 0.778,26.723 2.379,53.442 3.161,80.153 0.777,4.687 1.558,9.418 -4.731,10.199 -5.5,0 -7.07,-4.73 -7.851,-9.41 v -22 l -3.942,2.351 C 410.078,464.488 362.93,451.91 345.66,415 c -17.301,-36.129 -11.012,-70.699 8.641,-103.672 16.48,-26.719 34.57,-52.656 51.051,-79.34 20.429,-30.66 37.699,-62.847 43.199,-99.797 4.73,-29.07 0,-56.5699 -18.86,-80.1207 -13.32,-17.2695 -36.14,-23.5508 -56.531,-16.4805 -18.859,6.2891 -26.711,19.6407 -28.281,43.1993 -0.82,16.4804 -2.379,33.0119 -3.938,49.4919 0,2.34 -11.8,1.559 -11.8,-0.781 -0.782,-16.52 0,-33.0117 0.781,-49.4883 0.816,-14.1406 2.379,-29.0625 3.168,-43.9922 0.781,-5.5 0,-11.0078 0,-16.5195 0,-4.6914 0,-10.19922 6.289,-10.19922 z m 91.91,28.28902 c 7.852,5.5 11.762,14.1407 16.481,21.9883 5.511,9.4102 9.421,18.8711 11.8,29.0625 7.071,29.8394 2.34,59.6874 -10.23,87.1874 -10.981,24.371 -25.121,47.934 -39.262,71.481 -14.137,24.382 -30.668,47.929 -45.59,73.089 -18.039,29.063 -21.988,59.692 -7.847,91.911 3.16,6.25 6.289,13.32 11.8,18.832 l 1.559,1.558 c 3.16,0.821 5.512,-27.461 6.289,-31.398 2.34,-12.582 6.289,-25.121 11.012,-37.699 8.64,-24.372 19.609,-47.153 30.629,-70.704 19.648,-45.589 40.859,-90.347 62.07,-135.117 9.41,-20.429 11.762,-41.64 7.07,-63.6326 -5.511,-28.2773 -29.879,-47.9296 -55.781,-56.5586 z"
       style="fill:#e2c9bc;fill-opacity:1;fill-rule:nonzero;stroke:none"
       transform="matrix(0.13333333,0,0,-0.13333333,0,62.666667)" />
  </g>
</svg>
