<?xml version="1.0" encoding="UTF-8"?>
<svg id="Warstwa_2" data-name="Warstwa 2" xmlns="http://www.w3.org/2000/svg" viewBox="0 0 270.53 115.67">
  <defs>
    <style>
      .cls-1 {
        fill: #00539e;
      }

      .cls-1, .cls-2 {
        stroke-width: 0px;
      }

      .cls-2 {
        fill: #fc0;
      }
    </style>
  </defs>
  <g id="Warstwa_1-2" data-name="Warstwa 1">
    <g>
      <g>
        <path class="cls-1" d="M69.59,80.88c0,19.21-15.58,34.79-34.79,34.79C15.58,115.67,0,100.09,0,80.88v-41.51s69.58,0,69.58,0v41.51Z"/>
        <g>
          <g>
            <rect class="cls-2" x="21.41" y="74.77" width="30.86" height="4.61" transform="translate(-46.57 58.63) rotate(-51.98)"/>
            <path class="cls-2" d="M20.82,104.2c-.63.75-1.76.86-2.42.35l-3.69-2.88c-.66-.51-.89-1.59-.27-2.39l.53-.68c.64-.82,1.73-.83,2.39-.3l3.68,2.87c.67.53.83,1.66.32,2.34l-.55.7Z"/>
            <path class="cls-2" d="M48.11,51.03l-1.14,2.46c-.05.11-.01.36.11.46.94.81,1.4,2.12,1.32,3.21,0,1.19-.4,2.03-1.44,3.21l3.65,2.85c.89-1.29,1.61-1.88,2.76-2.17,1.04-.35,2.42-.22,3.44.5.13.1.38.08.47,0l2.11-1.7-11.29-8.82Z"/>
            <path class="cls-2" d="M59.95,59.39l5.74-4.46c.09-.07.06-.41-.25-.34l-3.53.33.02-2.51c.01-.16-.23-.38-.4-.32l-2.42.67,1.18-5.35c.03-.1-.02-.2-.06-.24-.05-.03-.16-.05-.25,0l-4.91,2.43.06-2.51c.01-.18-.26-.36-.41-.31l-2.43.63-.53-3.5c-.02-.32-.35-.26-.39-.16l-2.94,6.65,11.53,9.01Z"/>
            <path class="cls-2" d="M50.54,64.1c1.01.78-.52,2.82-1.57,2.01l-4.41-3.44c-1.04-.83.57-2.81,1.57-2.01l4.41,3.44Z"/>
            <path class="cls-2" d="M29.09,91.55c1.01.78-.52,2.82-1.57,2.01l-4.41-3.44c-1.04-.83.57-2.81,1.57-2.01l4.41,3.44Z"/>
            <rect class="cls-2" x="17.99" y="93.48" width="8.52" height="4.62" transform="translate(-66.93 54.35) rotate(-52)"/>
          </g>
          <path class="cls-2" d="M38.17,80.24l5.98,7.65-3.64,2.84-5.27-6.74,2.93-3.75ZM25.03,63.42l9.34,11.96-2.93,3.75-10.05-12.86,3.64-2.84Z"/>
          <path class="cls-2" d="M48.85,104.28c.63.75,1.76.86,2.42.35l3.69-2.88c.66-.51.89-1.59.27-2.39l-.53-.68c-.64-.82-1.73-.83-2.39-.3l-3.68,2.87c-.67.53-.83,1.66-.32,2.34l.55.7Z"/>
          <path class="cls-2" d="M21.44,50.96l1.14,2.46c.05.11.01.36-.11.46-.94.81-1.4,2.12-1.32,3.21,0,1.19.4,2.03,1.44,3.21l-3.65,2.85c-.89-1.29-1.61-1.88-2.76-2.17-1.04-.35-2.42-.22-3.44.5-.13.1-.38.08-.47,0l-2.11-1.7,11.29-8.82Z"/>
          <path class="cls-2" d="M9.59,59.32l-5.74-4.46c-.09-.07-.06-.41.25-.34l3.53.33-.02-2.51c-.01-.16.23-.38.4-.32l2.42.67-1.18-5.35c-.03-.1.02-.2.06-.24.05-.03.16-.05.25,0l4.91,2.43-.06-2.51c-.01-.18.26-.36.41-.31l2.43.63.53-3.5c.02-.32.35-.26.39-.16l2.94,6.65-11.53,9.01Z"/>
          <path class="cls-2" d="M19.01,64.02c-1.01.78.52,2.82,1.57,2.01l4.41-3.44c1.04-.83-.57-2.81-1.57-2.01l-4.41,3.44Z"/>
          <path class="cls-2" d="M40.57,91.63c-1.01.78.52,2.82,1.57,2.01l4.41-3.44c1.04-.83-.57-2.81-1.57-2.01l-4.41,3.44Z"/>
          <rect class="cls-2" x="45.11" y="91.61" width="4.62" height="8.52" transform="translate(-48.97 49.52) rotate(-38)"/>
        </g>
        <g>
          <path class="cls-1" d="M13.65,36.15l-1.74-4.7-3.55-9.34c-2.58-6.78-5.17-13.61-5.27-13.82l-.23-.67s.1-.31.34-.4c.17-.1,1.34.52,2.5.89.81.26,1.78.69,2.95.95,1.23.29,1.74.51,2.59,1.69.39.62.39,1.61.37,2.27,1.12-2.05,2.74-3.38,5.32-2.99,3.06.38,4.31,4.52,2.55,6.2-.54.64-1.75,1.79-.56,2.47.25.1.54.03.54.03,0,0-.12.64-.32.93-.58.84-2.74,1.79-3.87.18-.48-.75-.56-1.17-.37-2.01l.18-.73c-.02-.45-.6-.73-1.19-.56-.22.08-.68.44-.76,1.75-.24,3.27,1.77,7.57,6.21,6.38,2.23-.6,2.83-1.44,2.91-2.68-.98-.33-1.69-1.26-1.69-2.35,0-1.37.94-2.48,2.31-2.48s2.48,1.11,2.48,2.48c0,.77-.35,1.45-.9,1.91.52,1.19,1.17,1.86,3.56,1.65,4.57-.41,5.13-5.15,3.78-8.14-.54-1.23-1.1-1.39-1.33-1.39-.61.04-1.06.51-.92.93l.42.63c.47.72.53,1.15.34,2.01-.51,1.9-2.87,1.75-3.7,1.16-.35-.26-.63-.82-.63-.82,0,0,.43-.02.51-.16.89-1.06-.66-1.72-1.39-2.14-2.21-.99-2.46-5.29.3-6.69,2.2-1.19,3.76-.65,5.36.51.16.12.31.3.41.41-.09-.22-.13-.25-.23-.47-.11-.24-.24-.51-.26-.82-.15-.93.01-1.91.42-2.64.4-.7.97-1.26,1.47-1.89.54-.68,1.15-1.52,1.69-2.88.09-.15.27-.67.4-.74.04-.04.09-.06.2-.07.1.01.17.04.21.07.13.08.31.59.4.74.55,1.36,1.16,2.2,1.69,2.88.5.63,1.07,1.19,1.47,1.89.4.73.57,1.7.42,2.64-.02.3-.15.58-.26.82-.11.22-.14.25-.23.47.11-.12.25-.3.41-.41,1.6-1.16,3.16-1.7,5.36-.51,2.75,1.4,2.51,5.7.3,6.69-.73.42-2.28,1.09-1.39,2.14.07.14.51.16.51.16,0,0-.28.55-.63.82-.83.6-3.19.75-3.7-1.16-.19-.87-.13-1.29.34-2.01l.42-.63c.14-.43-.31-.89-.92-.93-.23,0-.79.15-1.33,1.39-1.34,2.99-.79,7.74,3.78,8.14,2.38.21,3.04-.46,3.56-1.65-.55-.45-.9-1.14-.9-1.91,0-1.37,1.11-2.48,2.48-2.48s2.31,1.11,2.31,2.48c0,1.09-.71,2.02-1.69,2.35.08,1.24.68,2.08,2.91,2.68,4.44,1.18,6.44-3.11,6.21-6.38-.08-1.32-.54-1.68-.76-1.75-.59-.17-1.18.11-1.19.56l.18.73c.19.84.11,1.26-.37,2.01-1.13,1.62-3.29.67-3.87-.18-.2-.29-.32-.93-.32-.93,0,0,.29.07.54-.03,1.19-.68-.02-1.83-.56-2.47-1.76-1.68-.51-5.82,2.55-6.2,2.59-.39,4.2.94,5.32,2.99-.02-.66-.03-1.65.37-2.27.86-1.18,1.36-1.4,2.59-1.69,1.16-.26,2.14-.69,2.95-.95,1.16-.37,2.34-1,2.5-.89.23.08.34.4.34.4l-.23.67c-.11.22-2.7,7.04-5.27,13.82l-3.55,9.34-1.74,4.7H13.65Z"/>
          <path class="cls-2" d="M14.12,35.34c-.05-.06-10.2-26.89-10.41-27.32.67.21,2.38,1.17,4.78,1.71.79.19,1.32.22,2.17,1.4.46.73.37,1.86.24,2.51.1.32.67.56.95.19.72-1.25,1.77-3.61,4.92-3.14,2.58.31,3.48,3.82,2.14,5.05-.49.59-2.33,2.39-.41,3.5-.46.68-2.03,1.21-2.74.18-.53-.82-.39-.95-.08-2.27.06-1.3-1.41-1.46-2.04-1.28-.59.19-1.14.88-1.23,2.34-.25,3.36,2.07,8.47,7.21,7.1,2.89-.77,3.17-2.18,3.2-3.91-.95-.05-1.7-.84-1.7-1.79s.8-1.8,1.8-1.8,1.8.8,1.8,1.8c0,.72-.42,1.33-1.02,1.62.04.17.14.42.21.59.6,1.37,1.48,2.34,4.15,2.1,5.3-.47,5.73-6.07,4.35-9.14-.58-1.34-1.33-1.8-1.96-1.78-.66.04-1.99.7-1.48,1.9.75,1.13.92,1.2.7,2.16-.32,1.21-1.97,1.24-2.64.77,1.43-1.69-.92-2.76-1.58-3.15-1.67-.69-2.02-4.3.29-5.48,2.8-1.52,4.59.34,5.69,1.27.39.25.84-.17.83-.51-.28-.46-.9-1.07-.93-1.8-.13-.8,0-1.62.33-2.2.66-1.14,1.99-2,3.17-4.77,1.18,2.78,2.5,3.63,3.16,4.77.33.59.47,1.41.33,2.2-.03.73-.65,1.34-.93,1.8-.01.34.43.76.83.51,1.11-.93,2.89-2.79,5.69-1.27,2.31,1.18,1.96,4.78.29,5.48-.66.38-3,1.45-1.58,3.15-.67.48-2.32.44-2.64-.77-.21-.95-.04-1.02.7-2.16.5-1.2-.82-1.86-1.48-1.9-.62-.02-1.37.43-1.96,1.78-1.38,3.07-.96,8.67,4.35,9.14,2.67.24,3.55-.73,4.15-2.1.07-.17.17-.42.21-.59-.61-.29-1.02-.91-1.02-1.62,0-.99.8-1.8,1.8-1.8s1.8.8,1.8,1.8-.75,1.74-1.7,1.79c.03,1.73.31,3.14,3.2,3.91,5.14,1.37,7.46-3.74,7.21-7.1-.09-1.46-.64-2.14-1.23-2.34-.64-.19-2.11-.02-2.04,1.28.31,1.32.45,1.44-.08,2.27-.72,1.03-2.28.49-2.74-.18,1.92-1.1.08-2.91-.41-3.5-1.33-1.22-.43-4.73,2.14-5.05,3.15-.47,4.19,1.89,4.92,3.14.29.37.85.13.95-.19-.13-.65-.22-1.78.24-2.51.86-1.18,1.38-1.21,2.17-1.4,2.4-.54,4.1-1.5,4.78-1.71-.21.43-10.36,27.26-10.41,27.32H14.12Z"/>
        </g>
      </g>
      <g>
        <g>
          <path class="cls-1" d="M90.08,108.29c.16.54.27.76.47.76.25,0,.35-.25.74-1.09.89-1.9,3.63-9.19,4.02-10.24h.04l4.28,10.32c.31.76.43,1.01.64,1.01.27,0,.37-.25.6-.97,1.01-3.09,3.17-9.64,4.12-12.24.43-1.17.66-2,1.15-2.18.23-.08.51-.1.72-.1.19,0,.29-.06.29-.21,0-.12-.14-.16-.37-.16-.68,0-1.57.06-1.71.06-.19,0-1.05-.06-2.14-.06-.31,0-.47.04-.47.19,0,.12.14.19.35.19.8,0,.99.29.99.62,0,.29-.06.72-.21,1.19-.72,2.41-2.37,7.85-2.74,9.23h-.06l-4.28-10.36c-.27-.66-.37-.97-.6-.97-.16,0-.29.16-.51.74l-4,10.73h-.06c-.37-1.15-2.29-7.4-2.64-8.75-.25-.93-.45-1.63-.45-1.9,0-.23.04-.37.23-.45.14-.08.35-.08.52-.08.21,0,.37-.02.37-.19,0-.12-.14-.19-.43-.19-1.19,0-2.1.06-2.29.06s-1.32-.06-2.39-.06c-.29,0-.45.04-.45.19,0,.16.12.19.33.19.19,0,.6.04.82.19.29.21.51.7.76,1.46l4.37,13.08Z"/>
          <path class="cls-1" d="M125.71,99.16c0-3.13,0-3.71.04-4.37.04-.72.21-1.07.76-1.17.25-.04.37-.06.58-.06.16,0,.29-.04.29-.19s-.14-.19-.43-.19c-.7,0-2,.06-2.49.06s-1.79-.06-2.88-.06c-.31,0-.45.04-.45.19s.12.19.35.19c.29,0,.64.02.8.06.68.14.84.47.89,1.17.04.66.04,1.24.04,4.37v3.63c0,1.9,0,3.52-.1,4.39-.08.6-.19,1.05-.6,1.13-.19.04-.43.08-.74.08-.25,0-.33.06-.33.16,0,.14.14.21.41.21.82,0,2.12-.06,2.6-.06.51,0,1.81.06,2.97.06.23,0,.39-.06.39-.21,0-.1-.1-.16-.27-.16-.27,0-.72-.04-1.01-.08-.51-.08-.7-.54-.74-1.11-.06-.89-.06-2.51-.06-4.41v-1.87h.1l.23.31c.43.6,4.49,5.36,5.4,6.16.89.78,1.44,1.24,2.55,1.34.43.04.8.04,1.42.04h1.79c.39,0,.49-.06.49-.21,0-.12-.12-.16-.27-.16-.25,0-.66-.06-1.28-.31-1.11-.43-2.04-1.36-2.95-2.22-.8-.76-4.84-5.11-5.58-6.08.7-.74,3.81-3.83,4.45-4.45.89-.87,1.59-1.3,2.22-1.54.39-.14.91-.23,1.19-.23.21,0,.31-.04.31-.19s-.14-.19-.35-.19c-.64,0-1.77.06-2.41.06-.56,0-1.69-.06-2.12-.06-.23,0-.33.04-.33.19,0,.12.08.16.27.21.21.04.29.19.29.41,0,.35-.45.87-1.03,1.54-.6.7-3.6,3.77-4.31,4.53h-.1v-.91Z"/>
          <path class="cls-1" d="M143.24,102.79c0,1.9,0,3.52-.1,4.39-.08.6-.19,1.05-.6,1.13-.19.04-.43.08-.74.08-.25,0-.33.06-.33.16,0,.14.14.21.41.21.82,0,2.12-.06,2.51-.06.31,0,1.83.06,3.03.06.27,0,.41-.06.41-.21,0-.1-.08-.16-.25-.16-.25,0-.7-.04-1.01-.08-.62-.08-.74-.54-.8-1.13-.1-.87-.1-2.49-.1-4.41v-.29c0-.12.06-.16.16-.16l1.79.04c.14,0,.27.02.37.14.27.31,1.22,1.71,2.04,2.84,1.15,1.59,1.94,2.55,2.82,3.03.54.29,1.05.39,2.2.39h1.96c.25,0,.39-.04.39-.21,0-.1-.08-.16-.25-.16s-.35-.02-.58-.06c-.31-.06-1.15-.21-2.31-1.4-1.22-1.28-2.64-3.11-4.47-5.42,2.08-1.69,2.72-3.09,2.72-4.61,0-1.38-.82-2.43-1.4-2.82-1.11-.76-2.49-.89-3.79-.89-.64,0-2.2.06-2.9.06-.43,0-1.73-.06-2.82-.06-.31,0-.45.04-.45.19s.12.19.35.19c.29,0,.64.02.8.06.68.14.84.47.89,1.17.04.66.04,1.24.04,4.37v3.63ZM145.67,94.53c0-.16.04-.25.19-.29.21-.06.58-.08,1.09-.08,1.22,0,3.15.84,3.15,3.77,0,1.69-.6,2.64-1.22,3.09-.37.27-.64.35-1.46.35-.51,0-1.13-.06-1.57-.21-.14-.06-.19-.14-.19-.37v-6.26Z"/>
          <path class="cls-1" d="M168.44,103.39c.1,0,.16.04.21.14l1.65,4.37c.1.25-.04.43-.19.47-.21.02-.29.06-.29.19,0,.14.25.14.62.16,1.65.04,3.15.04,3.89.04s.95-.04.95-.21c0-.14-.1-.16-.27-.16-.25,0-.56-.02-.87-.08-.43-.1-1.03-.39-1.81-2.25-1.32-3.13-4.61-11.54-5.11-12.67-.21-.47-.33-.66-.51-.66-.21,0-.33.23-.58.82l-5.17,12.94c-.41,1.03-.8,1.73-1.75,1.85-.16.02-.45.04-.64.04-.16,0-.25.04-.25.16,0,.16.12.21.39.21,1.07,0,2.2-.06,2.43-.06.64,0,1.52.06,2.18.06.23,0,.35-.04.35-.21,0-.12-.06-.16-.31-.16h-.31c-.64,0-.82-.27-.82-.64,0-.25.1-.74.31-1.26l1.11-2.95c.04-.12.08-.16.19-.16h4.59ZM164.26,102.36c-.08,0-.1-.06-.08-.14l1.9-5.07c.02-.08.06-.19.12-.19s.08.1.1.19l1.85,5.09c.02.06,0,.12-.1.12h-3.79Z"/>
          <path class="cls-1" d="M183.36,99.16c0-3.13,0-3.71.04-4.37.04-.72.21-1.07.76-1.17.25-.04.37-.06.58-.06.16,0,.29-.04.29-.19s-.14-.19-.43-.19c-.7,0-2,.06-2.49.06s-1.79-.06-2.88-.06c-.31,0-.45.04-.45.19s.12.19.35.19c.29,0,.64.02.8.06.68.14.84.47.89,1.17.04.66.04,1.24.04,4.37v3.63c0,1.9,0,3.52-.1,4.39-.08.6-.19,1.05-.6,1.13-.19.04-.43.08-.74.08-.25,0-.33.06-.33.16,0,.14.14.21.41.21.82,0,2.12-.06,2.6-.06.51,0,1.81.06,2.97.06.23,0,.39-.06.39-.21,0-.1-.1-.16-.27-.16-.27,0-.72-.04-1.01-.08-.51-.08-.7-.54-.74-1.11-.06-.89-.06-2.51-.06-4.41v-1.87h.1l.23.31c.43.6,4.49,5.36,5.4,6.16.89.78,1.44,1.24,2.55,1.34.43.04.8.04,1.42.04h1.79c.39,0,.49-.06.49-.21,0-.12-.12-.16-.27-.16-.25,0-.66-.06-1.28-.31-1.11-.43-2.04-1.36-2.95-2.22-.8-.76-4.84-5.11-5.58-6.08.7-.74,3.81-3.83,4.45-4.45.89-.87,1.59-1.3,2.22-1.54.39-.14.91-.23,1.19-.23.21,0,.31-.04.31-.19s-.14-.19-.35-.19c-.64,0-1.77.06-2.41.06-.56,0-1.69-.06-2.12-.06-.23,0-.33.04-.33.19,0,.12.08.16.27.21.21.04.29.19.29.41,0,.35-.45.87-1.03,1.54-.6.7-3.6,3.77-4.31,4.53h-.1v-.91Z"/>
          <path class="cls-1" d="M206.13,109.05c5.23,0,8.53-3.73,8.53-8.45s-3.19-7.7-8.32-7.7c-6.18,0-8.51,4.55-8.51,8.07s2.39,8.07,8.3,8.07ZM206.99,108.02c-3.96,0-6.32-3.4-6.32-7.68,0-5.13,2.7-6.45,5.07-6.45,3.38,0,6.04,2.86,6.04,7.48,0,5.95-3.34,6.65-4.78,6.65Z"/>
          <path class="cls-1" d="M225.1,108.29c.16.54.27.76.47.76.25,0,.35-.25.74-1.09.89-1.9,3.63-9.19,4.02-10.24h.04l4.28,10.32c.31.76.43,1.01.64,1.01.27,0,.37-.25.6-.97,1.01-3.09,3.17-9.64,4.12-12.24.43-1.17.66-2,1.15-2.18.23-.08.51-.1.72-.1.19,0,.29-.06.29-.21,0-.12-.14-.16-.37-.16-.68,0-1.57.06-1.71.06-.19,0-1.05-.06-2.14-.06-.31,0-.47.04-.47.19,0,.12.14.19.35.19.8,0,.99.29.99.62,0,.29-.06.72-.21,1.19-.72,2.41-2.37,7.85-2.74,9.23h-.06l-4.28-10.36c-.27-.66-.37-.97-.6-.97-.16,0-.29.16-.51.74l-4,10.73h-.06c-.37-1.15-2.29-7.4-2.64-8.75-.25-.93-.45-1.63-.45-1.9,0-.23.04-.37.23-.45.14-.08.35-.08.51-.08.21,0,.37-.02.37-.19,0-.12-.14-.19-.43-.19-1.19,0-2.1.06-2.29.06s-1.32-.06-2.39-.06c-.29,0-.45.04-.45.19,0,.16.12.19.33.19.19,0,.6.04.82.19.29.21.51.7.76,1.46l4.37,13.08Z"/>
          <path class="cls-1" d="M248.33,102.79c0,2,0,3.63-.1,4.49-.06.6-.19.95-.6,1.03-.19.04-.43.08-.74.08-.25,0-.33.06-.33.16,0,.14.14.21.41.21.82,0,2.12-.06,2.6-.06.56,0,1.85.06,3.21.06.23,0,.39-.06.39-.21,0-.1-.1-.16-.33-.16-.31,0-.76-.04-1.05-.08-.62-.08-.76-.45-.82-1.01-.08-.89-.08-2.51-.08-4.51v-3.63c0-3.13,0-3.71.04-4.37.04-.72.21-1.07.76-1.17.25-.04.41-.06.62-.06s.33-.04.33-.21c0-.12-.16-.16-.43-.16-.78,0-2,.06-2.51.06-.6,0-1.9-.06-2.68-.06-.33,0-.49.04-.49.16,0,.16.12.21.33.21.25,0,.51.02.74.08.45.1.66.45.7,1.15.04.66.04,1.24.04,4.37v3.63Z"/>
          <path class="cls-1" d="M261.04,102.79c0,1.9,0,3.52-.1,4.39-.08.6-.19,1.05-.6,1.13-.19.04-.43.08-.74.08-.25,0-.33.06-.33.16,0,.14.14.21.41.21.82,0,2.12-.06,2.6-.06,1.22,0,2.6.12,5.71.12.78,0,.97,0,1.11-.54.1-.41.27-1.81.27-2.29,0-.21,0-.37-.16-.37-.14,0-.19.08-.23.31-.14.84-.39,1.28-.93,1.52-.54.25-1.4.25-1.94.25-2.1,0-2.43-.31-2.47-1.73-.02-.6,0-2.49,0-3.19v-1.63c0-.12.02-.21.12-.21.49,0,2.53.02,2.93.06.76.08,1.05.39,1.15.8.06.27.06.54.08.74,0,.1.04.19.19.19.19,0,.19-.23.19-.39,0-.14.04-.97.08-1.38.06-1.05.16-1.38.16-1.5s-.06-.16-.14-.16c-.1,0-.19.1-.33.27-.19.21-.49.27-.99.31-.47.04-2.84.04-3.3.04-.12,0-.14-.08-.14-.23v-5.21c0-.14.04-.21.14-.21.41,0,2.57.04,2.93.08,1.03.12,1.24.37,1.38.74.1.25.12.6.12.74,0,.19.04.29.19.29s.19-.12.21-.23c.04-.25.08-1.15.1-1.36.06-.95.16-1.19.16-1.34,0-.1-.02-.19-.12-.19s-.23.06-.33.08c-.16.04-.49.08-.89.12-.39.02-4.49.02-5.15.02-.58,0-1.87-.06-2.97-.06-.31,0-.45.04-.45.19s.12.19.35.19c.29,0,.64.02.8.06.68.14.84.47.89,1.17.04.66.04,1.24.04,4.37v3.63Z"/>
        </g>
        <g>
          <path class="cls-1" d="M86.78,78.05c0,4.04.02,6.1-1.54,7.68-.41.41-.72.64-.99.78-.35.19-.45.27-.45.37s.08.16.16.16c.1,0,.27-.04.41-.12.43-.21.76-.37,1.03-.54,1.98-1.22,3.07-2.64,3.5-3.89.41-1.15.49-2.47.49-3.65,0-1.03-.06-2.02-.06-2.9v-3.81c0-3.13,0-3.71.04-4.37.04-.72.21-1.07.76-1.17.25-.04.37-.06.6-.06.25,0,.37-.04.37-.19s-.14-.19-.43-.19c-.8,0-2.1.06-2.6.06-.54,0-1.83-.06-2.93-.06-.31,0-.45.04-.45.19s.12.19.35.19c.29,0,.64.02.8.06.68.14.84.47.89,1.17.04.66.04,1.24.04,4.37v5.91Z"/>
          <path class="cls-1" d="M102.93,76.36c.1,0,.16.04.21.14l1.65,4.37c.1.25-.04.43-.19.47-.21.02-.29.06-.29.19,0,.14.25.14.62.16,1.65.04,3.15.04,3.89.04s.95-.04.95-.21c0-.14-.1-.16-.27-.16-.25,0-.56-.02-.87-.08-.43-.1-1.03-.39-1.81-2.25-1.32-3.13-4.61-11.54-5.11-12.67-.21-.47-.33-.66-.51-.66-.21,0-.33.23-.58.82l-5.17,12.94c-.41,1.03-.8,1.73-1.75,1.85-.16.02-.45.04-.64.04-.16,0-.25.04-.25.16,0,.16.12.21.39.21,1.07,0,2.2-.06,2.43-.06.64,0,1.52.06,2.18.06.23,0,.35-.04.35-.21,0-.12-.06-.16-.31-.16h-.31c-.64,0-.82-.27-.82-.64,0-.25.1-.74.31-1.26l1.11-2.95c.04-.12.08-.16.19-.16h4.59ZM98.75,75.33c-.08,0-.1-.06-.08-.14l1.9-5.07c.02-.08.06-.19.12-.19s.08.1.1.19l1.85,5.09c.02.06,0,.12-.1.12h-3.79Z"/>
          <path class="cls-1" d="M126.6,78.09c0-1.03,0-1.85.02-2.47.02-.72.23-1.07.78-1.17.25-.04.39-.06.56-.06.14,0,.27-.04.27-.16,0-.16-.14-.21-.41-.21-.68,0-1.77.06-2.41.06s-1.92-.06-2.99-.06c-.29,0-.43.04-.43.21,0,.12.12.16.31.16.29,0,.64.02.8.06.68.14.87.47.89,1.17.02.62.02,1.4.02,2.43v1.94c0,.35-.08.62-.39.76-.49.23-1.22.23-1.75.23-4.35,0-7.17-3.32-7.17-7.75,0-2.53.74-4.08,1.9-5.05,1.44-1.19,2.95-1.28,4.08-1.28,2.33,0,3.98.95,4.59,1.61.54.58.64,1.24.7,1.71.02.16.06.27.21.27.16,0,.23-.1.23-.43,0-2.57.14-3.15.14-3.38,0-.14-.04-.23-.29-.25-.47-.02-1.19-.14-1.63-.23-.41-.08-2.22-.33-3.65-.33-1.73,0-3.56.14-5.54,1.34-1.87,1.13-3.58,3.44-3.58,6.74,0,5.69,4.47,8.07,9.52,8.07,1.61,0,3.63-.23,4.96-.93.25-.14.27-.19.27-.74v-2.27Z"/>
          <path class="cls-1" d="M134.52,75.76c0,2,0,3.63-.1,4.49-.06.6-.19.95-.6,1.03-.19.04-.43.08-.74.08-.25,0-.33.06-.33.16,0,.14.14.21.41.21.82,0,2.12-.06,2.6-.06.56,0,1.85.06,3.21.06.23,0,.39-.06.39-.21,0-.1-.1-.16-.33-.16-.31,0-.76-.04-1.05-.08-.62-.08-.76-.45-.82-1.01-.08-.89-.08-2.51-.08-4.51v-3.63c0-3.13,0-3.71.04-4.37.04-.72.21-1.07.76-1.17.25-.04.41-.06.62-.06s.33-.04.33-.21c0-.12-.16-.16-.43-.16-.78,0-2,.06-2.51.06-.6,0-1.9-.06-2.68-.06-.33,0-.49.04-.49.16,0,.16.12.21.33.21.25,0,.51.02.74.08.45.1.66.45.7,1.15.04.66.04,1.24.04,4.37v3.63Z"/>
          <path class="cls-1" d="M146,75.76c0,1.9,0,3.52-.1,4.39-.08.6-.19,1.05-.6,1.13-.19.04-.43.08-.74.08-.25,0-.33.06-.33.16,0,.14.14.21.41.21.82,0,2.12-.06,2.6-.06,1.22,0,2.6.12,5.71.12.78,0,.97,0,1.11-.54.1-.41.27-1.81.27-2.29,0-.21,0-.37-.16-.37-.14,0-.19.08-.23.31-.14.84-.39,1.28-.93,1.52-.54.25-1.4.25-1.94.25-2.1,0-2.43-.31-2.47-1.73-.02-.6,0-2.49,0-3.19v-1.63c0-.12.02-.21.12-.21.49,0,2.53.02,2.93.06.76.08,1.05.39,1.15.8.06.27.06.54.08.74,0,.1.04.19.19.19.19,0,.19-.23.19-.39,0-.14.04-.97.08-1.38.06-1.05.16-1.38.16-1.5s-.06-.16-.14-.16c-.1,0-.19.1-.33.27-.19.21-.49.27-.99.31-.47.04-2.84.04-3.3.04-.12,0-.14-.08-.14-.23v-5.21c0-.14.04-.21.14-.21.41,0,2.57.04,2.93.08,1.03.12,1.24.37,1.38.74.1.25.12.6.12.74,0,.19.04.29.19.29s.19-.12.21-.23c.04-.25.08-1.15.1-1.36.06-.95.16-1.19.16-1.34,0-.1-.02-.19-.12-.19s-.23.06-.33.08c-.16.04-.49.08-.89.12-.39.02-4.49.02-5.15.02-.58,0-1.87-.06-2.97-.06-.31,0-.45.04-.45.19s.12.19.35.19c.29,0,.64.02.8.06.68.14.84.47.89,1.17.04.66.04,1.24.04,4.37v3.63Z"/>
          <path class="cls-1" d="M163.76,72.14c0-3.13,0-3.71.04-4.37.04-.72.21-1.07.76-1.17.25-.04.58-.06.8-.06.25,0,.37-.04.37-.19s-.14-.19-.43-.19c-.8,0-2.31.06-2.8.06-.56,0-1.85-.06-2.82-.06-.31,0-.45.04-.45.19s.12.19.35.19c.27,0,.51.02.68.06.68.14.84.47.89,1.17.04.66.04,1.24.04,4.37v3.63c0,1.9,0,3.52-.1,4.39-.08.6-.19,1.05-.6,1.13-.19.04-.43.08-.74.08-.25,0-.33.06-.33.16,0,.14.14.21.41.21.82,0,2.12-.06,2.6-.06,1.67,0,3.03.12,5.99.12,1.07,0,1.17-.1,1.3-.56.16-.6.31-2.14.31-2.37,0-.25-.02-.35-.16-.35-.16,0-.21.12-.23.31-.04.39-.29.97-.54,1.24-.51.56-1.32.58-2.41.58-1.61,0-2.14-.14-2.49-.45-.43-.37-.43-1.79-.43-4.43v-3.63Z"/>
          <path class="cls-1" d="M178.39,72.14c0-3.13,0-3.71.04-4.37.04-.72.21-1.07.76-1.17.25-.04.58-.06.8-.06.25,0,.37-.04.37-.19s-.14-.19-.43-.19c-.8,0-2.31.06-2.8.06-.56,0-1.85-.06-2.82-.06-.31,0-.45.04-.45.19s.12.19.35.19c.27,0,.51.02.68.06.68.14.84.47.89,1.17.04.66.04,1.24.04,4.37v3.63c0,1.9,0,3.52-.1,4.39-.08.6-.19,1.05-.6,1.13-.19.04-.43.08-.74.08-.25,0-.33.06-.33.16,0,.14.14.21.41.21.82,0,2.12-.06,2.6-.06,1.67,0,3.03.12,5.99.12,1.07,0,1.17-.1,1.3-.56.16-.6.31-2.14.31-2.37,0-.25-.02-.35-.16-.35-.16,0-.21.12-.23.31-.04.39-.29.97-.54,1.24-.51.56-1.32.58-2.41.58-1.61,0-2.14-.14-2.49-.45-.43-.37-.43-1.79-.43-4.43v-3.63Z"/>
          <path class="cls-1" d="M196.5,82.03c5.23,0,8.53-3.73,8.53-8.45s-3.19-7.7-8.32-7.7c-6.18,0-8.51,4.55-8.51,8.07s2.39,8.07,8.3,8.07ZM197.37,81c-3.96,0-6.32-3.4-6.32-7.68,0-5.13,2.7-6.45,5.07-6.45,3.38,0,6.04,2.86,6.04,7.48,0,5.95-3.34,6.65-4.78,6.65Z"/>
          <path class="cls-1" d="M220.69,61.65c-.1-.19-.14-.25-.29-.25-.06,0-.21.04-.41.19-.33.21-2.49,1.81-3.32,2.6-.1.1-.19.19-.19.27s.08.12.12.12.19-.08.35-.16c.76-.41,2.39-1.07,3.52-1.22.41-.04.6,0,.7,0s.23-.06.1-.31c-.25-.56-.43-.95-.6-1.24ZM212.64,70.29h.06c.37.39,2.66,2.97,4.9,5.19,2.14,2.12,4.78,4.82,6.08,6.06.23.23.47.45.7.45.19,0,.27-.19.27-.64l.23-13c.02-1.15.19-1.59.76-1.75.25-.06.41-.06.62-.06.25,0,.37-.06.37-.19,0-.16-.21-.19-.47-.19-1.01,0-1.79.06-2.02.06-.43,0-1.42-.06-2.49-.06-.31,0-.54.02-.54.19,0,.12.08.19.33.19.29,0,.78,0,1.09.12.49.21.68.6.7,1.85l.21,9.25h-.1c-.35-.33-3.13-3.3-4.53-4.7-3.01-2.99-6.14-6.34-6.39-6.61-.35-.37-.54-.64-.76-.64-.21,0-.27.29-.27.7l-.19,12.19c-.02,1.79-.1,2.39-.64,2.55-.29.08-.66.1-.93.1-.21,0-.33.04-.33.16,0,.19.19.21.45.21,1.07,0,2.04-.06,2.22-.06.39,0,1.22.06,2.55.06.29,0,.47-.04.47-.21,0-.12-.12-.16-.35-.16-.33,0-.72-.02-1.07-.14-.41-.14-.68-.68-.72-2.29l-.23-8.65Z"/>
          <path class="cls-1" d="M235.26,82.03c1.09,0,2.25-.19,3.28-.84,1.48-.97,1.94-2.39,1.94-3.58,0-1.96-.91-3.34-3.38-5.25l-.58-.43c-1.71-1.3-2.18-2.02-2.18-2.97,0-1.24.93-2.12,2.45-2.12,1.34,0,1.94.62,2.25,1.01.43.54.54,1.17.54,1.36,0,.25.06.37.21.37.16,0,.23-.16.23-.62,0-1.61.08-2.2.08-2.47,0-.14-.1-.21-.29-.25-.54-.14-1.4-.35-2.74-.35-2.86,0-4.76,1.63-4.76,3.89,0,1.67.78,3.11,3.05,4.88l.95.74c1.71,1.32,2.02,2.29,2.02,3.3,0,1.09-.91,2.35-2.76,2.35-1.28,0-2.49-.56-2.95-2.08-.1-.35-.19-.78-.19-1.05,0-.16-.02-.35-.21-.35-.16,0-.23.23-.25.54-.02.33-.1,1.57-.1,2.7,0,.45.06.56.39.7.89.39,1.81.54,3.01.54Z"/>
          <path class="cls-1" d="M250.05,72.14c0-3.13,0-3.71.04-4.37.04-.72.21-1.07.76-1.17.25-.04.37-.06.58-.06.16,0,.29-.04.29-.19s-.14-.19-.43-.19c-.7,0-2,.06-2.49.06s-1.79-.06-2.88-.06c-.31,0-.45.04-.45.19s.12.19.35.19c.29,0,.64.02.8.06.68.14.84.47.89,1.17.04.66.04,1.24.04,4.37v3.63c0,1.9,0,3.52-.1,4.39-.08.6-.19,1.05-.6,1.13-.19.04-.43.08-.74.08-.25,0-.33.06-.33.16,0,.14.14.21.41.21.82,0,2.12-.06,2.6-.06.51,0,1.81.06,2.97.06.23,0,.39-.06.39-.21,0-.1-.1-.16-.27-.16-.27,0-.72-.04-1.01-.08-.51-.08-.7-.54-.74-1.11-.06-.89-.06-2.51-.06-4.41v-1.87h.1l.23.31c.43.6,4.49,5.36,5.4,6.16.89.78,1.44,1.24,2.55,1.34.43.04.8.04,1.42.04h1.79c.39,0,.49-.06.49-.21,0-.12-.12-.16-.27-.16-.25,0-.66-.06-1.28-.31-1.11-.43-2.04-1.36-2.95-2.22-.8-.76-4.84-5.11-5.58-6.08.7-.74,3.81-3.83,4.45-4.45.89-.87,1.59-1.3,2.22-1.54.39-.14.91-.23,1.19-.23.21,0,.31-.04.31-.19s-.14-.19-.35-.19c-.64,0-1.77.06-2.41.06-.56,0-1.69-.06-2.12-.06-.23,0-.33.04-.33.19,0,.12.08.16.27.21.21.04.29.19.29.41,0,.35-.45.87-1.03,1.54-.6.7-3.6,3.77-4.31,4.53h-.1v-.91Z"/>
          <path class="cls-1" d="M265.52,75.76c0,2,0,3.63-.1,4.49-.06.6-.19.95-.6,1.03-.19.04-.43.08-.74.08-.25,0-.33.06-.33.16,0,.14.14.21.41.21.82,0,2.12-.06,2.6-.06.56,0,1.85.06,3.21.06.23,0,.39-.06.39-.21,0-.1-.1-.16-.33-.16-.31,0-.76-.04-1.05-.08-.62-.08-.76-.45-.82-1.01-.08-.89-.08-2.51-.08-4.51v-3.63c0-3.13,0-3.71.04-4.37.04-.72.21-1.07.76-1.17.25-.04.41-.06.62-.06s.33-.04.33-.21c0-.12-.16-.16-.43-.16-.78,0-2,.06-2.51.06-.6,0-1.9-.06-2.68-.06-.33,0-.49.04-.49.16,0,.16.12.21.33.21.25,0,.51.02.74.08.45.1.66.45.7,1.15.04.66.04,1.24.04,4.37v3.63Z"/>
        </g>
        <g>
          <path class="cls-1" d="M86.4,48.12c0,2.99.78,4.51,1.83,5.46,1.5,1.36,3.48,1.42,4.57,1.42,1.34,0,2.82-.23,4.28-1.48,1.73-1.48,1.96-3.91,1.96-6.2v-2.2c0-3.13,0-3.71.04-4.37.04-.72.21-1.07.76-1.17.25-.04.37-.06.6-.06.25,0,.37-.04.37-.19s-.14-.19-.43-.19c-.8,0-2.1.06-2.35.06-.02,0-1.32-.06-2.37-.06-.29,0-.43.04-.43.19s.12.19.35.19.58.02.74.06c.68.14.84.47.89,1.17.04.66.04,1.24.04,4.37v2.57c0,2.12-.06,3.98-1.19,5.11-.82.82-1.94,1.11-2.84,1.11-.7,0-1.65-.08-2.57-.84-1.01-.82-1.61-2.08-1.61-5.07v-2.88c0-3.13,0-3.71.04-4.37.04-.72.21-1.07.76-1.17.25-.04.37-.06.6-.06.21,0,.33-.04.33-.19s-.14-.19-.45-.19c-.74,0-2.04.06-2.53.06-.62,0-1.92-.06-3.01-.06-.31,0-.45.04-.45.19s.12.19.35.19c.29,0,.64.02.8.06.68.14.84.47.89,1.17.04.66.04,1.24.04,4.37v3.01Z"/>
          <path class="cls-1" d="M107.93,43.26h.06c.37.39,2.66,2.97,4.9,5.19,2.14,2.12,4.78,4.82,6.08,6.06.23.23.47.45.7.45.19,0,.27-.19.27-.64l.23-13c.02-1.15.19-1.59.76-1.75.25-.06.41-.06.62-.06.25,0,.37-.06.37-.19,0-.16-.21-.19-.47-.19-1.01,0-1.79.06-2.02.06-.43,0-1.42-.06-2.49-.06-.31,0-.54.02-.54.19,0,.12.08.19.33.19.29,0,.78,0,1.09.12.49.21.68.6.7,1.85l.21,9.25h-.1c-.35-.33-3.13-3.3-4.53-4.7-3.01-2.99-6.14-6.34-6.39-6.61-.35-.37-.54-.64-.76-.64-.21,0-.27.29-.27.7l-.19,12.19c-.02,1.79-.1,2.39-.64,2.55-.29.08-.66.1-.93.1-.21,0-.33.04-.33.16,0,.19.19.21.45.21,1.07,0,2.04-.06,2.22-.06.39,0,1.22.06,2.55.06.29,0,.47-.04.47-.21,0-.12-.12-.16-.35-.16-.33,0-.72-.02-1.07-.14-.41-.14-.68-.68-.72-2.29l-.23-8.65Z"/>
          <path class="cls-1" d="M128.68,48.74c0,2,0,3.63-.1,4.49-.06.6-.19.95-.6,1.03-.19.04-.43.08-.74.08-.25,0-.33.06-.33.16,0,.14.14.21.41.21.82,0,2.12-.06,2.6-.06.56,0,1.85.06,3.21.06.23,0,.39-.06.39-.21,0-.1-.1-.16-.33-.16-.31,0-.76-.04-1.05-.08-.62-.08-.76-.45-.82-1.01-.08-.89-.08-2.51-.08-4.51v-3.63c0-3.13,0-3.71.04-4.37.04-.72.21-1.07.76-1.17.25-.04.41-.06.62-.06s.33-.04.33-.21c0-.12-.16-.16-.43-.16-.78,0-2,.06-2.51.06-.6,0-1.9-.06-2.68-.06-.33,0-.49.04-.49.16,0,.16.12.21.33.21.25,0,.51.02.74.08.45.1.66.45.7,1.15.04.66.04,1.24.04,4.37v3.63Z"/>
          <path class="cls-1" d="M142.69,54.24c.16.54.27.76.47.76.25,0,.35-.25.74-1.09.89-1.9,3.63-9.19,4.02-10.24h.04l4.28,10.32c.31.76.43,1.01.64,1.01.27,0,.37-.25.6-.97,1.01-3.09,3.17-9.64,4.12-12.24.43-1.17.66-2,1.15-2.18.23-.08.51-.1.72-.1.19,0,.29-.06.29-.21,0-.12-.14-.16-.37-.16-.68,0-1.57.06-1.71.06-.19,0-1.05-.06-2.14-.06-.31,0-.47.04-.47.19,0,.12.14.19.35.19.8,0,.99.29.99.62,0,.29-.06.72-.21,1.19-.72,2.41-2.37,7.85-2.74,9.23h-.06l-4.28-10.36c-.27-.66-.37-.97-.6-.97-.16,0-.29.16-.51.74l-4,10.73h-.06c-.37-1.15-2.29-7.4-2.64-8.75-.25-.93-.45-1.63-.45-1.9,0-.23.04-.37.23-.45.14-.08.35-.08.52-.08.21,0,.37-.02.37-.19,0-.12-.14-.19-.43-.19-1.19,0-2.1.06-2.29.06s-1.32-.06-2.39-.06c-.29,0-.45.04-.45.19,0,.16.12.19.33.19.19,0,.6.04.82.19.29.21.51.7.76,1.46l4.37,13.08Z"/>
          <path class="cls-1" d="M164.68,48.74c0,1.9,0,3.52-.1,4.39-.08.6-.19,1.05-.6,1.13-.19.04-.43.08-.74.08-.25,0-.33.06-.33.16,0,.14.14.21.41.21.82,0,2.12-.06,2.6-.06,1.22,0,2.6.12,5.71.12.78,0,.97,0,1.11-.54.1-.41.27-1.81.27-2.29,0-.21,0-.37-.16-.37-.14,0-.19.08-.23.31-.14.84-.39,1.28-.93,1.52-.54.25-1.4.25-1.94.25-2.1,0-2.43-.31-2.47-1.73-.02-.6,0-2.49,0-3.19v-1.63c0-.12.02-.21.12-.21.49,0,2.53.02,2.93.06.76.08,1.05.39,1.15.8.06.27.06.54.08.74,0,.1.04.19.19.19.19,0,.19-.23.19-.39,0-.14.04-.97.08-1.38.06-1.05.16-1.38.16-1.5s-.06-.16-.14-.16c-.1,0-.19.1-.33.27-.19.21-.49.27-.99.31-.47.04-2.84.04-3.3.04-.12,0-.14-.08-.14-.23v-5.21c0-.14.04-.21.14-.21.41,0,2.57.04,2.93.08,1.03.12,1.24.37,1.38.74.1.25.12.6.12.74,0,.19.04.29.19.29s.19-.12.21-.23c.04-.25.08-1.15.1-1.36.06-.95.16-1.19.16-1.34,0-.1-.02-.19-.12-.19s-.23.06-.33.08c-.16.04-.49.08-.89.12-.39.02-4.49.02-5.15.02-.58,0-1.87-.06-2.97-.06-.31,0-.45.04-.45.19s.12.19.35.19c.29,0,.64.02.8.06.68.14.84.47.89,1.17.04.66.04,1.24.04,4.37v3.63Z"/>
          <path class="cls-1" d="M179.87,48.74c0,1.9,0,3.52-.1,4.39-.08.6-.19,1.05-.6,1.13-.19.04-.43.08-.74.08-.25,0-.33.06-.33.16,0,.14.14.21.41.21.82,0,2.12-.06,2.51-.06.31,0,1.83.06,3.03.06.27,0,.41-.06.41-.21,0-.1-.08-.16-.25-.16-.25,0-.7-.04-1.01-.08-.62-.08-.74-.54-.8-1.13-.1-.87-.1-2.49-.1-4.41v-.29c0-.12.06-.16.16-.16l1.79.04c.14,0,.27.02.37.14.27.31,1.22,1.71,2.04,2.84,1.15,1.59,1.94,2.55,2.82,3.03.54.29,1.05.39,2.2.39h1.96c.25,0,.39-.04.39-.21,0-.1-.08-.16-.25-.16s-.35-.02-.58-.06c-.31-.06-1.15-.21-2.31-1.4-1.22-1.28-2.64-3.11-4.47-5.42,2.08-1.69,2.72-3.09,2.72-4.61,0-1.38-.82-2.43-1.4-2.82-1.11-.76-2.49-.89-3.79-.89-.64,0-2.2.06-2.9.06-.43,0-1.73-.06-2.82-.06-.31,0-.45.04-.45.19s.12.19.35.19c.29,0,.64.02.8.06.68.14.84.47.89,1.17.04.66.04,1.24.04,4.37v3.63ZM182.3,40.48c0-.16.04-.25.19-.29.21-.06.58-.08,1.09-.08,1.22,0,3.15.84,3.15,3.77,0,1.69-.6,2.64-1.22,3.09-.37.27-.64.35-1.46.35-.51,0-1.13-.06-1.57-.21-.14-.06-.19-.14-.19-.37v-6.26Z"/>
          <path class="cls-1" d="M199.46,55c1.09,0,2.25-.19,3.28-.84,1.48-.97,1.94-2.39,1.94-3.58,0-1.96-.91-3.34-3.38-5.25l-.58-.43c-1.71-1.3-2.18-2.02-2.18-2.97,0-1.24.93-2.12,2.45-2.12,1.34,0,1.94.62,2.25,1.01.43.54.54,1.17.54,1.36,0,.25.06.37.21.37.16,0,.23-.16.23-.62,0-1.61.08-2.2.08-2.47,0-.14-.1-.21-.29-.25-.54-.14-1.4-.35-2.74-.35-2.86,0-4.76,1.63-4.76,3.89,0,1.67.78,3.11,3.05,4.88l.95.74c1.71,1.32,2.02,2.29,2.02,3.3,0,1.09-.91,2.35-2.76,2.35-1.28,0-2.49-.56-2.95-2.08-.1-.35-.19-.78-.19-1.05,0-.16-.02-.35-.21-.35-.16,0-.23.23-.25.54-.02.33-.1,1.57-.1,2.7,0,.45.06.56.39.7.89.39,1.81.54,3.01.54Z"/>
          <path class="cls-1" d="M214.05,51.07c0,.33,0,1.19-.06,2.06-.04.6-.23,1.05-.64,1.13-.19.04-.43.08-.72.08-.23,0-.33.06-.33.16,0,.16.16.21.45.21.76,0,2.06-.06,2.57-.06.56,0,1.85.06,3.15.06.27,0,.43-.06.43-.21,0-.1-.1-.16-.33-.16-.29,0-.74-.04-1.03-.08-.62-.08-.8-.54-.84-1.13-.06-.87-.06-1.73-.06-2.06v-1.69c0-.68,0-1.32.31-2.06.37-.89,3.25-5.73,3.93-6.55.45-.56.68-.8,1.11-1.01.31-.16.7-.25.91-.25.23,0,.39-.06.39-.21,0-.12-.14-.16-.37-.16-.39,0-1.75.06-2.2.06-.6,0-1.26-.06-1.94-.06-.25,0-.35.04-.35.19,0,.12.19.16.37.21.35.08.43.31.43.51,0,.27-.08.62-.29,1.07-.29.64-2.88,5.17-3.09,5.66-.33-.58-3.21-5.54-3.5-6.16-.14-.29-.25-.54-.25-.7s.1-.33.29-.37c.31-.08.45-.1.45-.23s-.1-.19-.31-.19c-.93,0-1.77.06-2.2.06-.68,0-2.22-.06-2.6-.06-.25,0-.39.06-.39.19,0,.14.14.19.31.19.25,0,.6.12.87.27.39.23.91.74,1.42,1.5.72,1.07,3.48,5.6,3.63,5.93.27.6.47,1.05.47,2.16v1.69Z"/>
          <path class="cls-1" d="M230.45,48.74c0,1.9,0,3.52-.1,4.39-.06.6-.19,1.05-.6,1.13-.19.04-.43.08-.74.08-.25,0-.33.06-.33.16,0,.14.14.21.41.21.82,0,2.12-.06,2.6-.06.58,0,1.87.06,3.23.06.23,0,.39-.06.39-.21,0-.1-.1-.16-.33-.16-.31,0-.76-.04-1.05-.08-.62-.08-.74-.54-.8-1.11-.1-.89-.1-2.51-.1-4.41v-8.45l2.6.06c1.83.04,2.39.62,2.43,1.15l.02.23c.02.31.06.41.23.41.12,0,.16-.12.19-.33,0-.54.06-1.96.06-2.39,0-.31-.02-.43-.16-.43-.16,0-.66.21-1.98.21h-8.16c-.68,0-1.46-.04-2.06-.1-.51-.04-.72-.25-.89-.25-.12,0-.19.12-.25.39-.04.16-.43,2.04-.43,2.37,0,.23.04.33.19.33.12,0,.19-.08.23-.25.04-.16.14-.41.35-.72.31-.45.8-.56,2-.6l3.07-.08v8.45Z"/>
          <path class="cls-1" d="M244.51,48.74c0,1.9,0,3.52-.1,4.39-.08.6-.19,1.05-.6,1.13-.19.04-.43.08-.74.08-.25,0-.33.06-.33.16,0,.14.14.21.41.21.82,0,2.12-.06,2.6-.06,1.22,0,2.6.12,5.71.12.78,0,.97,0,1.11-.54.1-.41.27-1.81.27-2.29,0-.21,0-.37-.16-.37-.14,0-.19.08-.23.31-.14.84-.39,1.28-.93,1.52s-1.4.25-1.94.25c-2.1,0-2.43-.31-2.47-1.73-.02-.6,0-2.49,0-3.19v-1.63c0-.12.02-.21.12-.21.49,0,2.53.02,2.93.06.76.08,1.05.39,1.15.8.06.27.06.54.08.74,0,.1.04.19.19.19.19,0,.19-.23.19-.39,0-.14.04-.97.08-1.38.06-1.05.16-1.38.16-1.5s-.06-.16-.14-.16c-.1,0-.19.1-.33.27-.19.21-.49.27-.99.31-.47.04-2.84.04-3.3.04-.12,0-.14-.08-.14-.23v-5.21c0-.14.04-.21.14-.21.41,0,2.57.04,2.93.08,1.03.12,1.24.37,1.38.74.1.25.12.6.12.74,0,.19.04.29.19.29s.19-.12.21-.23c.04-.25.08-1.15.1-1.36.06-.95.16-1.19.16-1.34,0-.1-.02-.19-.12-.19s-.23.06-.33.08c-.16.04-.49.08-.89.12-.39.02-4.49.02-5.15.02-.58,0-1.87-.06-2.97-.06-.31,0-.45.04-.45.19s.12.19.35.19c.29,0,.64.02.8.06.68.14.84.47.89,1.17.04.66.04,1.24.04,4.37v3.63Z"/>
          <path class="cls-1" d="M262.43,48.74c0,1.9,0,3.52-.1,4.39-.06.6-.19,1.05-.6,1.13-.19.04-.43.08-.74.08-.25,0-.33.06-.33.16,0,.14.14.21.41.21.82,0,2.12-.06,2.6-.06.58,0,1.87.06,3.23.06.23,0,.39-.06.39-.21,0-.1-.1-.16-.33-.16-.31,0-.76-.04-1.05-.08-.62-.08-.74-.54-.8-1.11-.1-.89-.1-2.51-.1-4.41v-8.45l2.6.06c1.83.04,2.39.62,2.43,1.15l.02.23c.02.31.06.41.23.41.12,0,.16-.12.19-.33,0-.54.06-1.96.06-2.39,0-.31-.02-.43-.16-.43-.16,0-.66.21-1.98.21h-8.16c-.68,0-1.46-.04-2.06-.1-.51-.04-.72-.25-.89-.25-.12,0-.19.12-.25.39-.04.16-.43,2.04-.43,2.37,0,.23.04.33.19.33.12,0,.19-.08.23-.25.04-.16.14-.41.35-.72.31-.45.8-.56,2-.6l3.07-.08v8.45Z"/>
        </g>
      </g>
    </g>
  </g>
</svg>