<svg width="323" height="228" xmlns="http://www.w3.org/2000/svg" style="background:#fff"><g fill-rule="nonzero" fill="none"><path d="M298.995 58.698c38.39.807-27.728.256-9.737 1.82 10.062 1.229 31.767 1.129 32.473 6.11.086.723-3.207 2.495-3.919 2.65-4.56.996-19.297 1.827-22.661 2.067-50.442 2.156-92.057 1.683-142.406-2.521-9.839-3.275-8.145-7.368-3.305-7.2 50.65-4.102 98.819-5.144 149.555-2.926zm-65.835 49.846c15.163-.308 26.16-.289 41.318-.215 13.597.313 17.164.258 29.79.992 2.196.128 10.28.246 13.146 1.59 9.85 4.188-1.393 7.626-1.923 7.49-3.58 1.351-10.756 1.408-13.962 1.589-12.955.731-16.366.674-30.3.992-29.887.146-55.13-.656-84.926-3.301-7.432-2.57-3.03-7 1.43-6.862 63.162 3.332-27.047-.8 45.427-2.275zM106.183 214.161c39.068-3.008 59.857-3.96 99.025-4.115 12.474-.05 30.912.12 43.385.18 19.923.506 34.106.54 53.354 2.044 11.508.9-59.658-1.48 13.962 2.662.56.143 16.134 3.45-2.032 7.912-35.333 3.234-3.23 1.752-15.329 2.661-19.92 1.497-33.714 1.526-54.403 2.044-50.983.244-89.528.142-140.389-3.935-2.7-.217-6.603-.375-7.407-2.888-.825-2.576.566-4.61 2.39-5.298 2.681-1.013 4.596-1.047 7.444-1.267zM111.277 6.75c9.818-.734 25.427.212 32.282-.05 25.882-.99 41.91-1.51 67.896-1.583 12.343-.034 25.878.182 38.221.273 21.133.591 32.5-1.243 52.572.114 4.337.293 8.669.25 12.986.761 0 0 3.008 1.061 6.469 6.12-.22.489-5.88-1.355-5.66-1.844.854 1.841 3.54 3.745 2.563 5.524-.999 1.82-4.082.77-6.145 1-22.262 2.481-44.727 2.478-67.081 3.212-12.39.091-25.971.307-38.36.272-25.728-.07-41.47-.583-67.085-1.582-6.555-.255-21.672-1.647-31.182-2.387-3.155-.246-8.589-.816-11.735-2.372-4.198-5.005 3.745-6.578 4.296-6.436 3.321-.34 6.634-.773 9.963-1.022zm47.485 153.929c23.055-5.478 64.825-.696 107.088-.494 14.846.435 28.936-1.932 43.66-.707 10.523.143 16.6 6.21 8.314 9.857-7.858 1.89-4.271 1.013-11.423 2.25-15.279 1.22-29.094 1.368-44.591 1.814-45.533.218-71.216-.639-116.6-4.784-8.522-4.194 1.178-7.118 1.728-6.977 3.94-.348-11.232 4.519 11.824-.96v.001z" fill="#F6A623"/><path d="M109.936 70.947c12.342 11.023 25.304 24.379 35.964 36.496 1.089 1.238 2.222 2.463 3.07 3.876.381.638.4 1.433.549 2.16.509 2.49-1.59 2.794-2.923 3.295-1.333.502-2.491.011-4.264-.684-1.773-.695-4.112-2.196-4.112-2.196-.307.506-9.118 13.004-11.549 15.677a414.282 414.282 0 01-16.735 17.393c-20.308 19.876-19.963 20.462-41.96 39.268-18.396 14.395-25.578 20.721-44.141 32.92-4.148 2.725-14.162 7.45-14.162 7.45-8.195 1.717-13.106.671-6.086-7.699 18.29-13.785 37.305-32.088 52.775-44.839 42.855-35.002 4.049-4.55 45.011-37.954 6.192-5.049 10.44-8.51 16.563-13.64 3.472-2.91 6.529-5.66 9.918-8.666 1.31-1.163 2.425-2.573 3.885-3.541.277-.184.625 2.255.937 2.37.934-.845 1.563-1.629 1.563-1.629s-1.955-1.257-4.24-3.063c-12.802-10.12-16.447-13.54-29.7-24.954C72.544 58.299 45.39 33.03 20.989 4.944c-.686-5.169.686-5.202 5.674-4.55C55.091 23.503 82.888 45.9 109.936 70.947z" fill="#5E5C5C"/></g></svg>