<svg xmlns="http://www.w3.org/2000/svg" viewBox="0 0 301.85 129.42">
    <defs>
    <style>.cls-1{fill:#bbb;}.cls-2{fill:#b6b7b9;}</style>
    </defs>
    <title>Zasób 7</title>
    <g id="Warstwa_2" >
    <g id="Warstwa_1-2">
        <path class="cls-1" d="M115,104.25H115A10.73,10.73,0,0,1,104.26,115l0,.06h-36V115a10.72,10.72,0,0,1-10.73-10.72l-.06,0V43.14h0V18a18,18,0,0,0-18-18H18A18,18,0,0,0,0,18V39.55a18,18,0,0,0,18,18H36V43.14H18a3.59,3.59,0,0,1-3.59-3.59V18A3.59,3.59,0,0,1,18,14.38H39.55A3.59,3.59,0,0,1,43.14,18V86.28h0v18a25.16,25.16,0,0,0,25.17,25.16h36a25.15,25.15,0,0,0,25.16-25.16v-36a25.16,25.16,0,0,0-25.16-25.16H64.71V57.52h39.54v.06A10.73,10.73,0,0,1,115,68.31l.05-.06Z"/><polygon class="cls-2" points="25.52 43.18 35.93 43.18 35.93 57.38 25.52 43.18"/><polygon class="cls-2" points="75.09 57.56 64.71 57.56 64.71 43.42 75.09 57.56"/></g><g id="Warstwa_2-2" data-name="Warstwa 2"><path class="cls-1" d="M270.25,57.55l1.29-11.08,1.2,11.08Zm5.64-13.8h-8.75l-3.51,23.5h5.48l.65-5.77h3.47l.65,5.77h5.6Zm-17.21,0H253.2v23.5h5.48Zm-11.61,0h-5l.33,18.57-4.25-18.57h-7.71v23.5h5l-.35-19.1,4.31,19.1h7.68ZM226.1,63h-5.19V43.75h-5.47v23.5H226.1Zm-15.88,0H204.9V57.2h4.57V53.15H204.9V48h4.86V43.75H199.42v23.5h10.8Zm-15.95,0H188l6.32-15.56V43.75H183V48h5.61L182.37,63v4.22h11.9ZM178,58.46h-5v3.21a2.36,2.36,0,0,1-.26,1.3c-.17.24-.54.35-1.1.35s-1-.11-1.1-.35a2.52,2.52,0,0,1-.23-1.3V49.31a3.27,3.27,0,0,1,.13-1.13c.15-.35.55-.52,1.2-.52a1.36,1.36,0,0,1,1.08.34,2.15,2.15,0,0,1,.28,1.31v2.36h5V50.06q0-3.86-1.1-5.21a3.49,3.49,0,0,0-2-1.17,16,16,0,0,0-3.14-.23,19.65,19.65,0,0,0-3.54.23,4.11,4.11,0,0,0-2.3,1.17,4.47,4.47,0,0,0-1.07,2.2,17,17,0,0,0-.19,3V60.93a16.89,16.89,0,0,0,.19,3,4.39,4.39,0,0,0,1,2.2,4.26,4.26,0,0,0,2.4,1.24,26.1,26.1,0,0,0,3.47.16,16.28,16.28,0,0,0,3.08-.2,3.28,3.28,0,0,0,2-1.17,5,5,0,0,0,.94-2.26,20.08,20.08,0,0,0,.16-3Zm-19-14.71h-5.25V61.64a2.36,2.36,0,0,1-.26,1.3c-.17.23-.57.35-1.2.35a1.59,1.59,0,0,1-1.07-.26c-.26-.19-.39-.66-.39-1.39V43.75h-5.48V59.66a29.14,29.14,0,0,0,.16,3.53,5.76,5.76,0,0,0,1,2.66,4.13,4.13,0,0,0,2.56,1.46,15.09,15.09,0,0,0,3,.23,15.44,15.44,0,0,0,3.05-.23,4.09,4.09,0,0,0,2.53-1.43,5.92,5.92,0,0,0,1.06-2.65,23.59,23.59,0,0,0,.2-3.57Z"/>
    <path class="cls-1" d="M292.34,91.46l1.29-11.09,1.2,11.09ZM298,77.65h-8.75l-3.5,23.5h5.47l.65-5.77h3.47l.65,5.77h5.61ZM281.8,96.94h-6.32l6.32-15.56V77.65H270.49v4.21h5.61l-6.19,15.08v4.21H281.8Zm-16.23-4.57h-5v3.2a2.28,2.28,0,0,1-.26,1.3,1.3,1.3,0,0,1-1.1.36c-.58,0-.95-.12-1.1-.36a2.58,2.58,0,0,1-.23-1.29V83.22a3.66,3.66,0,0,1,.13-1.14q.23-.51,1.2-.51a1.37,1.37,0,0,1,1.09.34,2.22,2.22,0,0,1,.27,1.31v2.36h5V84c0-2.57-.37-4.3-1.11-5.21a3.48,3.48,0,0,0-2-1.17,16.27,16.27,0,0,0-3.15-.22,19.67,19.67,0,0,0-3.53.22,4.14,4.14,0,0,0-2.3,1.17A4.42,4.42,0,0,0,252.44,81a16.6,16.6,0,0,0-.2,3V94.83a16.6,16.6,0,0,0,.2,3,4.42,4.42,0,0,0,1,2.21,4.32,4.32,0,0,0,2.4,1.23,24.54,24.54,0,0,0,3.47.16,16.45,16.45,0,0,0,3.08-.19,3.28,3.28,0,0,0,2-1.18,4.88,4.88,0,0,0,.94-2.25,19.87,19.87,0,0,0,.17-3ZM242.65,77.65,241.19,97.2,239,77.65h-7.33L229.52,97.2l-1.46-19.55h-5.31l2.79,23.5h7.71l2.11-19.8,2.14,19.8h7.71L248,77.65ZM209.89,91.46l1.3-11.09,1.2,11.09Zm5.64-13.81h-8.75l-3.5,23.5h5.48l.65-5.77h3.47l.65,5.77h5.6Zm-22.72,19a1.71,1.71,0,0,1-1.13.28h-1.46V81.86h1.46a1.84,1.84,0,0,1,1.07.23,1.76,1.76,0,0,1,.39,1.36V95.38c0,.69-.11,1.13-.33,1.31m6-11.75c0-2.85-.49-4.78-1.45-5.78s-2.84-1.51-5.65-1.51h-6.94v23.5h6.94q4.22,0,5.65-1.51c1-1,1.45-2.93,1.45-5.78Zm-28.07,6.52L172,80.37l1.2,11.09Zm5.64-13.81h-8.76l-3.5,23.5h5.48l.65-5.77h3.47l.65,5.77h5.6Zm-22.53,19a1.93,1.93,0,0,1-1.33.34h-1.65V90.91h1.65a1.89,1.89,0,0,1,1.34.35,2,2,0,0,1,.35,1.36v2.73a1.84,1.84,0,0,1-.36,1.34m-.13-9.75a2,2,0,0,1-1.33.34h-1.52V81.8h1.52a1.93,1.93,0,0,1,1.33.34,1.85,1.85,0,0,1,.36,1.34v2.11a1.88,1.88,0,0,1-.36,1.35m6,6.66c0-3-1.3-4.57-3.92-4.7a4.85,4.85,0,0,0,2.87-1.33,4.37,4.37,0,0,0,.86-2.95v-2q0-3-1.56-4-1.35-.91-5.15-.91h-7.33v23.5H153c2.52,0,4.24-.3,5.14-.91s1.52-2,1.52-4Z"/><path class="cls-1" d="M301.85,118h-1.11v11.16h1.11Zm-3.15.62a2.73,2.73,0,0,0-2.18-.76h-.58a2.58,2.58,0,0,0-2.23.91,4.93,4.93,0,0,0-.67,2.88v4.14a4.93,4.93,0,0,0,.48,2.54,2.35,2.35,0,0,0,2.12,1h1.08c1.75,0,2.62-1.08,2.62-3.22,0-.29,0-.51,0-.66h-1.17v.27a4.73,4.73,0,0,1-.27,2c-.21.34-.67.52-1.39.52h-.6c-.74,0-1.21-.2-1.42-.59a5.8,5.8,0,0,1-.26-2.22v-3.76a4.56,4.56,0,0,1,.31-2.06,1.43,1.43,0,0,1,1.37-.62h.6a1.48,1.48,0,0,1,1.34.57,4.06,4.06,0,0,1,.32,1.92v.14h1.19c0-.12,0-.3,0-.52a3.76,3.76,0,0,0-.65-2.46m-7.2,6.66a2,2,0,0,0-.66-1.69,5.23,5.23,0,0,0-2.23-.71c-.95-.16-1.47-.25-1.57-.29a.91.91,0,0,1-.52-.94v-1.2a1.72,1.72,0,0,1,.3-1.16,1.52,1.52,0,0,1,1.11-.32h.91a1.54,1.54,0,0,1,1.19.37,2.1,2.1,0,0,1,.32,1.34v.37h1.15v-.33a3.2,3.2,0,0,0-.61-2.2,2.76,2.76,0,0,0-2.08-.66H288c-1.78,0-2.66.81-2.66,2.42v1.39a2,2,0,0,0,.84,1.88,2.2,2.2,0,0,0,.62.21c.13,0,.43.09.91.17l1.63.3a1.15,1.15,0,0,1,.8.51,2.43,2.43,0,0,1,.17,1v.95a1.76,1.76,0,0,1-.3,1.18,1.53,1.53,0,0,1-1.12.32h-1.09a1.53,1.53,0,0,1-1.19-.38,2.08,2.08,0,0,1-.33-1.35v-.93h-1.16v.57a4,4,0,0,0,.54,2.44,2.68,2.68,0,0,0,2.17.73h1c1.78,0,2.66-.81,2.66-2.42ZM289,114.51l-1.37,2.54h1l1.72-2.54Zm-6.78,13.13a1.66,1.66,0,0,1-1.5.6H280a1.59,1.59,0,0,1-1.48-.6,4.18,4.18,0,0,1-.36-2.08v-3.89a4.27,4.27,0,0,1,.36-2.1A1.6,1.6,0,0,1,280,119h.67a1.66,1.66,0,0,1,1.5.6,4.48,4.48,0,0,1,.33,2.08v3.89a4.51,4.51,0,0,1-.33,2.08m1.53-6a4.93,4.93,0,0,0-.66-2.88,2.58,2.58,0,0,0-2.23-.91h-.95a2.58,2.58,0,0,0-2.23.91,4.93,4.93,0,0,0-.67,2.88v3.88a4.69,4.69,0,0,0,.67,2.84,2.56,2.56,0,0,0,2.23.93h.95a2.56,2.56,0,0,0,2.23-.93,4.77,4.77,0,0,0,.66-2.84Zm-7.48,6.43h-3.32v-4.74l1.37-1v-.86l-1.37.93V118H271.8v5l-.58.4v.84l.58-.37v5.27h4.43Zm-10.78-2.35,1.72-6.22,1.58,6.22Zm2.4-7.73h-1.3l-3.2,11.16h1.11l.69-2.4H269l.63,2.4h1.2Zm-5.41,0h-1.07v9.91L257.23,118h-1.64v11.16h1.08v-9.74l4.08,9.74h1.69Zm-10.12,9.62a1.66,1.66,0,0,1-1.5.6h-.67a1.6,1.6,0,0,1-1.48-.6,4.18,4.18,0,0,1-.36-2.08v-3.89a4.27,4.27,0,0,1,.36-2.1,1.61,1.61,0,0,1,1.48-.58h.67a1.66,1.66,0,0,1,1.5.6,4.45,4.45,0,0,1,.34,2.08v3.89a4.48,4.48,0,0,1-.34,2.08m1.54-6a4.93,4.93,0,0,0-.67-2.88,2.58,2.58,0,0,0-2.23-.91h-1a2.58,2.58,0,0,0-2.23.91,4.93,4.93,0,0,0-.67,2.88v3.88a4.69,4.69,0,0,0,.67,2.84,2.56,2.56,0,0,0,2.23.93h1a2.56,2.56,0,0,0,2.23-.93,4.76,4.76,0,0,0,.67-2.84Zm-11.66,1.64,3.94-5.29h-1.23l-3.57,4.8h-.57V118h-1.11v11.16h1.11v-5.3h.48l4,5.3h1.38Zm-4.18,2a2,2,0,0,0-.66-1.69,5.28,5.28,0,0,0-2.24-.71c-.94-.16-1.46-.25-1.57-.29a.92.92,0,0,1-.52-.94v-1.2a1.72,1.72,0,0,1,.3-1.16,1.53,1.53,0,0,1,1.12-.32h.9a1.53,1.53,0,0,1,1.19.37,2,2,0,0,1,.32,1.34v.37H238v-.33a3.2,3.2,0,0,0-.62-2.2,2.74,2.74,0,0,0-2.08-.66h-.8c-1.77,0-2.66.81-2.66,2.42v1.39a2,2,0,0,0,.85,1.88,2.12,2.12,0,0,0,.61.21c.14,0,.44.09.91.17,1,.17,1.52.27,1.63.3a1.15,1.15,0,0,1,.8.51,2.28,2.28,0,0,1,.17,1v.95a1.76,1.76,0,0,1-.3,1.18,1.52,1.52,0,0,1-1.11.32h-1.1a1.54,1.54,0,0,1-1.19-.38,2.08,2.08,0,0,1-.33-1.35v-.93h-1.15v.57a4.13,4.13,0,0,0,.53,2.44,2.69,2.69,0,0,0,2.17.73h1c1.78,0,2.67-.81,2.67-2.42Zm-9.33,2.34a1.63,1.63,0,0,1-1.49.6h-.68a1.61,1.61,0,0,1-1.48-.6,4.32,4.32,0,0,1-.35-2.08v-3.89a4.27,4.27,0,0,1,.36-2.1,1.6,1.6,0,0,1,1.47-.58h.68a1.63,1.63,0,0,1,1.49.6,4.32,4.32,0,0,1,.34,2.08v3.89a4.35,4.35,0,0,1-.34,2.08m1.54-6a4.85,4.85,0,0,0-.67-2.88,2.57,2.57,0,0,0-2.22-.91h-1a2.56,2.56,0,0,0-2.22.91,4.85,4.85,0,0,0-.67,2.88v3.88a4.77,4.77,0,0,0,.66,2.84,2.58,2.58,0,0,0,2.23.93h1a2.58,2.58,0,0,0,2.23-.93,4.77,4.77,0,0,0,.66-2.84Zm-10.08,5.85a3.17,3.17,0,0,1-2.37.63H216.3v-9.1h1.48a3.82,3.82,0,0,1,2.15.43,1.87,1.87,0,0,1,.66,1.2,6.94,6.94,0,0,1,.1,1.42v3a3.91,3.91,0,0,1-.54,2.42m1.71-5.45a4.61,4.61,0,0,0-.84-3.15,4.06,4.06,0,0,0-3-.9h-2.8v11.16H218a4.11,4.11,0,0,0,3-.89,4.6,4.6,0,0,0,.84-3.14ZM205,125.75l1.72-6.22,1.59,6.22Zm2.4-7.73h-1.29l-3.2,11.16H204l.7-2.4h3.88l.63,2.4h1.2Zm-4.89,0-2.07,9.73-2-9.73h-1.11l-2.08,9.73-2-9.73H192.2l2.41,11.16h1.3l2-8.94,1.88,8.94h1.29L203.63,118Zm-11.46,0-2.24,5.39L186.56,118h-1.21l2.92,6.49v4.67h1.11v-4.67l2.8-6.49Zm-5.69,0H179.5v1.08h2.39v10.07H183V119.11h2.39Zm-10.68,7.72,1.72-6.22,1.59,6.22Zm2.4-7.73h-1.29l-3.21,11.16h1.11l.7-2.4h3.87l.64,2.4h1.2Zm-5.37,0h-1.11v8.28a2.57,2.57,0,0,1-.32,1.52,1.58,1.58,0,0,1-1.31.45,1.53,1.53,0,0,1-1.3-.45,2.68,2.68,0,0,1-.3-1.52v-.88h-1.11v1.3a2.76,2.76,0,0,0,.59,2,3.09,3.09,0,0,0,2.13.57,3.05,3.05,0,0,0,2.13-.57,2.72,2.72,0,0,0,.6-2Zm-6.72.62a2.73,2.73,0,0,0-2.18-.76h-.58a2.58,2.58,0,0,0-2.23.91,4.93,4.93,0,0,0-.67,2.88v4.14a4.93,4.93,0,0,0,.48,2.54,2.35,2.35,0,0,0,2.12,1H163c1.75,0,2.62-1.08,2.62-3.22,0-.29,0-.51,0-.66h-1.17v.27a4.73,4.73,0,0,1-.27,2c-.21.34-.67.52-1.39.52h-.6c-.74,0-1.21-.2-1.42-.59a5.8,5.8,0,0,1-.26-2.22v-3.76a4.56,4.56,0,0,1,.31-2.06,1.43,1.43,0,0,1,1.37-.62h.6a1.48,1.48,0,0,1,1.34.57,3.93,3.93,0,0,1,.32,1.92v.14h1.19c0-.12,0-.3,0-.52a3.76,3.76,0,0,0-.65-2.46m-7.44-.62h-1.11v11.16h1.11Zm-3,0H153.5v9.91L149.36,118h-1.63v11.16h1.08v-9.74l4.08,9.74h1.69Zm-8.74,0h-1.11v11.16h1.11Z"/></g></g></svg>