<svg xmlns="http://www.w3.org/2000/svg" style="display: none;">
    <symbol id="person-fill" fill="currentColor" viewBox="0 0 16 16">
        <path d="M3 14s-1 0-1-1 1-4 6-4 6 3 6 4-1 1-1 1zm5-6a3 3 0 1 0 0-6 3 3 0 0 0 0 6"/>
    </symbol>
    <symbol id="people-fill" fill="currentColor" viewBox="0 0 16 16">
        <path d="M7 14s-1 0-1-1 1-4 5-4 5 3 5 4-1 1-1 1zm4-6a3 3 0 1 0 0-6 3 3 0 0 0 0 6m-5.784 6A2.24 2.24 0 0 1 5 13c0-1.355.68-2.75 1.936-3.72A6.3 6.3 0 0 0 5 9c-4 0-5 3-5 4s1 1 1 1zM4.5 8a2.5 2.5 0 1 0 0-5 2.5 2.5 0 0 0 0 5"/>
    </symbol>
    <symbol id="globe-europe-africa-fill" fill="currentColor" viewBox="0 0 16 16">
        <path fill-rule="evenodd" d="M8 0a8 8 0 1 1 0 16A8 8 0 0 1 8 0m0 1a6.97 6.97 0 0 0-4.335 1.505l-.285.641a.847.847 0 0 0 1.48.816l.244-.368a.81.81 0 0 1 1.035-.275.81.81 0 0 0 .722 0l.262-.13a1 1 0 0 1 .775-.05l.984.34q.118.04.243.054c.784.093.855.377.694.801a.84.84 0 0 1-1.035.487l-.01-.003C8.273 4.663 7.747 4.5 6 4.5 4.8 4.5 3.5 5.62 3.5 7c0 3 1.935 1.89 3 3 1.146 1.194-1 4 2 4 1.75 0 3-3.5 3-4.5 0-.704 1.5-1 1-2.5-.097-.291-.396-.568-.642-.756-.173-.133-.206-.396-.051-.55a.334.334 0 0 1 .42-.043l1.085.724a.276.276 0 0 0 .348-.035c.15-.15.414-.083.488.117.16.428.445 1.046.847 1.354A7 7 0 0 0 8 1"/>
    </symbol>
    <symbol id="bookmark-star-fill" fill="currentColor" viewBox="0 0 16 16">
        <path fill-rule="evenodd" d="M2 15.5V2a2 2 0 0 1 2-2h8a2 2 0 0 1 2 2v13.5a.5.5 0 0 1-.74.439L8 13.069l-5.26 2.87A.5.5 0 0 1 2 15.5M8.16 4.1a.178.178 0 0 0-.32 0l-.634 1.285a.18.18 0 0 1-.134.098l-1.42.206a.178.178 0 0 0-.098.303L6.58 6.993c.042.041.061.1.051.158L6.39 8.565a.178.178 0 0 0 .258.187l1.27-.668a.18.18 0 0 1 .165 0l1.27.668a.178.178 0 0 0 .257-.187L9.368 7.15a.18.18 0 0 1 .05-.158l1.028-1.001a.178.178 0 0 0-.098-.303l-1.42-.206a.18.18 0 0 1-.134-.098z"/>
    </symbol>
    <symbol id="calendar2-day" fill="currentColor" viewBox="0 0 16 16">
        <path d="M4.684 12.523v-2.3h2.261v-.61H4.684V7.801h2.464v-.61H4v5.332zm3.296 0h.676V9.98c0-.554.227-1.007.953-1.007.125 0 .258.004.329.015v-.613a2 2 0 0 0-.254-.02c-.582 0-.891.32-1.012.567h-.02v-.504H7.98zm2.805-5.093c0 .238.192.425.43.425a.428.428 0 1 0 0-.855.426.426 0 0 0-.43.43m.094 5.093h.672V8.418h-.672z"/>
        <path d="M3.5 0a.5.5 0 0 1 .5.5V1h8V.5a.5.5 0 0 1 1 0V1h1a2 2 0 0 1 2 2v11a2 2 0 0 1-2 2H2a2 2 0 0 1-2-2V3a2 2 0 0 1 2-2h1V.5a.5.5 0 0 1 .5-.5M2 2a1 1 0 0 0-1 1v11a1 1 0 0 0 1 1h12a1 1 0 0 0 1-1V3a1 1 0 0 0-1-1z"/>
        <path d="M2.5 4a.5.5 0 0 1 .5-.5h10a.5.5 0 0 1 .5.5v1a.5.5 0 0 1-.5.5H3a.5.5 0 0 1-.5-.5z"/>
    </symbol>
    <symbol id="link-45deg" fill="currentColor" viewBox="0 0 16 16">
        <path d="M4.715 6.542 3.343 7.914a3 3 0 1 0 4.243 4.243l1.828-1.829A3 3 0 0 0 8.586 5.5L8 6.086a1 1 0 0 0-.154.199 2 2 0 0 1 .861 3.337L6.88 11.45a2 2 0 1 1-2.83-2.83l.793-.792a4 4 0 0 1-.128-1.287z"/>
        <path d="M6.586 4.672A3 3 0 0 0 7.414 9.5l.775-.776a2 2 0 0 1-.896-3.346L9.12 3.55a2 2 0 1 1 2.83 2.83l-.793.792c.112.42.155.855.128 1.287l1.372-1.372a3 3 0 1 0-4.243-4.243z"/>
    </symbol>
    <symbol fill="currentColor" id="translate" viewBox="0 0 16 16">
        <path d="M4.545 6.714 4.11 8H3l1.862-5h1.284L8 8H6.833l-.435-1.286zm1.634-.736L5.5 3.956h-.049l-.679 2.022z"/>
        <path d="M0 2a2 2 0 0 1 2-2h7a2 2 0 0 1 2 2v3h3a2 2 0 0 1 2 2v7a2 2 0 0 1-2 2H7a2 2 0 0 1-2-2v-3H2a2 2 0 0 1-2-2zm2-1a1 1 0 0 0-1 1v7a1 1 0 0 0 1 1h7a1 1 0 0 0 1-1V2a1 1 0 0 0-1-1zm7.138 9.995q.289.451.63.846c-.748.575-1.673 1.001-2.768 1.292.178.217.451.635.555.867 1.125-.359 2.08-.844 2.886-1.494.777.665 1.739 1.165 2.93 1.472.133-.254.414-.673.629-.89-1.125-.253-2.057-.694-2.82-1.284.681-.747 1.222-1.651 1.621-2.757H14V8h-3v1.047h.765c-.318.844-.74 1.546-1.272 2.13a6 6 0 0 1-.415-.492 2 2 0 0 1-.94.31"/>
    </symbol>
    <symbol fill="currentColor" id="strikethrough" viewBox="0 0 16 16">
  <path d="M6.333 5.686c0 .31.083.581.27.814H5.166a2.8 2.8 0 0 1-.099-.76c0-1.627 1.436-2.768 3.48-2.768 1.969 0 3.39 1.175 3.445 2.85h-1.23c-.11-1.08-.964-1.743-2.25-1.743-1.23 0-2.18.602-2.18 1.607zm2.194 7.478c-2.153 0-3.589-1.107-3.705-2.81h1.23c.144 1.06 1.129 1.703 2.544 1.703 1.34 0 2.31-.705 2.31-1.675 0-.827-.547-1.374-1.914-1.675L8.046 8.5H1v-1h14v1h-3.504c.468.437.675.994.675 1.697 0 1.826-1.436 2.967-3.644 2.967"/>
    </symbol>
    <symbol id="braces" fill="currentColor" viewBox="0 0 16 16">
        <path d="M2.114 8.063V7.9c1.005-.102 1.497-.615 1.497-1.6V4.503c0-1.094.39-1.538 1.354-1.538h.273V2h-.376C3.25 2 2.49 2.759 2.49 4.352v1.524c0 1.094-.376 1.456-1.49 1.456v1.299c1.114 0 1.49.362 1.49 1.456v1.524c0 1.593.759 2.352 2.372 2.352h.376v-.964h-.273c-.964 0-1.354-.444-1.354-1.538V9.663c0-.984-.492-1.497-1.497-1.6M13.886 7.9v.163c-1.005.103-1.497.616-1.497 1.6v1.798c0 1.094-.39 1.538-1.354 1.538h-.273v.964h.376c1.613 0 2.372-.759 2.372-2.352v-1.524c0-1.094.376-1.456 1.49-1.456V7.332c-1.114 0-1.49-.362-1.49-1.456V4.352C13.51 2.759 12.75 2 11.138 2h-.376v.964h.273c.964 0 1.354.444 1.354 1.538V6.3c0 .984.492 1.497 1.497 1.6"/>
    </symbol>
    <symbol id="chat-text" fill="currentColor" viewBox="0 0 16 16">
        <path d="M2.678 11.894a1 1 0 0 1 .287.801 11 11 0 0 1-.398 2c1.395-.323 2.247-.697 2.634-.893a1 1 0 0 1 .71-.074A8 8 0 0 0 8 14c3.996 0 7-2.807 7-6s-3.004-6-7-6-7 2.808-7 6c0 1.468.617 2.83 1.678 3.894m-.493 3.905a22 22 0 0 1-.713.129c-.2.032-.352-.176-.273-.362a10 10 0 0 0 .244-.637l.003-.01c.248-.72.45-1.548.524-2.319C.743 11.37 0 9.76 0 8c0-3.866 3.582-7 8-7s8 3.134 8 7-3.582 7-8 7a9 9 0 0 1-2.347-.306c-.52.263-1.639.742-3.468 1.105"/>
        <path d="M4 5.5a.5.5 0 0 1 .5-.5h7a.5.5 0 0 1 0 1h-7a.5.5 0 0 1-.5-.5M4 8a.5.5 0 0 1 .5-.5h7a.5.5 0 0 1 0 1h-7A.5.5 0 0 1 4 8m0 2.5a.5.5 0 0 1 .5-.5h4a.5.5 0 0 1 0 1h-4a.5.5 0 0 1-.5-.5"/>
    </symbol>
    <symbol id="type-bold" fill="currentColor" viewBox="0 0 16 16">
        <path d="M8.21 13c2.106 0 3.412-1.087 3.412-2.823 0-1.306-.984-2.283-2.324-2.386v-.055a2.176 2.176 0 0 0 1.852-2.14c0-1.51-1.162-2.46-3.014-2.46H3.843V13zM5.908 4.674h1.696c.963 0 1.517.451 1.517 1.244 0 .834-.629 1.32-1.73 1.32H5.908V4.673zm0 6.788V8.598h1.73c1.217 0 1.88.492 1.88 1.415 0 .943-.643 1.449-1.832 1.449H5.907z"/>
    </symbol>
    <symbol id="file-break" fill="currentColor" viewBox="0 0 16 16">
        <path d="M0 10.5a.5.5 0 0 1 .5-.5h15a.5.5 0 0 1 0 1H.5a.5.5 0 0 1-.5-.5M12 0H4a2 2 0 0 0-2 2v7h1V2a1 1 0 0 1 1-1h8a1 1 0 0 1 1 1v7h1V2a2 2 0 0 0-2-2m2 12h-1v2a1 1 0 0 1-1 1H4a1 1 0 0 1-1-1v-2H2v2a2 2 0 0 0 2 2h8a2 2 0 0 0 2-2z"/>
    </symbol>
    <symbol id="chat-dots" fill="currentColor" viewBox="0 0 16 16">
        <path d="M5 8a1 1 0 1 1-2 0 1 1 0 0 1 2 0m4 0a1 1 0 1 1-2 0 1 1 0 0 1 2 0m3 1a1 1 0 1 0 0-2 1 1 0 0 0 0 2"/>
        <path d="m2.165 15.803.02-.004c1.83-.363 2.948-.842 3.468-1.105A9 9 0 0 0 8 15c4.418 0 8-3.134 8-7s-3.582-7-8-7-8 3.134-8 7c0 1.76.743 3.37 1.97 4.6a10.4 10.4 0 0 1-.524 2.318l-.003.011a11 11 0 0 1-.244.637c-.079.186.074.394.273.362a22 22 0 0 0 .693-.125m.8-3.108a1 1 0 0 0-.287-.801C1.618 10.83 1 9.468 1 8c0-3.192 3.004-6 7-6s7 2.808 7 6-3.004 6-7 6a8 8 0 0 1-2.088-.272 1 1 0 0 0-.711.074c-.387.196-1.24.57-2.634.893a11 11 0 0 0 .398-2"/>
    </symbol>
    <symbol id="pencil-square" fill="currentColor" viewBox="0 0 16 16">
        <path d="M15.502 1.94a.5.5 0 0 1 0 .706L14.459 3.69l-2-2L13.502.646a.5.5 0 0 1 .707 0l1.293 1.293zm-1.75 2.456-2-2L4.939 9.21a.5.5 0 0 0-.121.196l-.805 2.414a.25.25 0 0 0 .316.316l2.414-.805a.5.5 0 0 0 .196-.12l6.813-6.814z"/>
        <path fill-rule="evenodd" d="M1 13.5A1.5 1.5 0 0 0 2.5 15h11a1.5 1.5 0 0 0 1.5-1.5v-6a.5.5 0 0 0-1 0v6a.5.5 0 0 1-.5.5h-11a.5.5 0 0 1-.5-.5v-11a.5.5 0 0 1 .5-.5H9a.5.5 0 0 0 0-1H2.5A1.5 1.5 0 0 0 1 2.5z"/>
    </symbol>
    <symbol id="search-heart" fill="currentColor" viewBox="0 0 16 16">
        <path d="M6.5 4.482c1.664-1.673 5.825 1.254 0 5.018-5.825-3.764-1.664-6.69 0-5.018"/>
        <path d="M13 6.5a6.47 6.47 0 0 1-1.258 3.844q.06.044.115.098l3.85 3.85a1 1 0 0 1-1.414 1.415l-3.85-3.85a1 1 0 0 1-.1-.115h.002A6.5 6.5 0 1 1 13 6.5M6.5 12a5.5 5.5 0 1 0 0-11 5.5 5.5 0 0 0 0 11"/>
    </symbol>
    <symbol id="arrow-clockwise" fill="currentColor" viewBox="0 0 16 16">
        <path fill-rule="evenodd" d="M8 3a5 5 0 1 0 4.546 2.914.5.5 0 0 1 .908-.417A6 6 0 1 1 8 2z"/>
        <path d="M8 4.466V.534a.25.25 0 0 1 .41-.192l2.36 1.966c.12.1.12.284 0 .384L8.41 4.658A.25.25 0 0 1 8 4.466"/>
    </symbol>
    <symbol id="floppy2-fill" fill="currentColor" viewBox="0 0 16 16">
        <path d="M12 2h-2v3h2z"/>
        <path d="M1.5 0A1.5 1.5 0 0 0 0 1.5v13A1.5 1.5 0 0 0 1.5 16h13a1.5 1.5 0 0 0 1.5-1.5V2.914a1.5 1.5 0 0 0-.44-1.06L14.147.439A1.5 1.5 0 0 0 13.086 0zM4 6a1 1 0 0 1-1-1V1h10v4a1 1 0 0 1-1 1zM3 9h10a1 1 0 0 1 1 1v5H2v-5a1 1 0 0 1 1-1"/>
    </symbol>
    <symbol id="cloud-download" fill="currentColor" viewBox="0 0 16 16">
        <path d="M4.406 1.342A5.53 5.53 0 0 1 8 0c2.69 0 4.923 2 5.166 4.579C14.758 4.804 16 6.137 16 7.773 16 9.569 14.502 11 12.687 11H10a.5.5 0 0 1 0-1h2.688C13.979 10 15 8.988 15 7.773c0-1.216-1.02-2.228-2.313-2.228h-.5v-.5C12.188 2.825 10.328 1 8 1a4.53 4.53 0 0 0-2.941 1.1c-.757.652-1.153 1.438-1.153 2.055v.448l-.445.049C2.064 4.805 1 5.952 1 7.318 1 8.785 2.23 10 3.781 10H6a.5.5 0 0 1 0 1H3.781C1.708 11 0 9.366 0 7.318c0-1.763 1.266-3.223 2.942-3.593.143-.863.698-1.723 1.464-2.383"/>
        <path d="M7.646 15.854a.5.5 0 0 0 .708 0l3-3a.5.5 0 0 0-.708-.708L8.5 14.293V5.5a.5.5 0 0 0-1 0v8.793l-2.146-2.147a.5.5 0 0 0-.708.708z"/>
    </symbol>
    <symbol fill="currentColor" id="arrow-counterclockwise" viewBox="0 0 16 16">
        <path fill-rule="evenodd" d="M8 3a5 5 0 1 1-4.546 2.914.5.5 0 0 0-.908-.417A6 6 0 1 0 8 2z"/>
        <path d="M8 4.466V.534a.25.25 0 0 0-.41-.192L5.23 2.308a.25.25 0 0 0 0 .384l2.36 1.966A.25.25 0 0 0 8 4.466"/>
    </symbol>
    <symbol fill="currentColor" id="eye-fill" viewBox="0 0 16 16">
        <path d="M10.5 8a2.5 2.5 0 1 1-5 0 2.5 2.5 0 0 1 5 0"/>
        <path d="M0 8s3-5.5 8-5.5S16 8 16 8s-3 5.5-8 5.5S0 8 0 8m8 3.5a3.5 3.5 0 1 0 0-7 3.5 3.5 0 0 0 0 7"/>
    </symbol>
</svg>